<?xml version="1.0" encoding="UTF-8"?>
<svg xmlns="http://www.w3.org/2000/svg" xmlns:xlink="http://www.w3.org/1999/xlink" width="1499pt" height="750pt" viewBox="0 0 1499 750" version="1.1">
<g id="surface16">
<rect x="0" y="0" width="1499" height="750" style="fill:rgb(100%,100%,100%);fill-opacity:1;stroke:none;"/>
<path style="fill-rule:nonzero;fill:rgb(80%,80%,80%);fill-opacity:1;stroke-width:1.5;stroke-linecap:round;stroke-linejoin:round;stroke:rgb(0%,0%,0%);stroke-opacity:1;stroke-miterlimit:10;" d="M 1373.847656 734.414063 L 1384.792969 734.414063 L 1384.792969 721.734375 L 1373.847656 721.734375 Z M 1373.847656 734.414063 "/>
<path style="fill-rule:nonzero;fill:rgb(99.607843%,99.607843%,99.607843%);fill-opacity:1;stroke-width:1.5;stroke-linecap:round;stroke-linejoin:round;stroke:rgb(0%,0%,0%);stroke-opacity:1;stroke-miterlimit:10;" d="M 1152.625 734.414063 L 1201.550781 734.414063 L 1201.550781 690.921875 L 1152.625 690.921875 Z M 1152.625 734.414063 "/>
<path style="fill-rule:nonzero;fill:rgb(99.607843%,99.215686%,99.215686%);fill-opacity:1;stroke-width:1.5;stroke-linecap:round;stroke-linejoin:round;stroke:rgb(0%,0%,0%);stroke-opacity:1;stroke-miterlimit:10;" d="M 1096.476563 734.414063 L 1152.625 734.414063 L 1152.625 679.78125 L 1096.476563 679.78125 Z M 1096.476563 734.414063 "/>
<path style="fill-rule:nonzero;fill:rgb(80%,80%,80%);fill-opacity:1;stroke-width:1.5;stroke-linecap:round;stroke-linejoin:round;stroke:rgb(0%,0%,0%);stroke-opacity:1;stroke-miterlimit:10;" d="M 1372.949219 681.421875 L 1387.089844 681.421875 L 1387.089844 663.164063 L 1372.949219 663.164063 Z M 1372.949219 681.421875 "/>
<path style="fill-rule:nonzero;fill:rgb(99.215686%,98.431373%,98.431373%);fill-opacity:1;stroke-width:1.5;stroke-linecap:round;stroke-linejoin:round;stroke:rgb(0%,0%,0%);stroke-opacity:1;stroke-miterlimit:10;" d="M 934.542969 301.742188 L 1068.058594 301.742188 L 1068.058594 179.925781 L 934.542969 179.925781 Z M 934.542969 301.742188 "/>
<path style="fill-rule:nonzero;fill:rgb(99.607843%,99.215686%,99.215686%);fill-opacity:1;stroke-width:1.5;stroke-linecap:round;stroke-linejoin:round;stroke:rgb(0%,0%,0%);stroke-opacity:1;stroke-miterlimit:10;" d="M 1285.980469 711.085938 L 1314.929688 711.085938 L 1314.929688 687.621094 L 1285.980469 687.621094 Z M 1285.980469 711.085938 "/>
<path style="fill-rule:nonzero;fill:rgb(99.607843%,99.607843%,99.607843%);fill-opacity:1;stroke-width:1.5;stroke-linecap:round;stroke-linejoin:round;stroke:rgb(0%,0%,0%);stroke-opacity:1;stroke-miterlimit:10;" d="M 1096.476563 445.785156 L 1158.308594 445.785156 L 1158.308594 372.84375 L 1096.476563 372.84375 Z M 1096.476563 445.785156 "/>
<path style="fill-rule:nonzero;fill:rgb(80%,80%,80%);fill-opacity:1;stroke-width:1.5;stroke-linecap:round;stroke-linejoin:round;stroke:rgb(0%,0%,0%);stroke-opacity:1;stroke-miterlimit:10;" d="M 1201.550781 701.25 L 1248.457031 701.25 L 1248.457031 664.671875 L 1201.550781 664.671875 Z M 1201.550781 701.25 "/>
<path style="fill-rule:nonzero;fill:rgb(94.509804%,80.784314%,83.529412%);fill-opacity:1;stroke-width:1.5;stroke-linecap:round;stroke-linejoin:round;stroke:rgb(0%,0%,0%);stroke-opacity:1;stroke-miterlimit:10;" d="M 1366.050781 501.726563 L 1413.824219 501.726563 L 1413.824219 445.785156 L 1366.050781 445.785156 Z M 1366.050781 501.726563 "/>
<path style="fill-rule:nonzero;fill:rgb(80%,80%,80%);fill-opacity:1;stroke-width:1.5;stroke-linecap:round;stroke-linejoin:round;stroke:rgb(0%,0%,0%);stroke-opacity:1;stroke-miterlimit:10;" d="M 1285.980469 734.414063 L 1314.929688 734.414063 L 1314.929688 711.085938 L 1285.980469 711.085938 Z M 1285.980469 734.414063 "/>
<path style="fill-rule:nonzero;fill:rgb(80%,80%,80%);fill-opacity:1;stroke-width:1.5;stroke-linecap:round;stroke-linejoin:round;stroke:rgb(0%,0%,0%);stroke-opacity:1;stroke-miterlimit:10;" d="M 1364.230469 445.785156 L 1413.824219 445.785156 L 1413.824219 372.84375 L 1364.230469 372.84375 Z M 1364.230469 445.785156 "/>
<path style="fill-rule:nonzero;fill:rgb(96.862745%,89.803922%,91.372549%);fill-opacity:1;stroke-width:1.5;stroke-linecap:round;stroke-linejoin:round;stroke:rgb(0%,0%,0%);stroke-opacity:1;stroke-miterlimit:10;" d="M 1401.503906 694.601563 L 1413.824219 694.601563 L 1413.824219 681.421875 L 1401.503906 681.421875 Z M 1401.503906 694.601563 "/>
<path style="fill-rule:nonzero;fill:rgb(89.411765%,63.137255%,68.235294%);fill-opacity:1;stroke-width:1.5;stroke-linecap:round;stroke-linejoin:round;stroke:rgb(0%,0%,0%);stroke-opacity:1;stroke-miterlimit:10;" d="M 1314.929688 711.171875 L 1337.527344 711.171875 L 1337.527344 686.835938 L 1314.929688 686.835938 Z M 1314.929688 711.171875 "/>
<path style="fill-rule:nonzero;fill:rgb(99.607843%,98.823529%,99.215686%);fill-opacity:1;stroke-width:1.5;stroke-linecap:round;stroke-linejoin:round;stroke:rgb(0%,0%,0%);stroke-opacity:1;stroke-miterlimit:10;" d="M 1400.289063 721.429688 L 1407.539063 721.429688 L 1407.539063 715.8125 L 1400.289063 715.8125 Z M 1400.289063 721.429688 "/>
<path style="fill-rule:nonzero;fill:rgb(98.039216%,93.72549%,94.509804%);fill-opacity:1;stroke-width:1.5;stroke-linecap:round;stroke-linejoin:round;stroke:rgb(0%,0%,0%);stroke-opacity:1;stroke-miterlimit:10;" d="M 1313.8125 501.726563 L 1366.050781 501.726563 L 1366.050781 445.785156 L 1313.8125 445.785156 Z M 1313.8125 501.726563 "/>
<path style="fill-rule:nonzero;fill:rgb(99.607843%,99.607843%,99.607843%);fill-opacity:1;stroke-width:1.5;stroke-linecap:round;stroke-linejoin:round;stroke:rgb(0%,0%,0%);stroke-opacity:1;stroke-miterlimit:10;" d="M 1314.929688 662.378906 L 1337.527344 662.378906 L 1337.527344 637.808594 L 1314.929688 637.808594 Z M 1314.929688 662.378906 "/>
<path style="fill-rule:nonzero;fill:rgb(98.039216%,94.117647%,94.901961%);fill-opacity:1;stroke-width:1.5;stroke-linecap:round;stroke-linejoin:round;stroke:rgb(0%,0%,0%);stroke-opacity:1;stroke-miterlimit:10;" d="M 1337.527344 718.671875 L 1358.324219 718.671875 L 1358.324219 702.015625 L 1337.527344 702.015625 Z M 1337.527344 718.671875 "/>
<path style="fill-rule:nonzero;fill:rgb(98.431373%,94.901961%,95.686275%);fill-opacity:1;stroke-width:1.5;stroke-linecap:round;stroke-linejoin:round;stroke:rgb(0%,0%,0%);stroke-opacity:1;stroke-miterlimit:10;" d="M 85.171875 734.414063 L 541.625 734.414063 L 541.625 479.714844 L 85.171875 479.714844 Z M 85.171875 734.414063 "/>
<path style="fill-rule:nonzero;fill:rgb(92.54902%,74.901961%,78.431373%);fill-opacity:1;stroke-width:1.5;stroke-linecap:round;stroke-linejoin:round;stroke:rgb(0%,0%,0%);stroke-opacity:1;stroke-miterlimit:10;" d="M 1314.929688 637.808594 L 1342.027344 637.808594 L 1342.027344 613.035156 L 1314.929688 613.035156 Z M 1314.929688 637.808594 "/>
<path style="fill-rule:nonzero;fill:rgb(80.784314%,32.156863%,41.960784%);fill-opacity:1;stroke-width:1.5;stroke-linecap:round;stroke-linejoin:round;stroke:rgb(0%,0%,0%);stroke-opacity:1;stroke-miterlimit:10;" d="M 1410.363281 730.457031 L 1413.828125 730.457031 L 1413.828125 727.078125 L 1410.363281 727.078125 Z M 1410.363281 730.457031 "/>
<path style="fill-rule:nonzero;fill:rgb(98.823529%,96.862745%,97.254902%);fill-opacity:1;stroke-width:1.5;stroke-linecap:round;stroke-linejoin:round;stroke:rgb(0%,0%,0%);stroke-opacity:1;stroke-miterlimit:10;" d="M 1152.625 551.820313 L 1201.550781 551.820313 L 1201.550781 501.726563 L 1152.625 501.726563 Z M 1152.625 551.820313 "/>
<path style="fill-rule:nonzero;fill:rgb(96.470588%,87.843137%,89.411765%);fill-opacity:1;stroke-width:1.5;stroke-linecap:round;stroke-linejoin:round;stroke:rgb(0%,0%,0%);stroke-opacity:1;stroke-miterlimit:10;" d="M 1285.980469 613.035156 L 1319.113281 613.035156 L 1319.113281 583.695313 L 1285.980469 583.695313 Z M 1285.980469 613.035156 "/>
<path style="fill-rule:nonzero;fill:rgb(98.431373%,94.509804%,95.294118%);fill-opacity:1;stroke-width:1.5;stroke-linecap:round;stroke-linejoin:round;stroke:rgb(0%,0%,0%);stroke-opacity:1;stroke-miterlimit:10;" d="M 1400.289063 727.953125 L 1405.207031 727.953125 L 1405.207031 721.429688 L 1400.289063 721.429688 Z M 1400.289063 727.953125 "/>
<path style="fill-rule:nonzero;fill:rgb(85.098039%,47.45098%,54.901961%);fill-opacity:1;stroke-width:1.5;stroke-linecap:round;stroke-linejoin:round;stroke:rgb(0%,0%,0%);stroke-opacity:1;stroke-miterlimit:10;" d="M 1410.363281 734.414063 L 1412.4375 734.414063 L 1412.4375 733.398438 L 1410.363281 733.398438 Z M 1410.363281 734.414063 "/>
<path style="fill-rule:nonzero;fill:rgb(92.156863%,72.156863%,76.078431%);fill-opacity:1;stroke-width:1.5;stroke-linecap:round;stroke-linejoin:round;stroke:rgb(0%,0%,0%);stroke-opacity:1;stroke-miterlimit:10;" d="M 1319.113281 613.035156 L 1352.210938 613.035156 L 1352.210938 583.695313 L 1319.113281 583.695313 Z M 1319.113281 613.035156 "/>
<path style="fill-rule:nonzero;fill:rgb(99.607843%,99.215686%,99.215686%);fill-opacity:1;stroke-width:1.5;stroke-linecap:round;stroke-linejoin:round;stroke:rgb(0%,0%,0%);stroke-opacity:1;stroke-miterlimit:10;" d="M 541.625 601.597656 L 808.855469 601.597656 L 808.855469 463.609375 L 541.625 463.609375 Z M 541.625 601.597656 "/>
<path style="fill-rule:nonzero;fill:rgb(99.215686%,97.254902%,97.647059%);fill-opacity:1;stroke-width:1.5;stroke-linecap:round;stroke-linejoin:round;stroke:rgb(0%,0%,0%);stroke-opacity:1;stroke-miterlimit:10;" d="M 85.171875 479.710938 L 541.625 479.710938 L 541.625 15.585938 L 85.171875 15.585938 Z M 85.171875 479.710938 "/>
<path style="fill-rule:nonzero;fill:rgb(98.823529%,95.686275%,96.470588%);fill-opacity:1;stroke-width:1.5;stroke-linecap:round;stroke-linejoin:round;stroke:rgb(0%,0%,0%);stroke-opacity:1;stroke-miterlimit:10;" d="M 808.855469 179.929688 L 995.152344 179.929688 L 995.152344 15.589844 L 808.855469 15.589844 Z M 808.855469 179.929688 "/>
<path style="fill-rule:nonzero;fill:rgb(87.45098%,56.862745%,62.745098%);fill-opacity:1;stroke-width:1.5;stroke-linecap:round;stroke-linejoin:round;stroke:rgb(0%,0%,0%);stroke-opacity:1;stroke-miterlimit:10;" d="M 1409.695313 727.078125 L 1413.828125 727.078125 L 1413.828125 721.429688 L 1409.695313 721.429688 Z M 1409.695313 727.078125 "/>
<path style="fill-rule:nonzero;fill:rgb(93.333333%,77.647059%,80.784314%);fill-opacity:1;stroke-width:1.5;stroke-linecap:round;stroke-linejoin:round;stroke:rgb(0%,0%,0%);stroke-opacity:1;stroke-miterlimit:10;" d="M 1158.308594 445.785156 L 1211.164063 445.785156 L 1211.164063 372.84375 L 1158.308594 372.84375 Z M 1158.308594 445.785156 "/>
<path style="fill-rule:nonzero;fill:rgb(99.607843%,98.823529%,98.823529%);fill-opacity:1;stroke-width:1.5;stroke-linecap:round;stroke-linejoin:round;stroke:rgb(0%,0%,0%);stroke-opacity:1;stroke-miterlimit:10;" d="M 1029.277344 734.414063 L 1096.476563 734.414063 L 1096.476563 666.296875 L 1029.277344 666.296875 Z M 1029.277344 734.414063 "/>
<path style="fill-rule:nonzero;fill:rgb(92.156863%,72.941176%,76.862745%);fill-opacity:1;stroke-width:1.5;stroke-linecap:round;stroke-linejoin:round;stroke:rgb(0%,0%,0%);stroke-opacity:1;stroke-miterlimit:10;" d="M 1342.027344 637.808594 L 1367.707031 637.808594 L 1367.707031 613.035156 L 1342.027344 613.035156 Z M 1342.027344 637.808594 "/>
<path style="fill-rule:nonzero;fill:rgb(80%,80%,80%);fill-opacity:1;stroke-width:1.5;stroke-linecap:round;stroke-linejoin:round;stroke:rgb(0%,0%,0%);stroke-opacity:1;stroke-miterlimit:10;" d="M 1248.457031 734.414063 L 1285.980469 734.414063 L 1285.980469 707.921875 L 1248.457031 707.921875 Z M 1248.457031 734.414063 "/>
<path style="fill-rule:nonzero;fill:rgb(98.431373%,94.901961%,95.686275%);fill-opacity:1;stroke-width:1.5;stroke-linecap:round;stroke-linejoin:round;stroke:rgb(0%,0%,0%);stroke-opacity:1;stroke-miterlimit:10;" d="M 1337.527344 663.164063 L 1357.285156 663.164063 L 1357.285156 637.808594 L 1337.527344 637.808594 Z M 1337.527344 663.164063 "/>
<path style="fill-rule:nonzero;fill:rgb(80%,80%,80%);fill-opacity:1;stroke-width:1.5;stroke-linecap:round;stroke-linejoin:round;stroke:rgb(0%,0%,0%);stroke-opacity:1;stroke-miterlimit:10;" d="M 1400.289063 734.414063 L 1405.207031 734.414063 L 1405.207031 727.953125 L 1400.289063 727.953125 Z M 1400.289063 734.414063 "/>
<path style="fill-rule:nonzero;fill:rgb(99.607843%,98.431373%,98.823529%);fill-opacity:1;stroke-width:1.5;stroke-linecap:round;stroke-linejoin:round;stroke:rgb(0%,0%,0%);stroke-opacity:1;stroke-miterlimit:10;" d="M 1096.476563 510.207031 L 1152.625 510.207031 L 1152.625 445.785156 L 1096.476563 445.785156 Z M 1096.476563 510.207031 "/>
<path style="fill-rule:nonzero;fill:rgb(73.333333%,7.058824%,20.392157%);fill-opacity:1;stroke-width:1.5;stroke-linecap:round;stroke-linejoin:round;stroke:rgb(0%,0%,0%);stroke-opacity:1;stroke-miterlimit:10;" d="M 1262.601563 445.785156 L 1313.476563 445.785156 L 1313.476563 372.84375 L 1262.601563 372.84375 Z M 1262.601563 445.785156 "/>
<path style="fill-rule:nonzero;fill:rgb(98.823529%,96.078431%,96.470588%);fill-opacity:1;stroke-width:1.5;stroke-linecap:round;stroke-linejoin:round;stroke:rgb(0%,0%,0%);stroke-opacity:1;stroke-miterlimit:10;" d="M 1248.457031 616.691406 L 1285.980469 616.691406 L 1285.980469 583.695313 L 1248.457031 583.695313 Z M 1248.457031 616.691406 "/>
<path style="fill-rule:nonzero;fill:rgb(99.607843%,99.215686%,99.215686%);fill-opacity:1;stroke-width:1.5;stroke-linecap:round;stroke-linejoin:round;stroke:rgb(0%,0%,0%);stroke-opacity:1;stroke-miterlimit:10;" d="M 934.542969 405.675781 L 1029.28125 405.675781 L 1029.28125 301.746094 L 934.542969 301.746094 Z M 934.542969 405.675781 "/>
<path style="fill-rule:nonzero;fill:rgb(99.607843%,98.823529%,98.823529%);fill-opacity:1;stroke-width:1.5;stroke-linecap:round;stroke-linejoin:round;stroke:rgb(0%,0%,0%);stroke-opacity:1;stroke-miterlimit:10;" d="M 1387.089844 681.421875 L 1400.867188 681.421875 L 1400.867188 663.164063 L 1387.089844 663.164063 Z M 1387.089844 681.421875 "/>
<path style="fill-rule:nonzero;fill:rgb(80%,80%,80%);fill-opacity:1;stroke-width:1.5;stroke-linecap:round;stroke-linejoin:round;stroke:rgb(0%,0%,0%);stroke-opacity:1;stroke-miterlimit:10;" d="M 1211.164063 445.785156 L 1262.601563 445.785156 L 1262.601563 372.84375 L 1211.164063 372.84375 Z M 1211.164063 445.785156 "/>
<path style="fill-rule:nonzero;fill:rgb(80%,80%,80%);fill-opacity:1;stroke-width:1.5;stroke-linecap:round;stroke-linejoin:round;stroke:rgb(0%,0%,0%);stroke-opacity:1;stroke-miterlimit:10;" d="M 1384.792969 727.21875 L 1393.496094 727.21875 L 1393.496094 718.523438 L 1384.792969 718.523438 Z M 1384.792969 727.21875 "/>
<path style="fill-rule:nonzero;fill:rgb(94.117647%,79.607843%,82.352941%);fill-opacity:1;stroke-width:1.5;stroke-linecap:round;stroke-linejoin:round;stroke:rgb(0%,0%,0%);stroke-opacity:1;stroke-miterlimit:10;" d="M 1201.550781 664.671875 L 1248.457031 664.671875 L 1248.457031 627.878906 L 1201.550781 627.878906 Z M 1201.550781 664.671875 "/>
<path style="fill-rule:nonzero;fill:rgb(99.607843%,98.431373%,98.823529%);fill-opacity:1;stroke-width:1.5;stroke-linecap:round;stroke-linejoin:round;stroke:rgb(0%,0%,0%);stroke-opacity:1;stroke-miterlimit:10;" d="M 1376.992188 663.164063 L 1395.714844 663.164063 L 1395.714844 637.808594 L 1376.992188 637.808594 Z M 1376.992188 663.164063 "/>
<path style="fill-rule:nonzero;fill:rgb(99.215686%,97.647059%,98.039216%);fill-opacity:1;stroke-width:1.5;stroke-linecap:round;stroke-linejoin:round;stroke:rgb(0%,0%,0%);stroke-opacity:1;stroke-miterlimit:10;" d="M 1291.191406 583.695313 L 1333.652344 583.695313 L 1333.652344 548.304688 L 1291.191406 548.304688 Z M 1291.191406 583.695313 "/>
<path style="fill-rule:nonzero;fill:rgb(93.333333%,76.470588%,80%);fill-opacity:1;stroke-width:1.5;stroke-linecap:round;stroke-linejoin:round;stroke:rgb(0%,0%,0%);stroke-opacity:1;stroke-miterlimit:10;" d="M 1400.5 715.8125 L 1407.398438 715.8125 L 1407.398438 708.414063 L 1400.5 708.414063 Z M 1400.5 715.8125 "/>
<path style="fill-rule:nonzero;fill:rgb(96.862745%,89.019608%,90.588235%);fill-opacity:1;stroke-width:1.5;stroke-linecap:round;stroke-linejoin:round;stroke:rgb(0%,0%,0%);stroke-opacity:1;stroke-miterlimit:10;" d="M 1373.21875 548.304688 L 1413.828125 548.304688 L 1413.828125 501.726563 L 1373.21875 501.726563 Z M 1373.21875 548.304688 "/>
<path style="fill-rule:nonzero;fill:rgb(96.862745%,89.019608%,90.588235%);fill-opacity:1;stroke-width:1.5;stroke-linecap:round;stroke-linejoin:round;stroke:rgb(0%,0%,0%);stroke-opacity:1;stroke-miterlimit:10;" d="M 1187.722656 372.84375 L 1265.066406 372.84375 L 1265.066406 301.742188 L 1187.722656 301.742188 Z M 1187.722656 372.84375 "/>
<path style="fill-rule:nonzero;fill:rgb(80%,80%,80%);fill-opacity:1;stroke-width:1.5;stroke-linecap:round;stroke-linejoin:round;stroke:rgb(0%,0%,0%);stroke-opacity:1;stroke-miterlimit:10;" d="M 1394.617188 708.417969 L 1404.367188 708.417969 L 1404.367188 694.601563 L 1394.617188 694.601563 Z M 1394.617188 708.417969 "/>
<path style="fill-rule:nonzero;fill:rgb(97.254902%,90.588235%,91.764706%);fill-opacity:1;stroke-width:1.5;stroke-linecap:round;stroke-linejoin:round;stroke:rgb(0%,0%,0%);stroke-opacity:1;stroke-miterlimit:10;" d="M 1152.625 646.296875 L 1201.550781 646.296875 L 1201.550781 599.972656 L 1152.625 599.972656 Z M 1152.625 646.296875 "/>
<path style="fill-rule:nonzero;fill:rgb(90.588235%,67.843137%,72.54902%);fill-opacity:1;stroke-width:1.5;stroke-linecap:round;stroke-linejoin:round;stroke:rgb(0%,0%,0%);stroke-opacity:1;stroke-miterlimit:10;" d="M 1405.210938 727.078125 L 1409.695313 727.078125 L 1409.695313 721.429688 L 1405.210938 721.429688 Z M 1405.210938 727.078125 "/>
<path style="fill-rule:nonzero;fill:rgb(92.54902%,74.509804%,78.039216%);fill-opacity:1;stroke-width:1.5;stroke-linecap:round;stroke-linejoin:round;stroke:rgb(0%,0%,0%);stroke-opacity:1;stroke-miterlimit:10;" d="M 1393.496094 728.347656 L 1400.289063 728.347656 L 1400.289063 722.199219 L 1393.496094 722.199219 Z M 1393.496094 728.347656 "/>
<path style="fill-rule:nonzero;fill:rgb(98.823529%,96.862745%,97.254902%);fill-opacity:1;stroke-width:1.5;stroke-linecap:round;stroke-linejoin:round;stroke:rgb(0%,0%,0%);stroke-opacity:1;stroke-miterlimit:10;" d="M 1337.527344 683.898438 L 1358.324219 683.898438 L 1358.324219 663.164063 L 1337.527344 663.164063 Z M 1337.527344 683.898438 "/>
<path style="fill-rule:nonzero;fill:rgb(85.882353%,50.588235%,57.647059%);fill-opacity:1;stroke-width:1.5;stroke-linecap:round;stroke-linejoin:round;stroke:rgb(0%,0%,0%);stroke-opacity:1;stroke-miterlimit:10;" d="M 1337.527344 734.414063 L 1358.324219 734.414063 L 1358.324219 718.671875 L 1337.527344 718.671875 Z M 1337.527344 734.414063 "/>
<path style="fill-rule:nonzero;fill:rgb(95.686275%,85.882353%,87.843137%);fill-opacity:1;stroke-width:1.5;stroke-linecap:round;stroke-linejoin:round;stroke:rgb(0%,0%,0%);stroke-opacity:1;stroke-miterlimit:10;" d="M 1246.539063 548.304688 L 1288.988281 548.304688 L 1288.988281 501.726563 L 1246.539063 501.726563 Z M 1246.539063 548.304688 "/>
<path style="fill-rule:nonzero;fill:rgb(96.862745%,89.803922%,91.372549%);fill-opacity:1;stroke-width:1.5;stroke-linecap:round;stroke-linejoin:round;stroke:rgb(0%,0%,0%);stroke-opacity:1;stroke-miterlimit:10;" d="M 541.625 463.609375 L 808.855469 463.609375 L 808.855469 267.09375 L 541.625 267.09375 Z M 541.625 463.609375 "/>
<path style="fill-rule:nonzero;fill:rgb(98.431373%,94.509804%,95.294118%);fill-opacity:1;stroke-width:1.5;stroke-linecap:round;stroke-linejoin:round;stroke:rgb(0%,0%,0%);stroke-opacity:1;stroke-miterlimit:10;" d="M 541.625 734.414063 L 808.855469 734.414063 L 808.855469 601.601563 L 541.625 601.601563 Z M 541.625 734.414063 "/>
<path style="fill-rule:nonzero;fill:rgb(99.607843%,99.215686%,99.607843%);fill-opacity:1;stroke-width:1.5;stroke-linecap:round;stroke-linejoin:round;stroke:rgb(0%,0%,0%);stroke-opacity:1;stroke-miterlimit:10;" d="M 1109.703125 372.84375 L 1187.722656 372.84375 L 1187.722656 301.742188 L 1109.703125 301.742188 Z M 1109.703125 372.84375 "/>
<path style="fill-rule:nonzero;fill:rgb(99.607843%,98.431373%,98.823529%);fill-opacity:1;stroke-width:1.5;stroke-linecap:round;stroke-linejoin:round;stroke:rgb(0%,0%,0%);stroke-opacity:1;stroke-miterlimit:10;" d="M 1265.070313 372.84375 L 1339.898438 372.84375 L 1339.898438 301.742188 L 1265.070313 301.742188 Z M 1265.070313 372.84375 "/>
<path style="fill-rule:nonzero;fill:rgb(80%,80%,80%);fill-opacity:1;stroke-width:1.5;stroke-linecap:round;stroke-linejoin:round;stroke:rgb(0%,0%,0%);stroke-opacity:1;stroke-miterlimit:10;" d="M 1248.457031 707.921875 L 1285.980469 707.921875 L 1285.980469 679.796875 L 1248.457031 679.796875 Z M 1248.457031 707.921875 "/>
<path style="fill-rule:nonzero;fill:rgb(99.607843%,99.607843%,99.607843%);fill-opacity:1;stroke-width:1.5;stroke-linecap:round;stroke-linejoin:round;stroke:rgb(0%,0%,0%);stroke-opacity:1;stroke-miterlimit:10;" d="M 1152.625 501.726563 L 1206.839844 501.726563 L 1206.839844 445.785156 L 1152.625 445.785156 Z M 1152.625 501.726563 "/>
<path style="fill-rule:nonzero;fill:rgb(99.607843%,99.607843%,99.607843%);fill-opacity:1;stroke-width:1.5;stroke-linecap:round;stroke-linejoin:round;stroke:rgb(0%,0%,0%);stroke-opacity:1;stroke-miterlimit:10;" d="M 1068.058594 301.742188 L 1200.332031 301.742188 L 1200.332031 179.925781 L 1068.058594 179.925781 Z M 1068.058594 301.742188 "/>
<path style="fill-rule:nonzero;fill:rgb(92.156863%,72.156863%,76.078431%);fill-opacity:1;stroke-width:1.5;stroke-linecap:round;stroke-linejoin:round;stroke:rgb(0%,0%,0%);stroke-opacity:1;stroke-miterlimit:10;" d="M 1383.671875 613.035156 L 1413.824219 613.035156 L 1413.824219 583.695313 L 1383.671875 583.695313 Z M 1383.671875 613.035156 "/>
<path style="fill-rule:nonzero;fill:rgb(80%,80%,80%);fill-opacity:1;stroke-width:1.5;stroke-linecap:round;stroke-linejoin:round;stroke:rgb(0%,0%,0%);stroke-opacity:1;stroke-miterlimit:10;" d="M 1405.210938 734.414063 L 1410.363281 734.414063 L 1410.363281 731.097656 L 1405.210938 731.097656 Z M 1405.210938 734.414063 "/>
<path style="fill-rule:nonzero;fill:rgb(99.215686%,97.647059%,97.647059%);fill-opacity:1;stroke-width:1.5;stroke-linecap:round;stroke-linejoin:round;stroke:rgb(0%,0%,0%);stroke-opacity:1;stroke-miterlimit:10;" d="M 1248.457031 649.519531 L 1285.980469 649.519531 L 1285.980469 616.691406 L 1248.457031 616.691406 Z M 1248.457031 649.519531 "/>
<path style="fill-rule:nonzero;fill:rgb(95.294118%,84.313725%,86.666667%);fill-opacity:1;stroke-width:1.5;stroke-linecap:round;stroke-linejoin:round;stroke:rgb(0%,0%,0%);stroke-opacity:1;stroke-miterlimit:10;" d="M 1357.285156 663.164063 L 1376.988281 663.164063 L 1376.988281 637.808594 L 1357.285156 637.808594 Z M 1357.285156 663.164063 "/>
<path style="fill-rule:nonzero;fill:rgb(80%,80%,80%);fill-opacity:1;stroke-width:1.5;stroke-linecap:round;stroke-linejoin:round;stroke:rgb(0%,0%,0%);stroke-opacity:1;stroke-miterlimit:10;" d="M 1029.277344 522.957031 L 1096.476563 522.957031 L 1096.476563 448.925781 L 1029.277344 448.925781 Z M 1029.277344 522.957031 "/>
<path style="fill-rule:nonzero;fill:rgb(87.45098%,56.470588%,62.745098%);fill-opacity:1;stroke-width:1.5;stroke-linecap:round;stroke-linejoin:round;stroke:rgb(0%,0%,0%);stroke-opacity:1;stroke-miterlimit:10;" d="M 1384.792969 718.523438 L 1393.496094 718.523438 L 1393.496094 708.414063 L 1384.792969 708.414063 Z M 1384.792969 718.523438 "/>
<path style="fill-rule:nonzero;fill:rgb(83.529412%,42.352941%,50.980392%);fill-opacity:1;stroke-width:1.5;stroke-linecap:round;stroke-linejoin:round;stroke:rgb(0%,0%,0%);stroke-opacity:1;stroke-miterlimit:10;" d="M 1201.550781 627.878906 L 1248.457031 627.878906 L 1248.457031 588.492188 L 1201.550781 588.492188 Z M 1201.550781 627.878906 "/>
<path style="fill-rule:nonzero;fill:rgb(80%,80%,80%);fill-opacity:1;stroke-width:1.5;stroke-linecap:round;stroke-linejoin:round;stroke:rgb(0%,0%,0%);stroke-opacity:1;stroke-miterlimit:10;" d="M 1096.476563 625.054688 L 1152.625 625.054688 L 1152.625 567.667969 L 1096.476563 567.667969 Z M 1096.476563 625.054688 "/>
<path style="fill-rule:nonzero;fill:rgb(99.607843%,99.607843%,99.607843%);fill-opacity:1;stroke-width:1.5;stroke-linecap:round;stroke-linejoin:round;stroke:rgb(0%,0%,0%);stroke-opacity:1;stroke-miterlimit:10;" d="M 1391.203125 637.808594 L 1413.828125 637.808594 L 1413.828125 613.035156 L 1391.203125 613.035156 Z M 1391.203125 637.808594 "/>
<path style="fill-rule:nonzero;fill:rgb(72.941176%,4.705882%,18.431373%);fill-opacity:1;stroke-width:1.5;stroke-linecap:round;stroke-linejoin:round;stroke:rgb(0%,0%,0%);stroke-opacity:1;stroke-miterlimit:10;" d="M 1333.652344 583.695313 L 1374.082031 583.695313 L 1374.082031 548.304688 L 1333.652344 548.304688 Z M 1333.652344 583.695313 "/>
<path style="fill-rule:nonzero;fill:rgb(81.176471%,34.117647%,43.529412%);fill-opacity:1;stroke-width:1.5;stroke-linecap:round;stroke-linejoin:round;stroke:rgb(0%,0%,0%);stroke-opacity:1;stroke-miterlimit:10;" d="M 1400.867188 681.421875 L 1413.828125 681.421875 L 1413.828125 663.164063 L 1400.867188 663.164063 Z M 1400.867188 681.421875 "/>
<path style="fill-rule:nonzero;fill:rgb(80%,80%,80%);fill-opacity:1;stroke-width:1.5;stroke-linecap:round;stroke-linejoin:round;stroke:rgb(0%,0%,0%);stroke-opacity:1;stroke-miterlimit:10;" d="M 1137.476563 179.929688 L 1275.777344 179.929688 L 1275.777344 15.589844 L 1137.476563 15.589844 Z M 1137.476563 179.929688 "/>
<path style="fill-rule:nonzero;fill:rgb(80%,80%,80%);fill-opacity:1;stroke-width:1.5;stroke-linecap:round;stroke-linejoin:round;stroke:rgb(0%,0%,0%);stroke-opacity:1;stroke-miterlimit:10;" d="M 1314.929688 686.832031 L 1337.527344 686.832031 L 1337.527344 662.375 L 1314.929688 662.375 Z M 1314.929688 686.832031 "/>
<path style="fill-rule:nonzero;fill:rgb(90.588235%,67.45098%,72.156863%);fill-opacity:1;stroke-width:1.5;stroke-linecap:round;stroke-linejoin:round;stroke:rgb(0%,0%,0%);stroke-opacity:1;stroke-miterlimit:10;" d="M 1285.980469 687.617188 L 1314.929688 687.617188 L 1314.929688 663.636719 L 1285.980469 663.636719 Z M 1285.980469 687.617188 "/>
<path style="fill-rule:nonzero;fill:rgb(80%,80%,80%);fill-opacity:1;stroke-width:1.5;stroke-linecap:round;stroke-linejoin:round;stroke:rgb(0%,0%,0%);stroke-opacity:1;stroke-miterlimit:10;" d="M 1393.496094 734.414063 L 1400.289063 734.414063 L 1400.289063 728.347656 L 1393.496094 728.347656 Z M 1393.496094 734.414063 "/>
<path style="fill-rule:nonzero;fill:rgb(96.078431%,86.666667%,88.235294%);fill-opacity:1;stroke-width:1.5;stroke-linecap:round;stroke-linejoin:round;stroke:rgb(0%,0%,0%);stroke-opacity:1;stroke-miterlimit:10;" d="M 1201.550781 548.304688 L 1246.539063 548.304688 L 1246.539063 501.726563 L 1201.550781 501.726563 Z M 1201.550781 548.304688 "/>
<path style="fill-rule:nonzero;fill:rgb(99.607843%,99.607843%,99.607843%);fill-opacity:1;stroke-width:1.5;stroke-linecap:round;stroke-linejoin:round;stroke:rgb(0%,0%,0%);stroke-opacity:1;stroke-miterlimit:10;" d="M 1395.714844 663.164063 L 1413.828125 663.164063 L 1413.828125 637.808594 L 1395.714844 637.808594 Z M 1395.714844 663.164063 "/>
<path style="fill-rule:nonzero;fill:rgb(99.607843%,99.215686%,99.215686%);fill-opacity:1;stroke-width:1.5;stroke-linecap:round;stroke-linejoin:round;stroke:rgb(0%,0%,0%);stroke-opacity:1;stroke-miterlimit:10;" d="M 541.625 267.09375 L 808.855469 267.09375 L 808.855469 15.585938 L 541.625 15.585938 Z M 541.625 267.09375 "/>
<path style="fill-rule:nonzero;fill:rgb(94.901961%,82.745098%,85.098039%);fill-opacity:1;stroke-width:1.5;stroke-linecap:round;stroke-linejoin:round;stroke:rgb(0%,0%,0%);stroke-opacity:1;stroke-miterlimit:10;" d="M 1412.4375 734.414063 L 1413.824219 734.414063 L 1413.824219 733.398438 L 1412.4375 733.398438 Z M 1412.4375 734.414063 "/>
<path style="fill-rule:nonzero;fill:rgb(99.607843%,99.607843%,99.607843%);fill-opacity:1;stroke-width:1.5;stroke-linecap:round;stroke-linejoin:round;stroke:rgb(0%,0%,0%);stroke-opacity:1;stroke-miterlimit:10;" d="M 1337.527344 702.015625 L 1358.324219 702.015625 L 1358.324219 683.898438 L 1337.527344 683.898438 Z M 1337.527344 702.015625 "/>
<path style="fill-rule:nonzero;fill:rgb(80%,80%,80%);fill-opacity:1;stroke-width:1.5;stroke-linecap:round;stroke-linejoin:round;stroke:rgb(0%,0%,0%);stroke-opacity:1;stroke-miterlimit:10;" d="M 1313.476563 445.785156 L 1364.230469 445.785156 L 1364.230469 372.84375 L 1313.476563 372.84375 Z M 1313.476563 445.785156 "/>
<path style="fill-rule:nonzero;fill:rgb(99.607843%,99.607843%,99.607843%);fill-opacity:1;stroke-width:1.5;stroke-linecap:round;stroke-linejoin:round;stroke:rgb(0%,0%,0%);stroke-opacity:1;stroke-miterlimit:10;" d="M 1285.980469 663.636719 L 1314.929688 663.636719 L 1314.929688 638.9375 L 1285.980469 638.9375 Z M 1285.980469 663.636719 "/>
<path style="fill-rule:nonzero;fill:rgb(99.607843%,99.215686%,99.215686%);fill-opacity:1;stroke-width:1.5;stroke-linecap:round;stroke-linejoin:round;stroke:rgb(0%,0%,0%);stroke-opacity:1;stroke-miterlimit:10;" d="M 1029.277344 372.84375 L 1109.703125 372.84375 L 1109.703125 301.742188 L 1029.277344 301.742188 Z M 1029.277344 372.84375 "/>
<path style="fill-rule:nonzero;fill:rgb(87.058824%,55.294118%,61.568627%);fill-opacity:1;stroke-width:1.5;stroke-linecap:round;stroke-linejoin:round;stroke:rgb(0%,0%,0%);stroke-opacity:1;stroke-miterlimit:10;" d="M 1326.246094 301.742188 L 1413.828125 301.742188 L 1413.828125 179.925781 L 1326.246094 179.925781 Z M 1326.246094 301.742188 "/>
<path style="fill-rule:nonzero;fill:rgb(80%,80%,80%);fill-opacity:1;stroke-width:1.5;stroke-linecap:round;stroke-linejoin:round;stroke:rgb(0%,0%,0%);stroke-opacity:1;stroke-miterlimit:10;" d="M 1029.277344 596.773438 L 1096.476563 596.773438 L 1096.476563 522.957031 L 1029.277344 522.957031 Z M 1029.277344 596.773438 "/>
<path style="fill-rule:nonzero;fill:rgb(96.862745%,89.803922%,91.372549%);fill-opacity:1;stroke-width:1.5;stroke-linecap:round;stroke-linejoin:round;stroke:rgb(0%,0%,0%);stroke-opacity:1;stroke-miterlimit:10;" d="M 1374.082031 583.695313 L 1413.828125 583.695313 L 1413.828125 548.304688 L 1374.082031 548.304688 Z M 1374.082031 583.695313 "/>
<path style="fill-rule:nonzero;fill:rgb(96.862745%,89.019608%,90.588235%);fill-opacity:1;stroke-width:1.5;stroke-linecap:round;stroke-linejoin:round;stroke:rgb(0%,0%,0%);stroke-opacity:1;stroke-miterlimit:10;" d="M 1384.792969 708.417969 L 1394.613281 708.417969 L 1394.613281 694.601563 L 1384.792969 694.601563 Z M 1384.792969 708.417969 "/>
<path style="fill-rule:nonzero;fill:rgb(98.431373%,95.686275%,96.078431%);fill-opacity:1;stroke-width:1.5;stroke-linecap:round;stroke-linejoin:round;stroke:rgb(0%,0%,0%);stroke-opacity:1;stroke-miterlimit:10;" d="M 1248.457031 583.695313 L 1291.191406 583.695313 L 1291.191406 548.304688 L 1248.457031 548.304688 Z M 1248.457031 583.695313 "/>
<path style="fill-rule:nonzero;fill:rgb(94.117647%,79.607843%,82.352941%);fill-opacity:1;stroke-width:1.5;stroke-linecap:round;stroke-linejoin:round;stroke:rgb(0%,0%,0%);stroke-opacity:1;stroke-miterlimit:10;" d="M 1248.457031 679.796875 L 1285.980469 679.796875 L 1285.980469 649.515625 L 1248.457031 649.515625 Z M 1248.457031 679.796875 "/>
<path style="fill-rule:nonzero;fill:rgb(85.490196%,49.019608%,56.078431%);fill-opacity:1;stroke-width:1.5;stroke-linecap:round;stroke-linejoin:round;stroke:rgb(0%,0%,0%);stroke-opacity:1;stroke-miterlimit:10;" d="M 934.542969 504.902344 L 1029.28125 504.902344 L 1029.28125 405.675781 L 934.542969 405.675781 Z M 934.542969 504.902344 "/>
<path style="fill-rule:nonzero;fill:rgb(80%,80%,80%);fill-opacity:1;stroke-width:1.5;stroke-linecap:round;stroke-linejoin:round;stroke:rgb(0%,0%,0%);stroke-opacity:1;stroke-miterlimit:10;" d="M 1206.835938 501.726563 L 1260.804688 501.726563 L 1260.804688 445.785156 L 1206.835938 445.785156 Z M 1206.835938 501.726563 "/>
<path style="fill-rule:nonzero;fill:rgb(98.823529%,96.078431%,96.470588%);fill-opacity:1;stroke-width:1.5;stroke-linecap:round;stroke-linejoin:round;stroke:rgb(0%,0%,0%);stroke-opacity:1;stroke-miterlimit:10;" d="M 1152.625 599.972656 L 1201.550781 599.972656 L 1201.550781 551.816406 L 1152.625 551.816406 Z M 1152.625 599.972656 "/>
<path style="fill-rule:nonzero;fill:rgb(80%,80%,80%);fill-opacity:1;stroke-width:1.5;stroke-linecap:round;stroke-linejoin:round;stroke:rgb(0%,0%,0%);stroke-opacity:1;stroke-miterlimit:10;" d="M 1410.363281 733.394531 L 1413.828125 733.394531 L 1413.828125 730.453125 L 1410.363281 730.453125 Z M 1410.363281 733.394531 "/>
<path style="fill-rule:nonzero;fill:rgb(99.215686%,97.647059%,98.039216%);fill-opacity:1;stroke-width:1.5;stroke-linecap:round;stroke-linejoin:round;stroke:rgb(0%,0%,0%);stroke-opacity:1;stroke-miterlimit:10;" d="M 934.542969 591.632813 L 1029.28125 591.632813 L 1029.28125 504.902344 L 934.542969 504.902344 Z M 934.542969 591.632813 "/>
<path style="fill-rule:nonzero;fill:rgb(99.215686%,97.647059%,98.039216%);fill-opacity:1;stroke-width:1.5;stroke-linecap:round;stroke-linejoin:round;stroke:rgb(0%,0%,0%);stroke-opacity:1;stroke-miterlimit:10;" d="M 1407.539063 721.429688 L 1413.828125 721.429688 L 1413.828125 715.8125 L 1407.539063 715.8125 Z M 1407.539063 721.429688 "/>
<path style="fill-rule:nonzero;fill:rgb(98.823529%,96.470588%,96.862745%);fill-opacity:1;stroke-width:1.5;stroke-linecap:round;stroke-linejoin:round;stroke:rgb(0%,0%,0%);stroke-opacity:1;stroke-miterlimit:10;" d="M 1367.710938 637.808594 L 1391.203125 637.808594 L 1391.203125 613.035156 L 1367.710938 613.035156 Z M 1367.710938 637.808594 "/>
<path style="fill-rule:nonzero;fill:rgb(99.215686%,98.431373%,98.431373%);fill-opacity:1;stroke-width:1.5;stroke-linecap:round;stroke-linejoin:round;stroke:rgb(0%,0%,0%);stroke-opacity:1;stroke-miterlimit:10;" d="M 808.855469 326.46875 L 934.542969 326.46875 L 934.542969 179.929688 L 808.855469 179.929688 Z M 808.855469 326.46875 "/>
<path style="fill-rule:nonzero;fill:rgb(97.647059%,92.156863%,93.333333%);fill-opacity:1;stroke-width:1.5;stroke-linecap:round;stroke-linejoin:round;stroke:rgb(0%,0%,0%);stroke-opacity:1;stroke-miterlimit:10;" d="M 934.542969 663.488281 L 1029.28125 663.488281 L 1029.28125 591.632813 L 934.542969 591.632813 Z M 934.542969 663.488281 "/>
<path style="fill-rule:nonzero;fill:rgb(85.098039%,48.235294%,55.686275%);fill-opacity:1;stroke-width:1.5;stroke-linecap:round;stroke-linejoin:round;stroke:rgb(0%,0%,0%);stroke-opacity:1;stroke-miterlimit:10;" d="M 1358.324219 709.136719 L 1373.847656 709.136719 L 1373.847656 695.765625 L 1358.324219 695.765625 Z M 1358.324219 709.136719 "/>
<path style="fill-rule:nonzero;fill:rgb(80%,80%,80%);fill-opacity:1;stroke-width:1.5;stroke-linecap:round;stroke-linejoin:round;stroke:rgb(0%,0%,0%);stroke-opacity:1;stroke-miterlimit:10;" d="M 1358.324219 734.414063 L 1373.847656 734.414063 L 1373.847656 722.234375 L 1358.324219 722.234375 Z M 1358.324219 734.414063 "/>
<path style="fill-rule:nonzero;fill:rgb(97.647059%,92.54902%,93.72549%);fill-opacity:1;stroke-width:1.5;stroke-linecap:round;stroke-linejoin:round;stroke:rgb(0%,0%,0%);stroke-opacity:1;stroke-miterlimit:10;" d="M 1373.847656 708.523438 L 1384.792969 708.523438 L 1384.792969 694.601563 L 1373.847656 694.601563 Z M 1373.847656 708.523438 "/>
<path style="fill-rule:nonzero;fill:rgb(80%,80%,80%);fill-opacity:1;stroke-width:1.5;stroke-linecap:round;stroke-linejoin:round;stroke:rgb(0%,0%,0%);stroke-opacity:1;stroke-miterlimit:10;" d="M 1358.324219 695.769531 L 1373.847656 695.769531 L 1373.847656 681.421875 L 1358.324219 681.421875 Z M 1358.324219 695.769531 "/>
<path style="fill-rule:nonzero;fill:rgb(80%,80%,80%);fill-opacity:1;stroke-width:1.5;stroke-linecap:round;stroke-linejoin:round;stroke:rgb(0%,0%,0%);stroke-opacity:1;stroke-miterlimit:10;" d="M 1393.496094 715.8125 L 1400.5 715.8125 L 1400.5 708.414063 L 1393.496094 708.414063 Z M 1393.496094 715.8125 "/>
<path style="fill-rule:nonzero;fill:rgb(92.54902%,73.72549%,77.647059%);fill-opacity:1;stroke-width:1.5;stroke-linecap:round;stroke-linejoin:round;stroke:rgb(0%,0%,0%);stroke-opacity:1;stroke-miterlimit:10;" d="M 1407.398438 715.8125 L 1413.824219 715.8125 L 1413.824219 708.414063 L 1407.398438 708.414063 Z M 1407.398438 715.8125 "/>
<path style="fill-rule:nonzero;fill:rgb(80%,80%,80%);fill-opacity:1;stroke-width:1.5;stroke-linecap:round;stroke-linejoin:round;stroke:rgb(0%,0%,0%);stroke-opacity:1;stroke-miterlimit:10;" d="M 808.855469 603.792969 L 934.542969 603.792969 L 934.542969 465.980469 L 808.855469 465.980469 Z M 808.855469 603.792969 "/>
<path style="fill-rule:nonzero;fill:rgb(93.72549%,78.039216%,81.176471%);fill-opacity:1;stroke-width:1.5;stroke-linecap:round;stroke-linejoin:round;stroke:rgb(0%,0%,0%);stroke-opacity:1;stroke-miterlimit:10;" d="M 1314.929688 734.414063 L 1337.527344 734.414063 L 1337.527344 711.171875 L 1314.929688 711.171875 Z M 1314.929688 734.414063 "/>
<path style="fill-rule:nonzero;fill:rgb(80%,80%,80%);fill-opacity:1;stroke-width:1.5;stroke-linecap:round;stroke-linejoin:round;stroke:rgb(0%,0%,0%);stroke-opacity:1;stroke-miterlimit:10;" d="M 1152.625 690.921875 L 1201.550781 690.921875 L 1201.550781 646.296875 L 1152.625 646.296875 Z M 1152.625 690.921875 "/>
<path style="fill-rule:nonzero;fill:rgb(99.607843%,99.607843%,99.607843%);fill-opacity:1;stroke-width:1.5;stroke-linecap:round;stroke-linejoin:round;stroke:rgb(0%,0%,0%);stroke-opacity:1;stroke-miterlimit:10;" d="M 1358.324219 681.421875 L 1372.949219 681.421875 L 1372.949219 663.164063 L 1358.324219 663.164063 Z M 1358.324219 681.421875 "/>
<path style="fill-rule:nonzero;fill:rgb(89.019608%,62.352941%,67.843137%);fill-opacity:1;stroke-width:1.5;stroke-linecap:round;stroke-linejoin:round;stroke:rgb(0%,0%,0%);stroke-opacity:1;stroke-miterlimit:10;" d="M 1352.210938 613.035156 L 1383.675781 613.035156 L 1383.675781 583.695313 L 1352.210938 583.695313 Z M 1352.210938 613.035156 "/>
<path style="fill-rule:nonzero;fill:rgb(80%,80%,80%);fill-opacity:1;stroke-width:1.5;stroke-linecap:round;stroke-linejoin:round;stroke:rgb(0%,0%,0%);stroke-opacity:1;stroke-miterlimit:10;" d="M 1387.953125 694.601563 L 1401.503906 694.601563 L 1401.503906 681.421875 L 1387.953125 681.421875 Z M 1387.953125 694.601563 "/>
<path style="fill-rule:nonzero;fill:rgb(99.215686%,97.647059%,97.647059%);fill-opacity:1;stroke-width:1.5;stroke-linecap:round;stroke-linejoin:round;stroke:rgb(0%,0%,0%);stroke-opacity:1;stroke-miterlimit:10;" d="M 808.855469 734.414063 L 934.542969 734.414063 L 934.542969 603.796875 L 808.855469 603.796875 Z M 808.855469 734.414063 "/>
<path style="fill-rule:nonzero;fill:rgb(99.607843%,98.823529%,99.215686%);fill-opacity:1;stroke-width:1.5;stroke-linecap:round;stroke-linejoin:round;stroke:rgb(0%,0%,0%);stroke-opacity:1;stroke-miterlimit:10;" d="M 1201.550781 734.414063 L 1248.457031 734.414063 L 1248.457031 701.25 L 1201.550781 701.25 Z M 1201.550781 734.414063 "/>
<path style="fill-rule:nonzero;fill:rgb(97.254902%,90.980392%,92.156863%);fill-opacity:1;stroke-width:1.5;stroke-linecap:round;stroke-linejoin:round;stroke:rgb(0%,0%,0%);stroke-opacity:1;stroke-miterlimit:10;" d="M 1029.277344 448.925781 L 1096.476563 448.925781 L 1096.476563 372.84375 L 1029.277344 372.84375 Z M 1029.277344 448.925781 "/>
<path style="fill-rule:nonzero;fill:rgb(97.647059%,92.941176%,93.72549%);fill-opacity:1;stroke-width:1.5;stroke-linecap:round;stroke-linejoin:round;stroke:rgb(0%,0%,0%);stroke-opacity:1;stroke-miterlimit:10;" d="M 1358.324219 722.234375 L 1373.847656 722.234375 L 1373.847656 709.136719 L 1358.324219 709.136719 Z M 1358.324219 722.234375 "/>
<path style="fill-rule:nonzero;fill:rgb(91.372549%,69.411765%,73.72549%);fill-opacity:1;stroke-width:1.5;stroke-linecap:round;stroke-linejoin:round;stroke:rgb(0%,0%,0%);stroke-opacity:1;stroke-miterlimit:10;" d="M 1404.363281 708.417969 L 1413.824219 708.417969 L 1413.824219 694.601563 L 1404.363281 694.601563 Z M 1404.363281 708.417969 "/>
<path style="fill-rule:nonzero;fill:rgb(99.215686%,97.647059%,98.039216%);fill-opacity:1;stroke-width:1.5;stroke-linecap:round;stroke-linejoin:round;stroke:rgb(0%,0%,0%);stroke-opacity:1;stroke-miterlimit:10;" d="M 1373.847656 694.601563 L 1387.953125 694.601563 L 1387.953125 681.421875 L 1373.847656 681.421875 Z M 1373.847656 694.601563 "/>
<path style="fill-rule:nonzero;fill:rgb(92.54902%,74.509804%,78.039216%);fill-opacity:1;stroke-width:1.5;stroke-linecap:round;stroke-linejoin:round;stroke:rgb(0%,0%,0%);stroke-opacity:1;stroke-miterlimit:10;" d="M 1096.476563 679.78125 L 1152.625 679.78125 L 1152.625 625.054688 L 1096.476563 625.054688 Z M 1096.476563 679.78125 "/>
<path style="fill-rule:nonzero;fill:rgb(99.607843%,99.607843%,99.607843%);fill-opacity:1;stroke-width:1.5;stroke-linecap:round;stroke-linejoin:round;stroke:rgb(0%,0%,0%);stroke-opacity:1;stroke-miterlimit:10;" d="M 995.152344 179.929688 L 1137.476563 179.929688 L 1137.476563 15.589844 L 995.152344 15.589844 Z M 995.152344 179.929688 "/>
<path style="fill-rule:nonzero;fill:rgb(95.686275%,85.098039%,87.058824%);fill-opacity:1;stroke-width:1.5;stroke-linecap:round;stroke-linejoin:round;stroke:rgb(0%,0%,0%);stroke-opacity:1;stroke-miterlimit:10;" d="M 1393.496094 722.199219 L 1400.289063 722.199219 L 1400.289063 715.816406 L 1393.496094 715.816406 Z M 1393.496094 722.199219 "/>
<path style="fill-rule:nonzero;fill:rgb(87.45098%,56.078431%,62.352941%);fill-opacity:1;stroke-width:1.5;stroke-linecap:round;stroke-linejoin:round;stroke:rgb(0%,0%,0%);stroke-opacity:1;stroke-miterlimit:10;" d="M 1373.847656 721.734375 L 1384.792969 721.734375 L 1384.792969 708.523438 L 1373.847656 708.523438 Z M 1373.847656 721.734375 "/>
<path style="fill-rule:nonzero;fill:rgb(80%,80%,80%);fill-opacity:1;stroke-width:1.5;stroke-linecap:round;stroke-linejoin:round;stroke:rgb(0%,0%,0%);stroke-opacity:1;stroke-miterlimit:10;" d="M 1405.210938 731.09375 L 1410.363281 731.09375 L 1410.363281 727.078125 L 1405.210938 727.078125 Z M 1405.210938 731.09375 "/>
<path style="fill-rule:nonzero;fill:rgb(99.607843%,99.215686%,99.215686%);fill-opacity:1;stroke-width:1.5;stroke-linecap:round;stroke-linejoin:round;stroke:rgb(0%,0%,0%);stroke-opacity:1;stroke-miterlimit:10;" d="M 1260.808594 501.726563 L 1313.816406 501.726563 L 1313.816406 445.785156 L 1260.808594 445.785156 Z M 1260.808594 501.726563 "/>
<path style="fill-rule:nonzero;fill:rgb(99.607843%,99.607843%,99.607843%);fill-opacity:1;stroke-width:1.5;stroke-linecap:round;stroke-linejoin:round;stroke:rgb(0%,0%,0%);stroke-opacity:1;stroke-miterlimit:10;" d="M 1288.988281 548.304688 L 1331.164063 548.304688 L 1331.164063 501.726563 L 1288.988281 501.726563 Z M 1288.988281 548.304688 "/>
<path style="fill-rule:nonzero;fill:rgb(80%,80%,80%);fill-opacity:1;stroke-width:1.5;stroke-linecap:round;stroke-linejoin:round;stroke:rgb(0%,0%,0%);stroke-opacity:1;stroke-miterlimit:10;" d="M 1275.777344 179.929688 L 1413.828125 179.929688 L 1413.828125 15.589844 L 1275.777344 15.589844 Z M 1275.777344 179.929688 "/>
<path style="fill-rule:nonzero;fill:rgb(99.215686%,98.039216%,98.039216%);fill-opacity:1;stroke-width:1.5;stroke-linecap:round;stroke-linejoin:round;stroke:rgb(0%,0%,0%);stroke-opacity:1;stroke-miterlimit:10;" d="M 1339.894531 372.84375 L 1413.824219 372.84375 L 1413.824219 301.742188 L 1339.894531 301.742188 Z M 1339.894531 372.84375 "/>
<path style="fill-rule:nonzero;fill:rgb(93.333333%,77.254902%,80.392157%);fill-opacity:1;stroke-width:1.5;stroke-linecap:round;stroke-linejoin:round;stroke:rgb(0%,0%,0%);stroke-opacity:1;stroke-miterlimit:10;" d="M 1331.160156 548.304688 L 1373.21875 548.304688 L 1373.21875 501.726563 L 1331.160156 501.726563 Z M 1331.160156 548.304688 "/>
<path style="fill-rule:nonzero;fill:rgb(80%,80%,80%);fill-opacity:1;stroke-width:1.5;stroke-linecap:round;stroke-linejoin:round;stroke:rgb(0%,0%,0%);stroke-opacity:1;stroke-miterlimit:10;" d="M 934.542969 734.414063 L 1029.28125 734.414063 L 1029.28125 663.488281 L 934.542969 663.488281 Z M 934.542969 734.414063 "/>
<path style="fill-rule:nonzero;fill:rgb(99.607843%,99.607843%,99.607843%);fill-opacity:1;stroke-width:1.5;stroke-linecap:round;stroke-linejoin:round;stroke:rgb(0%,0%,0%);stroke-opacity:1;stroke-miterlimit:10;" d="M 1029.277344 666.292969 L 1096.476563 666.292969 L 1096.476563 596.769531 L 1029.277344 596.769531 Z M 1029.277344 666.292969 "/>
<path style="fill-rule:nonzero;fill:rgb(80%,80%,80%);fill-opacity:1;stroke-width:1.5;stroke-linecap:round;stroke-linejoin:round;stroke:rgb(0%,0%,0%);stroke-opacity:1;stroke-miterlimit:10;" d="M 1201.550781 588.496094 L 1248.457031 588.496094 L 1248.457031 548.304688 L 1201.550781 548.304688 Z M 1201.550781 588.496094 "/>
<path style="fill-rule:nonzero;fill:rgb(80%,80%,80%);fill-opacity:1;stroke-width:1.5;stroke-linecap:round;stroke-linejoin:round;stroke:rgb(0%,0%,0%);stroke-opacity:1;stroke-miterlimit:10;" d="M 1384.792969 734.414063 L 1393.496094 734.414063 L 1393.496094 727.21875 L 1384.792969 727.21875 Z M 1384.792969 734.414063 "/>
<path style="fill-rule:nonzero;fill:rgb(98.039216%,92.941176%,94.117647%);fill-opacity:1;stroke-width:1.5;stroke-linecap:round;stroke-linejoin:round;stroke:rgb(0%,0%,0%);stroke-opacity:1;stroke-miterlimit:10;" d="M 808.855469 465.980469 L 934.542969 465.980469 L 934.542969 326.46875 L 808.855469 326.46875 Z M 808.855469 465.980469 "/>
<path style="fill-rule:nonzero;fill:rgb(99.215686%,98.039216%,98.431373%);fill-opacity:1;stroke-width:1.5;stroke-linecap:round;stroke-linejoin:round;stroke:rgb(0%,0%,0%);stroke-opacity:1;stroke-miterlimit:10;" d="M 1200.332031 301.742188 L 1326.246094 301.742188 L 1326.246094 179.925781 L 1200.332031 179.925781 Z M 1200.332031 301.742188 "/>
<path style="fill-rule:nonzero;fill:rgb(77.254902%,20.784314%,32.156863%);fill-opacity:1;stroke-width:1.5;stroke-linecap:round;stroke-linejoin:round;stroke:rgb(0%,0%,0%);stroke-opacity:1;stroke-miterlimit:10;" d="M 1096.476563 567.667969 L 1152.625 567.667969 L 1152.625 510.207031 L 1096.476563 510.207031 Z M 1096.476563 567.667969 "/>
<path style="fill-rule:nonzero;fill:rgb(80%,80%,80%);fill-opacity:1;stroke-width:1.5;stroke-linecap:round;stroke-linejoin:round;stroke:rgb(0%,0%,0%);stroke-opacity:1;stroke-miterlimit:10;" d="M 1285.980469 638.9375 L 1314.929688 638.9375 L 1314.929688 613.035156 L 1285.980469 613.035156 Z M 1285.980469 638.9375 "/>
</g>
</svg>
