<?xml version="1.0" encoding="UTF-8"?>
<svg xmlns="http://www.w3.org/2000/svg" xmlns:xlink="http://www.w3.org/1999/xlink" width="1499pt" height="750pt" viewBox="0 0 1499 750" version="1.1">
<g id="surface21">
<rect x="0" y="0" width="1499" height="750" style="fill:rgb(100%,100%,100%);fill-opacity:1;stroke:none;"/>
<path style="fill-rule:nonzero;fill:rgb(99.607843%,99.607843%,99.607843%);fill-opacity:1;stroke-width:1.5;stroke-linecap:round;stroke-linejoin:round;stroke:rgb(0%,0%,0%);stroke-opacity:1;stroke-miterlimit:10;" d="M 1107.601563 557.945313 L 1147.835938 557.945313 L 1147.835938 514.601563 L 1107.601563 514.601563 Z M 1107.601563 557.945313 "/>
<path style="fill-rule:nonzero;fill:rgb(99.607843%,99.215686%,99.215686%);fill-opacity:1;stroke-width:1.5;stroke-linecap:round;stroke-linejoin:round;stroke:rgb(0%,0%,0%);stroke-opacity:1;stroke-miterlimit:10;" d="M 1160.566406 464.984375 L 1213.441406 464.984375 L 1213.441406 417.441406 L 1160.566406 417.441406 Z M 1160.566406 464.984375 "/>
<path style="fill-rule:nonzero;fill:rgb(99.215686%,98.431373%,98.431373%);fill-opacity:1;stroke-width:1.5;stroke-linecap:round;stroke-linejoin:round;stroke:rgb(0%,0%,0%);stroke-opacity:1;stroke-miterlimit:10;" d="M 991.035156 357.464844 L 1102.082031 357.464844 L 1102.082031 237.441406 L 991.035156 237.441406 Z M 991.035156 357.464844 "/>
<path style="fill-rule:nonzero;fill:rgb(99.607843%,99.215686%,99.215686%);fill-opacity:1;stroke-width:1.5;stroke-linecap:round;stroke-linejoin:round;stroke:rgb(0%,0%,0%);stroke-opacity:1;stroke-miterlimit:10;" d="M 1216.21875 656.925781 L 1239.152344 656.925781 L 1239.152344 632.652344 L 1216.21875 632.652344 Z M 1216.21875 656.925781 "/>
<path style="fill-rule:nonzero;fill:rgb(99.607843%,99.607843%,99.607843%);fill-opacity:1;stroke-width:1.5;stroke-linecap:round;stroke-linejoin:round;stroke:rgb(0%,0%,0%);stroke-opacity:1;stroke-miterlimit:10;" d="M 1048.757813 480.246094 L 1107.605469 480.246094 L 1107.605469 417.441406 L 1048.757813 417.441406 Z M 1048.757813 480.246094 "/>
<path style="fill-rule:nonzero;fill:rgb(94.509804%,80.784314%,83.529412%);fill-opacity:1;stroke-width:1.5;stroke-linecap:round;stroke-linejoin:round;stroke:rgb(0%,0%,0%);stroke-opacity:1;stroke-miterlimit:10;" d="M 1155.867188 514.601563 L 1200.007813 514.601563 L 1200.007813 464.980469 L 1155.867188 464.980469 Z M 1155.867188 514.601563 "/>
<path style="fill-rule:nonzero;fill:rgb(96.862745%,89.803922%,91.372549%);fill-opacity:1;stroke-width:1.5;stroke-linecap:round;stroke-linejoin:round;stroke:rgb(0%,0%,0%);stroke-opacity:1;stroke-miterlimit:10;" d="M 1291.269531 653.507813 L 1304.457031 653.507813 L 1304.457031 643.414063 L 1291.269531 643.414063 Z M 1291.269531 653.507813 "/>
<path style="fill-rule:nonzero;fill:rgb(89.411765%,63.137255%,68.235294%);fill-opacity:1;stroke-width:1.5;stroke-linecap:round;stroke-linejoin:round;stroke:rgb(0%,0%,0%);stroke-opacity:1;stroke-miterlimit:10;" d="M 1239.15625 626.527344 L 1262.148438 626.527344 L 1262.148438 606.921875 L 1239.15625 606.921875 Z M 1239.15625 626.527344 "/>
<path style="fill-rule:nonzero;fill:rgb(99.607843%,98.823529%,99.215686%);fill-opacity:1;stroke-width:1.5;stroke-linecap:round;stroke-linejoin:round;stroke:rgb(0%,0%,0%);stroke-opacity:1;stroke-miterlimit:10;" d="M 1310.75 672.175781 L 1316.828125 672.175781 L 1316.828125 666.6875 L 1310.75 666.6875 Z M 1310.75 672.175781 "/>
<path style="fill-rule:nonzero;fill:rgb(98.039216%,93.72549%,94.509804%);fill-opacity:1;stroke-width:1.5;stroke-linecap:round;stroke-linejoin:round;stroke:rgb(0%,0%,0%);stroke-opacity:1;stroke-miterlimit:10;" d="M 1107.601563 514.601563 L 1155.863281 514.601563 L 1155.863281 464.980469 L 1107.601563 464.980469 Z M 1107.601563 514.601563 "/>
<path style="fill-rule:nonzero;fill:rgb(99.607843%,99.607843%,99.607843%);fill-opacity:1;stroke-width:1.5;stroke-linecap:round;stroke-linejoin:round;stroke:rgb(0%,0%,0%);stroke-opacity:1;stroke-miterlimit:10;" d="M 1298.347656 606.921875 L 1316.828125 606.921875 L 1316.828125 582.296875 L 1298.347656 582.296875 Z M 1298.347656 606.921875 "/>
<path style="fill-rule:nonzero;fill:rgb(98.039216%,94.117647%,94.901961%);fill-opacity:1;stroke-width:1.5;stroke-linecap:round;stroke-linejoin:round;stroke:rgb(0%,0%,0%);stroke-opacity:1;stroke-miterlimit:10;" d="M 1262.144531 664.230469 L 1278.226563 664.230469 L 1278.226563 646.582031 L 1262.144531 646.582031 Z M 1262.144531 664.230469 "/>
<path style="fill-rule:nonzero;fill:rgb(98.431373%,94.901961%,95.686275%);fill-opacity:1;stroke-width:1.5;stroke-linecap:round;stroke-linejoin:round;stroke:rgb(0%,0%,0%);stroke-opacity:1;stroke-miterlimit:10;" d="M 182.171875 680.914063 L 621.648438 680.914063 L 621.648438 464.125 L 182.171875 464.125 Z M 182.171875 680.914063 "/>
<path style="fill-rule:nonzero;fill:rgb(92.54902%,74.901961%,78.431373%);fill-opacity:1;stroke-width:1.5;stroke-linecap:round;stroke-linejoin:round;stroke:rgb(0%,0%,0%);stroke-opacity:1;stroke-miterlimit:10;" d="M 1216.21875 680.914063 L 1239.152344 680.914063 L 1239.152344 656.929688 L 1216.21875 656.929688 Z M 1216.21875 680.914063 "/>
<path style="fill-rule:nonzero;fill:rgb(80.784314%,32.156863%,41.960784%);fill-opacity:1;stroke-width:1.5;stroke-linecap:round;stroke-linejoin:round;stroke:rgb(0%,0%,0%);stroke-opacity:1;stroke-miterlimit:10;" d="M 1314.460938 679.691406 L 1316.828125 679.691406 L 1316.828125 675.636719 L 1314.460938 675.636719 Z M 1314.460938 679.691406 "/>
<path style="fill-rule:nonzero;fill:rgb(98.823529%,96.862745%,97.254902%);fill-opacity:1;stroke-width:1.5;stroke-linecap:round;stroke-linejoin:round;stroke:rgb(0%,0%,0%);stroke-opacity:1;stroke-miterlimit:10;" d="M 1200.007813 514.601563 L 1240.484375 514.601563 L 1240.484375 464.980469 L 1200.007813 464.980469 Z M 1200.007813 514.601563 "/>
<path style="fill-rule:nonzero;fill:rgb(96.470588%,87.843137%,89.411765%);fill-opacity:1;stroke-width:1.5;stroke-linecap:round;stroke-linejoin:round;stroke:rgb(0%,0%,0%);stroke-opacity:1;stroke-miterlimit:10;" d="M 1216.21875 582.296875 L 1242.292969 582.296875 L 1242.292969 551.742188 L 1216.21875 551.742188 Z M 1216.21875 582.296875 "/>
<path style="fill-rule:nonzero;fill:rgb(98.431373%,94.509804%,95.294118%);fill-opacity:1;stroke-width:1.5;stroke-linecap:round;stroke-linejoin:round;stroke:rgb(0%,0%,0%);stroke-opacity:1;stroke-miterlimit:10;" d="M 1304.511719 680.914063 L 1310.832031 680.914063 L 1310.832031 676.753906 L 1304.511719 676.753906 Z M 1304.511719 680.914063 "/>
<path style="fill-rule:nonzero;fill:rgb(85.098039%,47.45098%,54.901961%);fill-opacity:1;stroke-width:1.5;stroke-linecap:round;stroke-linejoin:round;stroke:rgb(0%,0%,0%);stroke-opacity:1;stroke-miterlimit:10;" d="M 1314.460938 680.914063 L 1315.878906 680.914063 L 1315.878906 679.695313 L 1314.460938 679.695313 Z M 1314.460938 680.914063 "/>
<path style="fill-rule:nonzero;fill:rgb(92.156863%,72.156863%,76.078431%);fill-opacity:1;stroke-width:1.5;stroke-linecap:round;stroke-linejoin:round;stroke:rgb(0%,0%,0%);stroke-opacity:1;stroke-miterlimit:10;" d="M 1242.292969 582.296875 L 1268.339844 582.296875 L 1268.339844 551.742188 L 1242.292969 551.742188 Z M 1242.292969 582.296875 "/>
<path style="fill-rule:nonzero;fill:rgb(99.607843%,99.215686%,99.215686%);fill-opacity:1;stroke-width:1.5;stroke-linecap:round;stroke-linejoin:round;stroke:rgb(0%,0%,0%);stroke-opacity:1;stroke-miterlimit:10;" d="M 621.648438 680.914063 L 752.753906 680.914063 L 752.753906 450.421875 L 621.648438 450.421875 Z M 621.648438 680.914063 "/>
<path style="fill-rule:nonzero;fill:rgb(99.215686%,97.254902%,97.647059%);fill-opacity:1;stroke-width:1.5;stroke-linecap:round;stroke-linejoin:round;stroke:rgb(0%,0%,0%);stroke-opacity:1;stroke-miterlimit:10;" d="M 182.171875 464.125 L 621.648438 464.125 L 621.648438 69.085938 L 182.171875 69.085938 Z M 182.171875 464.125 "/>
<path style="fill-rule:nonzero;fill:rgb(98.823529%,95.686275%,96.470588%);fill-opacity:1;stroke-width:1.5;stroke-linecap:round;stroke-linejoin:round;stroke:rgb(0%,0%,0%);stroke-opacity:1;stroke-miterlimit:10;" d="M 878.941406 237.441406 L 1027.96875 237.441406 L 1027.96875 69.085938 L 878.941406 69.085938 Z M 878.941406 237.441406 "/>
<path style="fill-rule:nonzero;fill:rgb(87.45098%,56.862745%,62.745098%);fill-opacity:1;stroke-width:1.5;stroke-linecap:round;stroke-linejoin:round;stroke:rgb(0%,0%,0%);stroke-opacity:1;stroke-miterlimit:10;" d="M 1310.832031 680.914063 L 1314.457031 680.914063 L 1314.457031 675.640625 L 1310.832031 675.640625 Z M 1310.832031 680.914063 "/>
<path style="fill-rule:nonzero;fill:rgb(93.333333%,77.647059%,80.784314%);fill-opacity:1;stroke-width:1.5;stroke-linecap:round;stroke-linejoin:round;stroke:rgb(0%,0%,0%);stroke-opacity:1;stroke-miterlimit:10;" d="M 1048.757813 533.933594 L 1107.605469 533.933594 L 1107.605469 480.246094 L 1048.757813 480.246094 Z M 1048.757813 533.933594 "/>
<path style="fill-rule:nonzero;fill:rgb(99.607843%,98.823529%,98.823529%);fill-opacity:1;stroke-width:1.5;stroke-linecap:round;stroke-linejoin:round;stroke:rgb(0%,0%,0%);stroke-opacity:1;stroke-miterlimit:10;" d="M 1254.28125 417.4375 L 1316.828125 417.4375 L 1316.828125 357.464844 L 1254.28125 357.464844 Z M 1254.28125 417.4375 "/>
<path style="fill-rule:nonzero;fill:rgb(92.156863%,72.941176%,76.862745%);fill-opacity:1;stroke-width:1.5;stroke-linecap:round;stroke-linejoin:round;stroke:rgb(0%,0%,0%);stroke-opacity:1;stroke-miterlimit:10;" d="M 1239.15625 606.921875 L 1260.328125 606.921875 L 1260.328125 582.296875 L 1239.15625 582.296875 Z M 1239.15625 606.921875 "/>
<path style="fill-rule:nonzero;fill:rgb(98.431373%,94.901961%,95.686275%);fill-opacity:1;stroke-width:1.5;stroke-linecap:round;stroke-linejoin:round;stroke:rgb(0%,0%,0%);stroke-opacity:1;stroke-miterlimit:10;" d="M 1239.15625 663.105469 L 1262.148438 663.105469 L 1262.148438 645.25 L 1239.15625 645.25 Z M 1239.15625 663.105469 "/>
<path style="fill-rule:nonzero;fill:rgb(99.607843%,98.431373%,98.823529%);fill-opacity:1;stroke-width:1.5;stroke-linecap:round;stroke-linejoin:round;stroke:rgb(0%,0%,0%);stroke-opacity:1;stroke-miterlimit:10;" d="M 1048.757813 635.984375 L 1107.605469 635.984375 L 1107.605469 585.613281 L 1048.757813 585.613281 Z M 1048.757813 635.984375 "/>
<path style="fill-rule:nonzero;fill:rgb(73.333333%,7.058824%,20.392157%);fill-opacity:1;stroke-width:1.5;stroke-linecap:round;stroke-linejoin:round;stroke:rgb(0%,0%,0%);stroke-opacity:1;stroke-miterlimit:10;" d="M 1048.757813 585.609375 L 1107.605469 585.609375 L 1107.605469 533.933594 L 1048.757813 533.933594 Z M 1048.757813 585.609375 "/>
<path style="fill-rule:nonzero;fill:rgb(98.823529%,96.078431%,96.470588%);fill-opacity:1;stroke-width:1.5;stroke-linecap:round;stroke-linejoin:round;stroke:rgb(0%,0%,0%);stroke-opacity:1;stroke-miterlimit:10;" d="M 1184.414063 619.894531 L 1216.21875 619.894531 L 1216.21875 587.988281 L 1184.414063 587.988281 Z M 1184.414063 619.894531 "/>
<path style="fill-rule:nonzero;fill:rgb(99.607843%,99.215686%,99.215686%);fill-opacity:1;stroke-width:1.5;stroke-linecap:round;stroke-linejoin:round;stroke:rgb(0%,0%,0%);stroke-opacity:1;stroke-miterlimit:10;" d="M 878.941406 531.480469 L 975.554688 531.480469 L 975.554688 447.960938 L 878.941406 447.960938 Z M 878.941406 531.480469 "/>
<path style="fill-rule:nonzero;fill:rgb(99.607843%,98.823529%,98.823529%);fill-opacity:1;stroke-width:1.5;stroke-linecap:round;stroke-linejoin:round;stroke:rgb(0%,0%,0%);stroke-opacity:1;stroke-miterlimit:10;" d="M 1291.875 643.414063 L 1304.730469 643.414063 L 1304.730469 627.378906 L 1291.875 627.378906 Z M 1291.875 643.414063 "/>
<path style="fill-rule:nonzero;fill:rgb(94.117647%,79.607843%,82.352941%);fill-opacity:1;stroke-width:1.5;stroke-linecap:round;stroke-linejoin:round;stroke:rgb(0%,0%,0%);stroke-opacity:1;stroke-miterlimit:10;" d="M 1147.835938 680.914063 L 1184.414063 680.914063 L 1184.414063 642.25 L 1147.835938 642.25 Z M 1147.835938 680.914063 "/>
<path style="fill-rule:nonzero;fill:rgb(99.607843%,98.431373%,98.823529%);fill-opacity:1;stroke-width:1.5;stroke-linecap:round;stroke-linejoin:round;stroke:rgb(0%,0%,0%);stroke-opacity:1;stroke-miterlimit:10;" d="M 1262.144531 627.382813 L 1281.160156 627.382813 L 1281.160156 606.921875 L 1262.144531 606.921875 Z M 1262.144531 627.382813 "/>
<path style="fill-rule:nonzero;fill:rgb(99.215686%,97.647059%,98.039216%);fill-opacity:1;stroke-width:1.5;stroke-linecap:round;stroke-linejoin:round;stroke:rgb(0%,0%,0%);stroke-opacity:1;stroke-miterlimit:10;" d="M 1252.105469 551.742188 L 1285.261719 551.742188 L 1285.261719 514.601563 L 1252.105469 514.601563 Z M 1252.105469 551.742188 "/>
<path style="fill-rule:nonzero;fill:rgb(93.333333%,76.470588%,80%);fill-opacity:1;stroke-width:1.5;stroke-linecap:round;stroke-linejoin:round;stroke:rgb(0%,0%,0%);stroke-opacity:1;stroke-miterlimit:10;" d="M 1291.269531 680.914063 L 1299.277344 680.914063 L 1299.277344 675.691406 L 1291.269531 675.691406 Z M 1291.269531 680.914063 "/>
<path style="fill-rule:nonzero;fill:rgb(96.862745%,89.019608%,90.588235%);fill-opacity:1;stroke-width:1.5;stroke-linecap:round;stroke-linejoin:round;stroke:rgb(0%,0%,0%);stroke-opacity:1;stroke-miterlimit:10;" d="M 1147.835938 600.863281 L 1184.414063 600.863281 L 1184.414063 558.488281 L 1147.835938 558.488281 Z M 1147.835938 600.863281 "/>
<path style="fill-rule:nonzero;fill:rgb(96.862745%,89.019608%,90.588235%);fill-opacity:1;stroke-width:1.5;stroke-linecap:round;stroke-linejoin:round;stroke:rgb(0%,0%,0%);stroke-opacity:1;stroke-miterlimit:10;" d="M 975.554688 621.355469 L 1048.757813 621.355469 L 1048.757813 559.792969 L 975.554688 559.792969 Z M 975.554688 621.355469 "/>
<path style="fill-rule:nonzero;fill:rgb(97.254902%,90.588235%,91.764706%);fill-opacity:1;stroke-width:1.5;stroke-linecap:round;stroke-linejoin:round;stroke:rgb(0%,0%,0%);stroke-opacity:1;stroke-miterlimit:10;" d="M 1279.394531 514.601563 L 1316.824219 514.601563 L 1316.824219 464.980469 L 1279.394531 464.980469 Z M 1279.394531 514.601563 "/>
<path style="fill-rule:nonzero;fill:rgb(90.588235%,67.843137%,72.54902%);fill-opacity:1;stroke-width:1.5;stroke-linecap:round;stroke-linejoin:round;stroke:rgb(0%,0%,0%);stroke-opacity:1;stroke-miterlimit:10;" d="M 1310.832031 675.640625 L 1316.824219 675.640625 L 1316.824219 672.179688 L 1310.832031 672.179688 Z M 1310.832031 675.640625 "/>
<path style="fill-rule:nonzero;fill:rgb(92.54902%,74.509804%,78.039216%);fill-opacity:1;stroke-width:1.5;stroke-linecap:round;stroke-linejoin:round;stroke:rgb(0%,0%,0%);stroke-opacity:1;stroke-miterlimit:10;" d="M 1304.511719 672.175781 L 1310.75 672.175781 L 1310.75 666.6875 L 1304.511719 666.6875 Z M 1304.511719 672.175781 "/>
<path style="fill-rule:nonzero;fill:rgb(98.823529%,96.862745%,97.254902%);fill-opacity:1;stroke-width:1.5;stroke-linecap:round;stroke-linejoin:round;stroke:rgb(0%,0%,0%);stroke-opacity:1;stroke-miterlimit:10;" d="M 1299.554688 627.382813 L 1316.824219 627.382813 L 1316.824219 606.921875 L 1299.554688 606.921875 Z M 1299.554688 627.382813 "/>
<path style="fill-rule:nonzero;fill:rgb(85.882353%,50.588235%,57.647059%);fill-opacity:1;stroke-width:1.5;stroke-linecap:round;stroke-linejoin:round;stroke:rgb(0%,0%,0%);stroke-opacity:1;stroke-miterlimit:10;" d="M 1262.144531 680.914063 L 1278.226563 680.914063 L 1278.226563 664.230469 L 1262.144531 664.230469 Z M 1262.144531 680.914063 "/>
<path style="fill-rule:nonzero;fill:rgb(95.686275%,85.882353%,87.843137%);fill-opacity:1;stroke-width:1.5;stroke-linecap:round;stroke-linejoin:round;stroke:rgb(0%,0%,0%);stroke-opacity:1;stroke-miterlimit:10;" d="M 1107.601563 640.902344 L 1147.835938 640.902344 L 1147.835938 600.628906 L 1107.601563 600.628906 Z M 1107.601563 640.902344 "/>
<path style="fill-rule:nonzero;fill:rgb(96.862745%,89.803922%,91.372549%);fill-opacity:1;stroke-width:1.5;stroke-linecap:round;stroke-linejoin:round;stroke:rgb(0%,0%,0%);stroke-opacity:1;stroke-miterlimit:10;" d="M 621.648438 450.421875 L 878.941406 450.421875 L 878.941406 283.15625 L 621.648438 283.15625 Z M 621.648438 450.421875 "/>
<path style="fill-rule:nonzero;fill:rgb(98.431373%,94.509804%,95.294118%);fill-opacity:1;stroke-width:1.5;stroke-linecap:round;stroke-linejoin:round;stroke:rgb(0%,0%,0%);stroke-opacity:1;stroke-miterlimit:10;" d="M 752.753906 680.914063 L 878.941406 680.914063 L 878.941406 450.421875 L 752.753906 450.421875 Z M 752.753906 680.914063 "/>
<path style="fill-rule:nonzero;fill:rgb(99.607843%,99.215686%,99.607843%);fill-opacity:1;stroke-width:1.5;stroke-linecap:round;stroke-linejoin:round;stroke:rgb(0%,0%,0%);stroke-opacity:1;stroke-miterlimit:10;" d="M 975.554688 559.789063 L 1048.757813 559.789063 L 1048.757813 497.6875 L 975.554688 497.6875 Z M 975.554688 559.789063 "/>
<path style="fill-rule:nonzero;fill:rgb(99.607843%,98.431373%,98.823529%);fill-opacity:1;stroke-width:1.5;stroke-linecap:round;stroke-linejoin:round;stroke:rgb(0%,0%,0%);stroke-opacity:1;stroke-miterlimit:10;" d="M 975.554688 680.914063 L 1048.757813 680.914063 L 1048.757813 621.355469 L 975.554688 621.355469 Z M 975.554688 680.914063 "/>
<path style="fill-rule:nonzero;fill:rgb(99.607843%,99.607843%,99.607843%);fill-opacity:1;stroke-width:1.5;stroke-linecap:round;stroke-linejoin:round;stroke:rgb(0%,0%,0%);stroke-opacity:1;stroke-miterlimit:10;" d="M 1213.441406 464.984375 L 1265.714844 464.984375 L 1265.714844 417.441406 L 1213.441406 417.441406 Z M 1213.441406 464.984375 "/>
<path style="fill-rule:nonzero;fill:rgb(99.607843%,99.607843%,99.607843%);fill-opacity:1;stroke-width:1.5;stroke-linecap:round;stroke-linejoin:round;stroke:rgb(0%,0%,0%);stroke-opacity:1;stroke-miterlimit:10;" d="M 1102.085938 357.464844 L 1212.101563 357.464844 L 1212.101563 237.441406 L 1102.085938 237.441406 Z M 1102.085938 357.464844 "/>
<path style="fill-rule:nonzero;fill:rgb(92.156863%,72.156863%,76.078431%);fill-opacity:1;stroke-width:1.5;stroke-linecap:round;stroke-linejoin:round;stroke:rgb(0%,0%,0%);stroke-opacity:1;stroke-miterlimit:10;" d="M 1293.097656 582.296875 L 1316.828125 582.296875 L 1316.828125 551.742188 L 1293.097656 551.742188 Z M 1293.097656 582.296875 "/>
<path style="fill-rule:nonzero;fill:rgb(99.215686%,97.647059%,97.647059%);fill-opacity:1;stroke-width:1.5;stroke-linecap:round;stroke-linejoin:round;stroke:rgb(0%,0%,0%);stroke-opacity:1;stroke-miterlimit:10;" d="M 1184.414063 651.636719 L 1216.21875 651.636719 L 1216.21875 619.894531 L 1184.414063 619.894531 Z M 1184.414063 651.636719 "/>
<path style="fill-rule:nonzero;fill:rgb(95.294118%,84.313725%,86.666667%);fill-opacity:1;stroke-width:1.5;stroke-linecap:round;stroke-linejoin:round;stroke:rgb(0%,0%,0%);stroke-opacity:1;stroke-miterlimit:10;" d="M 1239.15625 680.914063 L 1262.148438 680.914063 L 1262.148438 663.105469 L 1239.15625 663.105469 Z M 1239.15625 680.914063 "/>
<path style="fill-rule:nonzero;fill:rgb(87.45098%,56.470588%,62.745098%);fill-opacity:1;stroke-width:1.5;stroke-linecap:round;stroke-linejoin:round;stroke:rgb(0%,0%,0%);stroke-opacity:1;stroke-miterlimit:10;" d="M 1291.269531 675.691406 L 1299.277344 675.691406 L 1299.277344 666.6875 L 1291.269531 666.6875 Z M 1291.269531 675.691406 "/>
<path style="fill-rule:nonzero;fill:rgb(83.529412%,42.352941%,50.980392%);fill-opacity:1;stroke-width:1.5;stroke-linecap:round;stroke-linejoin:round;stroke:rgb(0%,0%,0%);stroke-opacity:1;stroke-miterlimit:10;" d="M 1147.835938 642.25 L 1184.414063 642.25 L 1184.414063 600.863281 L 1147.835938 600.863281 Z M 1147.835938 642.25 "/>
<path style="fill-rule:nonzero;fill:rgb(99.607843%,99.607843%,99.607843%);fill-opacity:1;stroke-width:1.5;stroke-linecap:round;stroke-linejoin:round;stroke:rgb(0%,0%,0%);stroke-opacity:1;stroke-miterlimit:10;" d="M 1279.695313 606.921875 L 1298.347656 606.921875 L 1298.347656 582.296875 L 1279.695313 582.296875 Z M 1279.695313 606.921875 "/>
<path style="fill-rule:nonzero;fill:rgb(72.941176%,4.705882%,18.431373%);fill-opacity:1;stroke-width:1.5;stroke-linecap:round;stroke-linejoin:round;stroke:rgb(0%,0%,0%);stroke-opacity:1;stroke-miterlimit:10;" d="M 1285.261719 551.742188 L 1316.828125 551.742188 L 1316.828125 514.601563 L 1285.261719 514.601563 Z M 1285.261719 551.742188 "/>
<path style="fill-rule:nonzero;fill:rgb(81.176471%,34.117647%,43.529412%);fill-opacity:1;stroke-width:1.5;stroke-linecap:round;stroke-linejoin:round;stroke:rgb(0%,0%,0%);stroke-opacity:1;stroke-miterlimit:10;" d="M 1304.730469 643.414063 L 1316.824219 643.414063 L 1316.824219 627.378906 L 1304.730469 627.378906 Z M 1304.730469 643.414063 "/>
<path style="fill-rule:nonzero;fill:rgb(90.588235%,67.45098%,72.156863%);fill-opacity:1;stroke-width:1.5;stroke-linecap:round;stroke-linejoin:round;stroke:rgb(0%,0%,0%);stroke-opacity:1;stroke-miterlimit:10;" d="M 1216.21875 632.652344 L 1239.152344 632.652344 L 1239.152344 607.847656 L 1216.21875 607.847656 Z M 1216.21875 632.652344 "/>
<path style="fill-rule:nonzero;fill:rgb(96.078431%,86.666667%,88.235294%);fill-opacity:1;stroke-width:1.5;stroke-linecap:round;stroke-linejoin:round;stroke:rgb(0%,0%,0%);stroke-opacity:1;stroke-miterlimit:10;" d="M 1107.601563 600.628906 L 1147.835938 600.628906 L 1147.835938 557.945313 L 1107.601563 557.945313 Z M 1107.601563 600.628906 "/>
<path style="fill-rule:nonzero;fill:rgb(99.607843%,99.607843%,99.607843%);fill-opacity:1;stroke-width:1.5;stroke-linecap:round;stroke-linejoin:round;stroke:rgb(0%,0%,0%);stroke-opacity:1;stroke-miterlimit:10;" d="M 1281.160156 627.382813 L 1299.554688 627.382813 L 1299.554688 606.921875 L 1281.160156 606.921875 Z M 1281.160156 627.382813 "/>
<path style="fill-rule:nonzero;fill:rgb(99.607843%,99.215686%,99.215686%);fill-opacity:1;stroke-width:1.5;stroke-linecap:round;stroke-linejoin:round;stroke:rgb(0%,0%,0%);stroke-opacity:1;stroke-miterlimit:10;" d="M 621.648438 283.15625 L 878.941406 283.15625 L 878.941406 69.085938 L 621.648438 69.085938 Z M 621.648438 283.15625 "/>
<path style="fill-rule:nonzero;fill:rgb(94.901961%,82.745098%,85.098039%);fill-opacity:1;stroke-width:1.5;stroke-linecap:round;stroke-linejoin:round;stroke:rgb(0%,0%,0%);stroke-opacity:1;stroke-miterlimit:10;" d="M 1315.878906 680.914063 L 1316.828125 680.914063 L 1316.828125 679.695313 L 1315.878906 679.695313 Z M 1315.878906 680.914063 "/>
<path style="fill-rule:nonzero;fill:rgb(99.607843%,99.607843%,99.607843%);fill-opacity:1;stroke-width:1.5;stroke-linecap:round;stroke-linejoin:round;stroke:rgb(0%,0%,0%);stroke-opacity:1;stroke-miterlimit:10;" d="M 1262.144531 646.578125 L 1278.226563 646.578125 L 1278.226563 627.378906 L 1262.144531 627.378906 Z M 1262.144531 646.578125 "/>
<path style="fill-rule:nonzero;fill:rgb(99.607843%,99.607843%,99.607843%);fill-opacity:1;stroke-width:1.5;stroke-linecap:round;stroke-linejoin:round;stroke:rgb(0%,0%,0%);stroke-opacity:1;stroke-miterlimit:10;" d="M 1216.21875 607.847656 L 1239.152344 607.847656 L 1239.152344 582.296875 L 1216.21875 582.296875 Z M 1216.21875 607.847656 "/>
<path style="fill-rule:nonzero;fill:rgb(99.607843%,99.215686%,99.215686%);fill-opacity:1;stroke-width:1.5;stroke-linecap:round;stroke-linejoin:round;stroke:rgb(0%,0%,0%);stroke-opacity:1;stroke-miterlimit:10;" d="M 975.554688 497.6875 L 1048.757813 497.6875 L 1048.757813 433.671875 L 975.554688 433.671875 Z M 975.554688 497.6875 "/>
<path style="fill-rule:nonzero;fill:rgb(87.058824%,55.294118%,61.568627%);fill-opacity:1;stroke-width:1.5;stroke-linecap:round;stroke-linejoin:round;stroke:rgb(0%,0%,0%);stroke-opacity:1;stroke-miterlimit:10;" d="M 878.941406 447.960938 L 975.554688 447.960938 L 975.554688 357.464844 L 878.941406 357.464844 Z M 878.941406 447.960938 "/>
<path style="fill-rule:nonzero;fill:rgb(96.862745%,89.803922%,91.372549%);fill-opacity:1;stroke-width:1.5;stroke-linecap:round;stroke-linejoin:round;stroke:rgb(0%,0%,0%);stroke-opacity:1;stroke-miterlimit:10;" d="M 1184.414063 587.988281 L 1216.21875 587.988281 L 1216.21875 551.746094 L 1184.414063 551.746094 Z M 1184.414063 587.988281 "/>
<path style="fill-rule:nonzero;fill:rgb(96.862745%,89.019608%,90.588235%);fill-opacity:1;stroke-width:1.5;stroke-linecap:round;stroke-linejoin:round;stroke:rgb(0%,0%,0%);stroke-opacity:1;stroke-miterlimit:10;" d="M 1300.261719 666.6875 L 1308.699219 666.6875 L 1308.699219 653.507813 L 1300.261719 653.507813 Z M 1300.261719 666.6875 "/>
<path style="fill-rule:nonzero;fill:rgb(98.431373%,95.686275%,96.078431%);fill-opacity:1;stroke-width:1.5;stroke-linecap:round;stroke-linejoin:round;stroke:rgb(0%,0%,0%);stroke-opacity:1;stroke-miterlimit:10;" d="M 1218.738281 551.742188 L 1252.105469 551.742188 L 1252.105469 514.601563 L 1218.738281 514.601563 Z M 1218.738281 551.742188 "/>
<path style="fill-rule:nonzero;fill:rgb(94.117647%,79.607843%,82.352941%);fill-opacity:1;stroke-width:1.5;stroke-linecap:round;stroke-linejoin:round;stroke:rgb(0%,0%,0%);stroke-opacity:1;stroke-miterlimit:10;" d="M 1184.414063 680.914063 L 1216.21875 680.914063 L 1216.21875 651.636719 L 1184.414063 651.636719 Z M 1184.414063 680.914063 "/>
<path style="fill-rule:nonzero;fill:rgb(85.490196%,49.019608%,56.078431%);fill-opacity:1;stroke-width:1.5;stroke-linecap:round;stroke-linejoin:round;stroke:rgb(0%,0%,0%);stroke-opacity:1;stroke-miterlimit:10;" d="M 878.941406 611.214844 L 975.554688 611.214844 L 975.554688 531.476563 L 878.941406 531.476563 Z M 878.941406 611.214844 "/>
<path style="fill-rule:nonzero;fill:rgb(98.823529%,96.078431%,96.470588%);fill-opacity:1;stroke-width:1.5;stroke-linecap:round;stroke-linejoin:round;stroke:rgb(0%,0%,0%);stroke-opacity:1;stroke-miterlimit:10;" d="M 1240.484375 514.601563 L 1279.394531 514.601563 L 1279.394531 464.980469 L 1240.484375 464.980469 Z M 1240.484375 514.601563 "/>
<path style="fill-rule:nonzero;fill:rgb(99.215686%,97.647059%,98.039216%);fill-opacity:1;stroke-width:1.5;stroke-linecap:round;stroke-linejoin:round;stroke:rgb(0%,0%,0%);stroke-opacity:1;stroke-miterlimit:10;" d="M 878.941406 680.914063 L 975.554688 680.914063 L 975.554688 611.21875 L 878.941406 611.21875 Z M 878.941406 680.914063 "/>
<path style="fill-rule:nonzero;fill:rgb(99.215686%,97.647059%,98.039216%);fill-opacity:1;stroke-width:1.5;stroke-linecap:round;stroke-linejoin:round;stroke:rgb(0%,0%,0%);stroke-opacity:1;stroke-miterlimit:10;" d="M 1304.511719 676.753906 L 1310.832031 676.753906 L 1310.832031 672.175781 L 1304.511719 672.175781 Z M 1304.511719 676.753906 "/>
<path style="fill-rule:nonzero;fill:rgb(98.823529%,96.470588%,96.862745%);fill-opacity:1;stroke-width:1.5;stroke-linecap:round;stroke-linejoin:round;stroke:rgb(0%,0%,0%);stroke-opacity:1;stroke-miterlimit:10;" d="M 1260.328125 606.921875 L 1279.699219 606.921875 L 1279.699219 582.296875 L 1260.328125 582.296875 Z M 1260.328125 606.921875 "/>
<path style="fill-rule:nonzero;fill:rgb(99.215686%,98.431373%,98.431373%);fill-opacity:1;stroke-width:1.5;stroke-linecap:round;stroke-linejoin:round;stroke:rgb(0%,0%,0%);stroke-opacity:1;stroke-miterlimit:10;" d="M 1141.820313 237.441406 L 1231.472656 237.441406 L 1231.472656 69.085938 L 1141.820313 69.085938 Z M 1141.820313 237.441406 "/>
<path style="fill-rule:nonzero;fill:rgb(97.647059%,92.156863%,93.333333%);fill-opacity:1;stroke-width:1.5;stroke-linecap:round;stroke-linejoin:round;stroke:rgb(0%,0%,0%);stroke-opacity:1;stroke-miterlimit:10;" d="M 975.554688 433.671875 L 1048.757813 433.671875 L 1048.757813 357.464844 L 975.554688 357.464844 Z M 975.554688 433.671875 "/>
<path style="fill-rule:nonzero;fill:rgb(85.098039%,48.235294%,55.686275%);fill-opacity:1;stroke-width:1.5;stroke-linecap:round;stroke-linejoin:round;stroke:rgb(0%,0%,0%);stroke-opacity:1;stroke-miterlimit:10;" d="M 1278.226563 656.457031 L 1291.269531 656.457031 L 1291.269531 643.414063 L 1278.226563 643.414063 Z M 1278.226563 656.457031 "/>
<path style="fill-rule:nonzero;fill:rgb(97.647059%,92.54902%,93.72549%);fill-opacity:1;stroke-width:1.5;stroke-linecap:round;stroke-linejoin:round;stroke:rgb(0%,0%,0%);stroke-opacity:1;stroke-miterlimit:10;" d="M 1304.453125 653.507813 L 1316.824219 653.507813 L 1316.824219 643.414063 L 1304.453125 643.414063 Z M 1304.453125 653.507813 "/>
<path style="fill-rule:nonzero;fill:rgb(92.54902%,73.72549%,77.647059%);fill-opacity:1;stroke-width:1.5;stroke-linecap:round;stroke-linejoin:round;stroke:rgb(0%,0%,0%);stroke-opacity:1;stroke-miterlimit:10;" d="M 1299.273438 674.125 L 1304.511719 674.125 L 1304.511719 666.683594 L 1299.273438 666.683594 Z M 1299.273438 674.125 "/>
<path style="fill-rule:nonzero;fill:rgb(93.72549%,78.039216%,81.176471%);fill-opacity:1;stroke-width:1.5;stroke-linecap:round;stroke-linejoin:round;stroke:rgb(0%,0%,0%);stroke-opacity:1;stroke-miterlimit:10;" d="M 1239.15625 645.25 L 1262.148438 645.25 L 1262.148438 626.527344 L 1239.15625 626.527344 Z M 1239.15625 645.25 "/>
<path style="fill-rule:nonzero;fill:rgb(99.607843%,99.607843%,99.607843%);fill-opacity:1;stroke-width:1.5;stroke-linecap:round;stroke-linejoin:round;stroke:rgb(0%,0%,0%);stroke-opacity:1;stroke-miterlimit:10;" d="M 1278.226563 643.414063 L 1291.875 643.414063 L 1291.875 627.378906 L 1278.226563 627.378906 Z M 1278.226563 643.414063 "/>
<path style="fill-rule:nonzero;fill:rgb(89.019608%,62.352941%,67.843137%);fill-opacity:1;stroke-width:1.5;stroke-linecap:round;stroke-linejoin:round;stroke:rgb(0%,0%,0%);stroke-opacity:1;stroke-miterlimit:10;" d="M 1268.335938 582.296875 L 1293.09375 582.296875 L 1293.09375 551.742188 L 1268.335938 551.742188 Z M 1268.335938 582.296875 "/>
<path style="fill-rule:nonzero;fill:rgb(99.215686%,97.647059%,97.647059%);fill-opacity:1;stroke-width:1.5;stroke-linecap:round;stroke-linejoin:round;stroke:rgb(0%,0%,0%);stroke-opacity:1;stroke-miterlimit:10;" d="M 878.941406 357.464844 L 991.035156 357.464844 L 991.035156 237.441406 L 878.941406 237.441406 Z M 878.941406 357.464844 "/>
<path style="fill-rule:nonzero;fill:rgb(99.607843%,98.823529%,99.215686%);fill-opacity:1;stroke-width:1.5;stroke-linecap:round;stroke-linejoin:round;stroke:rgb(0%,0%,0%);stroke-opacity:1;stroke-miterlimit:10;" d="M 1184.414063 551.742188 L 1218.734375 551.742188 L 1218.734375 514.601563 L 1184.414063 514.601563 Z M 1184.414063 551.742188 "/>
<path style="fill-rule:nonzero;fill:rgb(97.254902%,90.980392%,92.156863%);fill-opacity:1;stroke-width:1.5;stroke-linecap:round;stroke-linejoin:round;stroke:rgb(0%,0%,0%);stroke-opacity:1;stroke-miterlimit:10;" d="M 1120.582031 417.4375 L 1190.441406 417.4375 L 1190.441406 357.464844 L 1120.582031 357.464844 Z M 1120.582031 417.4375 "/>
<path style="fill-rule:nonzero;fill:rgb(97.647059%,92.941176%,93.72549%);fill-opacity:1;stroke-width:1.5;stroke-linecap:round;stroke-linejoin:round;stroke:rgb(0%,0%,0%);stroke-opacity:1;stroke-miterlimit:10;" d="M 1278.226563 669.230469 L 1291.269531 669.230469 L 1291.269531 656.457031 L 1278.226563 656.457031 Z M 1278.226563 669.230469 "/>
<path style="fill-rule:nonzero;fill:rgb(91.372549%,69.411765%,73.72549%);fill-opacity:1;stroke-width:1.5;stroke-linecap:round;stroke-linejoin:round;stroke:rgb(0%,0%,0%);stroke-opacity:1;stroke-miterlimit:10;" d="M 1308.699219 666.6875 L 1316.828125 666.6875 L 1316.828125 653.507813 L 1308.699219 653.507813 Z M 1308.699219 666.6875 "/>
<path style="fill-rule:nonzero;fill:rgb(99.215686%,97.647059%,98.039216%);fill-opacity:1;stroke-width:1.5;stroke-linecap:round;stroke-linejoin:round;stroke:rgb(0%,0%,0%);stroke-opacity:1;stroke-miterlimit:10;" d="M 1278.226563 680.914063 L 1291.269531 680.914063 L 1291.269531 669.230469 L 1278.226563 669.230469 Z M 1278.226563 680.914063 "/>
<path style="fill-rule:nonzero;fill:rgb(92.54902%,74.509804%,78.039216%);fill-opacity:1;stroke-width:1.5;stroke-linecap:round;stroke-linejoin:round;stroke:rgb(0%,0%,0%);stroke-opacity:1;stroke-miterlimit:10;" d="M 1107.601563 464.984375 L 1160.566406 464.984375 L 1160.566406 417.441406 L 1107.601563 417.441406 Z M 1107.601563 464.984375 "/>
<path style="fill-rule:nonzero;fill:rgb(99.607843%,99.607843%,99.607843%);fill-opacity:1;stroke-width:1.5;stroke-linecap:round;stroke-linejoin:round;stroke:rgb(0%,0%,0%);stroke-opacity:1;stroke-miterlimit:10;" d="M 1027.96875 237.441406 L 1141.820313 237.441406 L 1141.820313 69.085938 L 1027.96875 69.085938 Z M 1027.96875 237.441406 "/>
<path style="fill-rule:nonzero;fill:rgb(95.686275%,85.098039%,87.058824%);fill-opacity:1;stroke-width:1.5;stroke-linecap:round;stroke-linejoin:round;stroke:rgb(0%,0%,0%);stroke-opacity:1;stroke-miterlimit:10;" d="M 1299.273438 680.914063 L 1304.511719 680.914063 L 1304.511719 674.128906 L 1299.273438 674.128906 Z M 1299.273438 680.914063 "/>
<path style="fill-rule:nonzero;fill:rgb(87.45098%,56.078431%,62.352941%);fill-opacity:1;stroke-width:1.5;stroke-linecap:round;stroke-linejoin:round;stroke:rgb(0%,0%,0%);stroke-opacity:1;stroke-miterlimit:10;" d="M 1291.269531 666.6875 L 1300.261719 666.6875 L 1300.261719 653.507813 L 1291.269531 653.507813 Z M 1291.269531 666.6875 "/>
<path style="fill-rule:nonzero;fill:rgb(99.607843%,99.215686%,99.215686%);fill-opacity:1;stroke-width:1.5;stroke-linecap:round;stroke-linejoin:round;stroke:rgb(0%,0%,0%);stroke-opacity:1;stroke-miterlimit:10;" d="M 1265.714844 464.984375 L 1316.828125 464.984375 L 1316.828125 417.441406 L 1265.714844 417.441406 Z M 1265.714844 464.984375 "/>
<path style="fill-rule:nonzero;fill:rgb(99.607843%,99.607843%,99.607843%);fill-opacity:1;stroke-width:1.5;stroke-linecap:round;stroke-linejoin:round;stroke:rgb(0%,0%,0%);stroke-opacity:1;stroke-miterlimit:10;" d="M 1107.601563 680.914063 L 1147.835938 680.914063 L 1147.835938 640.902344 L 1107.601563 640.902344 Z M 1107.601563 680.914063 "/>
<path style="fill-rule:nonzero;fill:rgb(99.215686%,98.039216%,98.039216%);fill-opacity:1;stroke-width:1.5;stroke-linecap:round;stroke-linejoin:round;stroke:rgb(0%,0%,0%);stroke-opacity:1;stroke-miterlimit:10;" d="M 1048.757813 417.4375 L 1120.585938 417.4375 L 1120.585938 357.464844 L 1048.757813 357.464844 Z M 1048.757813 417.4375 "/>
<path style="fill-rule:nonzero;fill:rgb(93.333333%,77.254902%,80.392157%);fill-opacity:1;stroke-width:1.5;stroke-linecap:round;stroke-linejoin:round;stroke:rgb(0%,0%,0%);stroke-opacity:1;stroke-miterlimit:10;" d="M 1147.835938 558.488281 L 1184.414063 558.488281 L 1184.414063 514.601563 L 1147.835938 514.601563 Z M 1147.835938 558.488281 "/>
<path style="fill-rule:nonzero;fill:rgb(99.607843%,99.607843%,99.607843%);fill-opacity:1;stroke-width:1.5;stroke-linecap:round;stroke-linejoin:round;stroke:rgb(0%,0%,0%);stroke-opacity:1;stroke-miterlimit:10;" d="M 1190.441406 417.4375 L 1254.277344 417.4375 L 1254.277344 357.464844 L 1190.441406 357.464844 Z M 1190.441406 417.4375 "/>
<path style="fill-rule:nonzero;fill:rgb(98.039216%,92.941176%,94.117647%);fill-opacity:1;stroke-width:1.5;stroke-linecap:round;stroke-linejoin:round;stroke:rgb(0%,0%,0%);stroke-opacity:1;stroke-miterlimit:10;" d="M 1231.472656 237.441406 L 1316.824219 237.441406 L 1316.824219 69.085938 L 1231.472656 69.085938 Z M 1231.472656 237.441406 "/>
<path style="fill-rule:nonzero;fill:rgb(99.215686%,98.039216%,98.431373%);fill-opacity:1;stroke-width:1.5;stroke-linecap:round;stroke-linejoin:round;stroke:rgb(0%,0%,0%);stroke-opacity:1;stroke-miterlimit:10;" d="M 1212.101563 357.464844 L 1316.828125 357.464844 L 1316.828125 237.441406 L 1212.101563 237.441406 Z M 1212.101563 357.464844 "/>
<path style="fill-rule:nonzero;fill:rgb(77.254902%,20.784314%,32.156863%);fill-opacity:1;stroke-width:1.5;stroke-linecap:round;stroke-linejoin:round;stroke:rgb(0%,0%,0%);stroke-opacity:1;stroke-miterlimit:10;" d="M 1048.757813 680.914063 L 1107.605469 680.914063 L 1107.605469 635.984375 L 1048.757813 635.984375 Z M 1048.757813 680.914063 "/>
</g>
</svg>
