<?xml version="1.0" encoding="UTF-8"?>
<svg xmlns="http://www.w3.org/2000/svg" xmlns:xlink="http://www.w3.org/1999/xlink" width="1499pt" height="750pt" viewBox="0 0 1499 750" version="1.1">
<g id="surface1">
<rect x="0" y="0" width="1499" height="750" style="fill:rgb(100%,100%,100%);fill-opacity:1;stroke:none;"/>
<path style="fill-rule:nonzero;fill:rgb(80%,80%,80%);fill-opacity:1;stroke-width:1.5;stroke-linecap:round;stroke-linejoin:round;stroke:rgb(0%,0%,0%);stroke-opacity:1;stroke-miterlimit:10;" d="M 1279.425781 663.332031 L 1291.246094 663.332031 L 1291.246094 654.566406 L 1279.425781 654.566406 Z M 1279.425781 663.332031 "/>
<path style="fill-rule:nonzero;fill:rgb(99.607843%,99.607843%,99.607843%);fill-opacity:1;stroke-width:1.5;stroke-linecap:round;stroke-linejoin:round;stroke:rgb(0%,0%,0%);stroke-opacity:1;stroke-miterlimit:10;" d="M 1119.835938 536.863281 L 1161.429688 536.863281 L 1161.429688 498.664063 L 1119.835938 498.664063 Z M 1119.835938 536.863281 "/>
<path style="fill-rule:nonzero;fill:rgb(99.607843%,99.215686%,99.215686%);fill-opacity:1;stroke-width:1.5;stroke-linecap:round;stroke-linejoin:round;stroke:rgb(0%,0%,0%);stroke-opacity:1;stroke-miterlimit:10;" d="M 1069.445313 592.175781 L 1119.839844 592.175781 L 1119.839844 546.722656 L 1069.445313 546.722656 Z M 1069.445313 592.175781 "/>
<path style="fill-rule:nonzero;fill:rgb(80%,80%,80%);fill-opacity:1;stroke-width:1.5;stroke-linecap:round;stroke-linejoin:round;stroke:rgb(0%,0%,0%);stroke-opacity:1;stroke-miterlimit:10;" d="M 1267.878906 641.828125 L 1280.917969 641.828125 L 1280.917969 627.046875 L 1267.878906 627.046875 Z M 1267.878906 641.828125 "/>
<path style="fill-rule:nonzero;fill:rgb(99.215686%,98.431373%,98.431373%);fill-opacity:1;stroke-width:1.5;stroke-linecap:round;stroke-linejoin:round;stroke:rgb(0%,0%,0%);stroke-opacity:1;stroke-miterlimit:10;" d="M 818.085938 680.414063 L 929.019531 680.414063 L 929.019531 570.941406 L 818.085938 570.941406 Z M 818.085938 680.414063 "/>
<path style="fill-rule:nonzero;fill:rgb(99.607843%,99.215686%,99.215686%);fill-opacity:1;stroke-width:1.5;stroke-linecap:round;stroke-linejoin:round;stroke:rgb(0%,0%,0%);stroke-opacity:1;stroke-miterlimit:10;" d="M 1273.34375 586.769531 L 1295.214844 586.769531 L 1295.214844 563.578125 L 1273.34375 563.578125 Z M 1273.34375 586.769531 "/>
<path style="fill-rule:nonzero;fill:rgb(99.607843%,99.607843%,99.607843%);fill-opacity:1;stroke-width:1.5;stroke-linecap:round;stroke-linejoin:round;stroke:rgb(0%,0%,0%);stroke-opacity:1;stroke-miterlimit:10;" d="M 1012.652344 580.398438 L 1069.445313 580.398438 L 1069.445313 521.101563 L 1012.652344 521.101563 Z M 1012.652344 580.398438 "/>
<path style="fill-rule:nonzero;fill:rgb(94.509804%,80.784314%,83.529412%);fill-opacity:1;stroke-width:1.5;stroke-linecap:round;stroke-linejoin:round;stroke:rgb(0%,0%,0%);stroke-opacity:1;stroke-miterlimit:10;" d="M 1119.835938 498.664063 L 1163.96875 498.664063 L 1163.96875 453.445313 L 1119.835938 453.445313 Z M 1119.835938 498.664063 "/>
<path style="fill-rule:nonzero;fill:rgb(80%,80%,80%);fill-opacity:1;stroke-width:1.5;stroke-linecap:round;stroke-linejoin:round;stroke:rgb(0%,0%,0%);stroke-opacity:1;stroke-miterlimit:10;" d="M 1172.042969 453.449219 L 1222.109375 453.449219 L 1222.109375 399.5 L 1172.042969 399.5 Z M 1172.042969 453.449219 "/>
<path style="fill-rule:nonzero;fill:rgb(96.862745%,89.803922%,91.372549%);fill-opacity:1;stroke-width:1.5;stroke-linecap:round;stroke-linejoin:round;stroke:rgb(0%,0%,0%);stroke-opacity:1;stroke-miterlimit:10;" d="M 1289.894531 654.566406 L 1299.414063 654.566406 L 1299.414063 641.828125 L 1289.894531 641.828125 Z M 1289.894531 654.566406 "/>
<path style="fill-rule:nonzero;fill:rgb(89.411765%,63.137255%,68.235294%);fill-opacity:1;stroke-width:1.5;stroke-linecap:round;stroke-linejoin:round;stroke:rgb(0%,0%,0%);stroke-opacity:1;stroke-miterlimit:10;" d="M 1227.972656 644.726563 L 1249.445313 644.726563 L 1249.445313 625.601563 L 1227.972656 625.601563 Z M 1227.972656 644.726563 "/>
<path style="fill-rule:nonzero;fill:rgb(99.607843%,98.823529%,99.215686%);fill-opacity:1;stroke-width:1.5;stroke-linecap:round;stroke-linejoin:round;stroke:rgb(0%,0%,0%);stroke-opacity:1;stroke-miterlimit:10;" d="M 1304.640625 669.644531 L 1311.167969 669.644531 L 1311.167969 664.984375 L 1304.640625 664.984375 Z M 1304.640625 669.644531 "/>
<path style="fill-rule:nonzero;fill:rgb(98.039216%,93.72549%,94.509804%);fill-opacity:1;stroke-width:1.5;stroke-linecap:round;stroke-linejoin:round;stroke:rgb(0%,0%,0%);stroke-opacity:1;stroke-miterlimit:10;" d="M 1069.445313 680.414063 L 1119.839844 680.414063 L 1119.839844 637.113281 L 1069.445313 637.113281 Z M 1069.445313 680.414063 "/>
<path style="fill-rule:nonzero;fill:rgb(99.607843%,99.607843%,99.607843%);fill-opacity:1;stroke-width:1.5;stroke-linecap:round;stroke-linejoin:round;stroke:rgb(0%,0%,0%);stroke-opacity:1;stroke-miterlimit:10;" d="M 1295.6875 606.382813 L 1316.828125 606.382813 L 1316.828125 586.769531 L 1295.6875 586.769531 Z M 1295.6875 606.382813 "/>
<path style="fill-rule:nonzero;fill:rgb(98.039216%,94.117647%,94.901961%);fill-opacity:1;stroke-width:1.5;stroke-linecap:round;stroke-linejoin:round;stroke:rgb(0%,0%,0%);stroke-opacity:1;stroke-miterlimit:10;" d="M 1249.441406 656.335938 L 1267.875 656.335938 L 1267.875 642.304688 L 1249.441406 642.304688 Z M 1249.441406 656.335938 "/>
<path style="fill-rule:nonzero;fill:rgb(98.431373%,94.901961%,95.686275%);fill-opacity:1;stroke-width:1.5;stroke-linecap:round;stroke-linejoin:round;stroke:rgb(0%,0%,0%);stroke-opacity:1;stroke-miterlimit:10;" d="M 182.171875 680.414063 L 583.265625 680.414063 L 583.265625 463.980469 L 182.171875 463.980469 Z M 182.171875 680.414063 "/>
<path style="fill-rule:nonzero;fill:rgb(92.54902%,74.901961%,78.431373%);fill-opacity:1;stroke-width:1.5;stroke-linecap:round;stroke-linejoin:round;stroke:rgb(0%,0%,0%);stroke-opacity:1;stroke-miterlimit:10;" d="M 1295.214844 586.769531 L 1316.828125 586.769531 L 1316.828125 563.578125 L 1295.214844 563.578125 Z M 1295.214844 586.769531 "/>
<path style="fill-rule:nonzero;fill:rgb(80.784314%,32.156863%,41.960784%);fill-opacity:1;stroke-width:1.5;stroke-linecap:round;stroke-linejoin:round;stroke:rgb(0%,0%,0%);stroke-opacity:1;stroke-miterlimit:10;" d="M 1313.707031 677.132813 L 1316.824219 677.132813 L 1316.824219 674.328125 L 1313.707031 674.328125 Z M 1313.707031 677.132813 "/>
<path style="fill-rule:nonzero;fill:rgb(98.823529%,96.862745%,97.254902%);fill-opacity:1;stroke-width:1.5;stroke-linecap:round;stroke-linejoin:round;stroke:rgb(0%,0%,0%);stroke-opacity:1;stroke-miterlimit:10;" d="M 1163.972656 498.664063 L 1204.445313 498.664063 L 1204.445313 453.445313 L 1163.972656 453.445313 Z M 1163.972656 498.664063 "/>
<path style="fill-rule:nonzero;fill:rgb(96.470588%,87.843137%,89.411765%);fill-opacity:1;stroke-width:1.5;stroke-linecap:round;stroke-linejoin:round;stroke:rgb(0%,0%,0%);stroke-opacity:1;stroke-miterlimit:10;" d="M 1199.207031 588.808594 L 1227.972656 588.808594 L 1227.972656 563.574219 L 1199.207031 563.574219 Z M 1199.207031 588.808594 "/>
<path style="fill-rule:nonzero;fill:rgb(98.431373%,94.509804%,95.294118%);fill-opacity:1;stroke-width:1.5;stroke-linecap:round;stroke-linejoin:round;stroke:rgb(0%,0%,0%);stroke-opacity:1;stroke-miterlimit:10;" d="M 1304.640625 675.054688 L 1309.070313 675.054688 L 1309.070313 669.644531 L 1304.640625 669.644531 Z M 1304.640625 675.054688 "/>
<path style="fill-rule:nonzero;fill:rgb(85.098039%,47.45098%,54.901961%);fill-opacity:1;stroke-width:1.5;stroke-linecap:round;stroke-linejoin:round;stroke:rgb(0%,0%,0%);stroke-opacity:1;stroke-miterlimit:10;" d="M 1316.292969 680.074219 L 1316.828125 680.074219 L 1316.828125 677.128906 L 1316.292969 677.128906 Z M 1316.292969 680.074219 "/>
<path style="fill-rule:nonzero;fill:rgb(92.156863%,72.156863%,76.078431%);fill-opacity:1;stroke-width:1.5;stroke-linecap:round;stroke-linejoin:round;stroke:rgb(0%,0%,0%);stroke-opacity:1;stroke-miterlimit:10;" d="M 1199.207031 614.019531 L 1227.972656 614.019531 L 1227.972656 588.8125 L 1199.207031 588.8125 Z M 1199.207031 614.019531 "/>
<path style="fill-rule:nonzero;fill:rgb(99.607843%,99.215686%,99.215686%);fill-opacity:1;stroke-width:1.5;stroke-linecap:round;stroke-linejoin:round;stroke:rgb(0%,0%,0%);stroke-opacity:1;stroke-miterlimit:10;" d="M 583.265625 680.414063 L 702.917969 680.414063 L 702.917969 450.296875 L 583.265625 450.296875 Z M 583.265625 680.414063 "/>
<path style="fill-rule:nonzero;fill:rgb(99.215686%,97.254902%,97.647059%);fill-opacity:1;stroke-width:1.5;stroke-linecap:round;stroke-linejoin:round;stroke:rgb(0%,0%,0%);stroke-opacity:1;stroke-miterlimit:10;" d="M 182.171875 463.980469 L 583.265625 463.980469 L 583.265625 69.585938 L 182.171875 69.585938 Z M 182.171875 463.980469 "/>
<path style="fill-rule:nonzero;fill:rgb(98.823529%,95.686275%,96.470588%);fill-opacity:1;stroke-width:1.5;stroke-linecap:round;stroke-linejoin:round;stroke:rgb(0%,0%,0%);stroke-opacity:1;stroke-miterlimit:10;" d="M 818.085938 218.4375 L 971.667969 218.4375 L 971.667969 69.585938 L 818.085938 69.585938 Z M 818.085938 218.4375 "/>
<path style="fill-rule:nonzero;fill:rgb(87.45098%,56.862745%,62.745098%);fill-opacity:1;stroke-width:1.5;stroke-linecap:round;stroke-linejoin:round;stroke:rgb(0%,0%,0%);stroke-opacity:1;stroke-miterlimit:10;" d="M 1313.105469 674.328125 L 1316.828125 674.328125 L 1316.828125 669.644531 L 1313.105469 669.644531 Z M 1313.105469 674.328125 "/>
<path style="fill-rule:nonzero;fill:rgb(93.333333%,77.647059%,80.784314%);fill-opacity:1;stroke-width:1.5;stroke-linecap:round;stroke-linejoin:round;stroke:rgb(0%,0%,0%);stroke-opacity:1;stroke-miterlimit:10;" d="M 1012.652344 631.085938 L 1069.445313 631.085938 L 1069.445313 580.398438 L 1012.652344 580.398438 Z M 1012.652344 631.085938 "/>
<path style="fill-rule:nonzero;fill:rgb(99.607843%,98.823529%,98.823529%);fill-opacity:1;stroke-width:1.5;stroke-linecap:round;stroke-linejoin:round;stroke:rgb(0%,0%,0%);stroke-opacity:1;stroke-miterlimit:10;" d="M 1012.652344 521.101563 L 1069.445313 521.101563 L 1069.445313 460.917969 L 1012.652344 460.917969 Z M 1012.652344 521.101563 "/>
<path style="fill-rule:nonzero;fill:rgb(92.156863%,72.941176%,76.862745%);fill-opacity:1;stroke-width:1.5;stroke-linecap:round;stroke-linejoin:round;stroke:rgb(0%,0%,0%);stroke-opacity:1;stroke-miterlimit:10;" d="M 1227.972656 606.382813 L 1252.191406 606.382813 L 1252.191406 586.769531 L 1227.972656 586.769531 Z M 1227.972656 606.382813 "/>
<path style="fill-rule:nonzero;fill:rgb(98.431373%,94.901961%,95.686275%);fill-opacity:1;stroke-width:1.5;stroke-linecap:round;stroke-linejoin:round;stroke:rgb(0%,0%,0%);stroke-opacity:1;stroke-miterlimit:10;" d="M 1227.972656 680.414063 L 1249.445313 680.414063 L 1249.445313 662.992188 L 1227.972656 662.992188 Z M 1227.972656 680.414063 "/>
<path style="fill-rule:nonzero;fill:rgb(80%,80%,80%);fill-opacity:1;stroke-width:1.5;stroke-linecap:round;stroke-linejoin:round;stroke:rgb(0%,0%,0%);stroke-opacity:1;stroke-miterlimit:10;" d="M 1304.640625 680.414063 L 1309.070313 680.414063 L 1309.070313 675.054688 L 1304.640625 675.054688 Z M 1304.640625 680.414063 "/>
<path style="fill-rule:nonzero;fill:rgb(99.607843%,98.431373%,98.823529%);fill-opacity:1;stroke-width:1.5;stroke-linecap:round;stroke-linejoin:round;stroke:rgb(0%,0%,0%);stroke-opacity:1;stroke-miterlimit:10;" d="M 1222.109375 453.449219 L 1272.171875 453.449219 L 1272.171875 399.5 L 1222.109375 399.5 Z M 1222.109375 453.449219 "/>
<path style="fill-rule:nonzero;fill:rgb(73.333333%,7.058824%,20.392157%);fill-opacity:1;stroke-width:1.5;stroke-linecap:round;stroke-linejoin:round;stroke:rgb(0%,0%,0%);stroke-opacity:1;stroke-miterlimit:10;" d="M 1069.445313 453.449219 L 1120.804688 453.449219 L 1120.804688 399.5 L 1069.445313 399.5 Z M 1069.445313 453.449219 "/>
<path style="fill-rule:nonzero;fill:rgb(98.823529%,96.078431%,96.470588%);fill-opacity:1;stroke-width:1.5;stroke-linecap:round;stroke-linejoin:round;stroke:rgb(0%,0%,0%);stroke-opacity:1;stroke-miterlimit:10;" d="M 1199.207031 563.574219 L 1230.449219 563.574219 L 1230.449219 533.980469 L 1199.207031 533.980469 Z M 1199.207031 563.574219 "/>
<path style="fill-rule:nonzero;fill:rgb(99.607843%,99.215686%,99.215686%);fill-opacity:1;stroke-width:1.5;stroke-linecap:round;stroke-linejoin:round;stroke:rgb(0%,0%,0%);stroke-opacity:1;stroke-miterlimit:10;" d="M 1195.199219 336.59375 L 1257.421875 336.59375 L 1257.421875 218.4375 L 1195.199219 218.4375 Z M 1195.199219 336.59375 "/>
<path style="fill-rule:nonzero;fill:rgb(99.607843%,98.823529%,98.823529%);fill-opacity:1;stroke-width:1.5;stroke-linecap:round;stroke-linejoin:round;stroke:rgb(0%,0%,0%);stroke-opacity:1;stroke-miterlimit:10;" d="M 1280.917969 641.828125 L 1293.625 641.828125 L 1293.625 627.046875 L 1280.917969 627.046875 Z M 1280.917969 641.828125 "/>
<path style="fill-rule:nonzero;fill:rgb(80%,80%,80%);fill-opacity:1;stroke-width:1.5;stroke-linecap:round;stroke-linejoin:round;stroke:rgb(0%,0%,0%);stroke-opacity:1;stroke-miterlimit:10;" d="M 1012.652344 680.414063 L 1069.445313 680.414063 L 1069.445313 631.085938 L 1012.652344 631.085938 Z M 1012.652344 680.414063 "/>
<path style="fill-rule:nonzero;fill:rgb(80%,80%,80%);fill-opacity:1;stroke-width:1.5;stroke-linecap:round;stroke-linejoin:round;stroke:rgb(0%,0%,0%);stroke-opacity:1;stroke-miterlimit:10;" d="M 1306.917969 660.265625 L 1316.828125 660.265625 L 1316.828125 654.566406 L 1306.917969 654.566406 Z M 1306.917969 660.265625 "/>
<path style="fill-rule:nonzero;fill:rgb(94.117647%,79.607843%,82.352941%);fill-opacity:1;stroke-width:1.5;stroke-linecap:round;stroke-linejoin:round;stroke:rgb(0%,0%,0%);stroke-opacity:1;stroke-miterlimit:10;" d="M 1280.339844 533.980469 L 1316.828125 533.980469 L 1316.828125 498.664063 L 1280.339844 498.664063 Z M 1280.339844 533.980469 "/>
<path style="fill-rule:nonzero;fill:rgb(99.607843%,98.431373%,98.823529%);fill-opacity:1;stroke-width:1.5;stroke-linecap:round;stroke-linejoin:round;stroke:rgb(0%,0%,0%);stroke-opacity:1;stroke-miterlimit:10;" d="M 1267.496094 627.046875 L 1284.648438 627.046875 L 1284.648438 606.382813 L 1267.496094 606.382813 Z M 1267.496094 627.046875 "/>
<path style="fill-rule:nonzero;fill:rgb(99.215686%,97.647059%,98.039216%);fill-opacity:1;stroke-width:1.5;stroke-linecap:round;stroke-linejoin:round;stroke:rgb(0%,0%,0%);stroke-opacity:1;stroke-miterlimit:10;" d="M 1161.429688 624.328125 L 1199.203125 624.328125 L 1199.203125 594.625 L 1161.429688 594.625 Z M 1161.429688 624.328125 "/>
<path style="fill-rule:nonzero;fill:rgb(93.333333%,76.470588%,80%);fill-opacity:1;stroke-width:1.5;stroke-linecap:round;stroke-linejoin:round;stroke:rgb(0%,0%,0%);stroke-opacity:1;stroke-miterlimit:10;" d="M 1291.246094 675.535156 L 1298.527344 675.535156 L 1298.527344 670.300781 L 1291.246094 670.300781 Z M 1291.246094 675.535156 "/>
<path style="fill-rule:nonzero;fill:rgb(96.862745%,89.019608%,90.588235%);fill-opacity:1;stroke-width:1.5;stroke-linecap:round;stroke-linejoin:round;stroke:rgb(0%,0%,0%);stroke-opacity:1;stroke-miterlimit:10;" d="M 1161.429688 533.980469 L 1201.421875 533.980469 L 1201.421875 498.664063 L 1161.429688 498.664063 Z M 1161.429688 533.980469 "/>
<path style="fill-rule:nonzero;fill:rgb(96.862745%,89.019608%,90.588235%);fill-opacity:1;stroke-width:1.5;stroke-linecap:round;stroke-linejoin:round;stroke:rgb(0%,0%,0%);stroke-opacity:1;stroke-miterlimit:10;" d="M 929.019531 680.414063 L 1012.648438 680.414063 L 1012.648438 631.3125 L 929.019531 631.3125 Z M 929.019531 680.414063 "/>
<path style="fill-rule:nonzero;fill:rgb(80%,80%,80%);fill-opacity:1;stroke-width:1.5;stroke-linecap:round;stroke-linejoin:round;stroke:rgb(0%,0%,0%);stroke-opacity:1;stroke-miterlimit:10;" d="M 1279.425781 680.414063 L 1291.246094 680.414063 L 1291.246094 671.90625 L 1279.425781 671.90625 Z M 1279.425781 680.414063 "/>
<path style="fill-rule:nonzero;fill:rgb(97.254902%,90.588235%,91.764706%);fill-opacity:1;stroke-width:1.5;stroke-linecap:round;stroke-linejoin:round;stroke:rgb(0%,0%,0%);stroke-opacity:1;stroke-miterlimit:10;" d="M 1243.347656 498.664063 L 1280.773438 498.664063 L 1280.773438 453.445313 L 1243.347656 453.445313 Z M 1243.347656 498.664063 "/>
<path style="fill-rule:nonzero;fill:rgb(90.588235%,67.843137%,72.54902%);fill-opacity:1;stroke-width:1.5;stroke-linecap:round;stroke-linejoin:round;stroke:rgb(0%,0%,0%);stroke-opacity:1;stroke-miterlimit:10;" d="M 1309.070313 674.328125 L 1313.105469 674.328125 L 1313.105469 669.644531 L 1309.070313 669.644531 Z M 1309.070313 674.328125 "/>
<path style="fill-rule:nonzero;fill:rgb(92.54902%,74.509804%,78.039216%);fill-opacity:1;stroke-width:1.5;stroke-linecap:round;stroke-linejoin:round;stroke:rgb(0%,0%,0%);stroke-opacity:1;stroke-miterlimit:10;" d="M 1298.523438 675.382813 L 1304.640625 675.382813 L 1304.640625 670.28125 L 1298.523438 670.28125 Z M 1298.523438 675.382813 "/>
<path style="fill-rule:nonzero;fill:rgb(98.823529%,96.862745%,97.254902%);fill-opacity:1;stroke-width:1.5;stroke-linecap:round;stroke-linejoin:round;stroke:rgb(0%,0%,0%);stroke-opacity:1;stroke-miterlimit:10;" d="M 1301.246094 627.046875 L 1316.828125 627.046875 L 1316.828125 606.382813 L 1301.246094 606.382813 Z M 1301.246094 627.046875 "/>
<path style="fill-rule:nonzero;fill:rgb(85.882353%,50.588235%,57.647059%);fill-opacity:1;stroke-width:1.5;stroke-linecap:round;stroke-linejoin:round;stroke:rgb(0%,0%,0%);stroke-opacity:1;stroke-miterlimit:10;" d="M 1249.441406 669.597656 L 1267.875 669.597656 L 1267.875 656.335938 L 1249.441406 656.335938 Z M 1249.441406 669.597656 "/>
<path style="fill-rule:nonzero;fill:rgb(95.686275%,85.882353%,87.843137%);fill-opacity:1;stroke-width:1.5;stroke-linecap:round;stroke-linejoin:round;stroke:rgb(0%,0%,0%);stroke-opacity:1;stroke-miterlimit:10;" d="M 1119.835938 609.980469 L 1161.429688 609.980469 L 1161.429688 574.484375 L 1119.835938 574.484375 Z M 1119.835938 609.980469 "/>
<path style="fill-rule:nonzero;fill:rgb(96.862745%,89.803922%,91.372549%);fill-opacity:1;stroke-width:1.5;stroke-linecap:round;stroke-linejoin:round;stroke:rgb(0%,0%,0%);stroke-opacity:1;stroke-miterlimit:10;" d="M 583.265625 450.296875 L 818.085938 450.296875 L 818.085938 283.304688 L 583.265625 283.304688 Z M 583.265625 450.296875 "/>
<path style="fill-rule:nonzero;fill:rgb(98.431373%,94.509804%,95.294118%);fill-opacity:1;stroke-width:1.5;stroke-linecap:round;stroke-linejoin:round;stroke:rgb(0%,0%,0%);stroke-opacity:1;stroke-miterlimit:10;" d="M 702.921875 680.414063 L 818.089844 680.414063 L 818.089844 450.296875 L 702.921875 450.296875 Z M 702.921875 680.414063 "/>
<path style="fill-rule:nonzero;fill:rgb(99.607843%,99.215686%,99.607843%);fill-opacity:1;stroke-width:1.5;stroke-linecap:round;stroke-linejoin:round;stroke:rgb(0%,0%,0%);stroke-opacity:1;stroke-miterlimit:10;" d="M 929.019531 631.3125 L 1012.648438 631.3125 L 1012.648438 581.78125 L 929.019531 581.78125 Z M 929.019531 631.3125 "/>
<path style="fill-rule:nonzero;fill:rgb(99.607843%,98.431373%,98.823529%);fill-opacity:1;stroke-width:1.5;stroke-linecap:round;stroke-linejoin:round;stroke:rgb(0%,0%,0%);stroke-opacity:1;stroke-miterlimit:10;" d="M 1012.652344 399.496094 L 1075.808594 399.496094 L 1075.808594 336.59375 L 1012.652344 336.59375 Z M 1012.652344 399.496094 "/>
<path style="fill-rule:nonzero;fill:rgb(80%,80%,80%);fill-opacity:1;stroke-width:1.5;stroke-linecap:round;stroke-linejoin:round;stroke:rgb(0%,0%,0%);stroke-opacity:1;stroke-miterlimit:10;" d="M 1290.199219 563.574219 L 1316.828125 563.574219 L 1316.828125 533.980469 L 1290.199219 533.980469 Z M 1290.199219 563.574219 "/>
<path style="fill-rule:nonzero;fill:rgb(99.607843%,99.607843%,99.607843%);fill-opacity:1;stroke-width:1.5;stroke-linecap:round;stroke-linejoin:round;stroke:rgb(0%,0%,0%);stroke-opacity:1;stroke-miterlimit:10;" d="M 1069.445313 637.113281 L 1119.839844 637.113281 L 1119.839844 592.175781 L 1069.445313 592.175781 Z M 1069.445313 637.113281 "/>
<path style="fill-rule:nonzero;fill:rgb(99.607843%,99.607843%,99.607843%);fill-opacity:1;stroke-width:1.5;stroke-linecap:round;stroke-linejoin:round;stroke:rgb(0%,0%,0%);stroke-opacity:1;stroke-miterlimit:10;" d="M 929.019531 336.59375 L 1030.847656 336.59375 L 1030.847656 218.4375 L 929.019531 218.4375 Z M 929.019531 336.59375 "/>
<path style="fill-rule:nonzero;fill:rgb(92.156863%,72.156863%,76.078431%);fill-opacity:1;stroke-width:1.5;stroke-linecap:round;stroke-linejoin:round;stroke:rgb(0%,0%,0%);stroke-opacity:1;stroke-miterlimit:10;" d="M 1199.207031 660.949219 L 1227.972656 660.949219 L 1227.972656 637.984375 L 1199.207031 637.984375 Z M 1199.207031 660.949219 "/>
<path style="fill-rule:nonzero;fill:rgb(80%,80%,80%);fill-opacity:1;stroke-width:1.5;stroke-linecap:round;stroke-linejoin:round;stroke:rgb(0%,0%,0%);stroke-opacity:1;stroke-miterlimit:10;" d="M 1309.070313 680.414063 L 1313.710938 680.414063 L 1313.710938 677.660156 L 1309.070313 677.660156 Z M 1309.070313 680.414063 "/>
<path style="fill-rule:nonzero;fill:rgb(99.215686%,97.647059%,97.647059%);fill-opacity:1;stroke-width:1.5;stroke-linecap:round;stroke-linejoin:round;stroke:rgb(0%,0%,0%);stroke-opacity:1;stroke-miterlimit:10;" d="M 1230.449219 563.574219 L 1261.53125 563.574219 L 1261.53125 533.980469 L 1230.449219 533.980469 Z M 1230.449219 563.574219 "/>
<path style="fill-rule:nonzero;fill:rgb(95.294118%,84.313725%,86.666667%);fill-opacity:1;stroke-width:1.5;stroke-linecap:round;stroke-linejoin:round;stroke:rgb(0%,0%,0%);stroke-opacity:1;stroke-miterlimit:10;" d="M 1249.441406 627.046875 L 1267.496094 627.046875 L 1267.496094 606.382813 L 1249.441406 606.382813 Z M 1249.441406 627.046875 "/>
<path style="fill-rule:nonzero;fill:rgb(80%,80%,80%);fill-opacity:1;stroke-width:1.5;stroke-linecap:round;stroke-linejoin:round;stroke:rgb(0%,0%,0%);stroke-opacity:1;stroke-miterlimit:10;" d="M 1198.894531 399.496094 L 1257.949219 399.496094 L 1257.949219 336.59375 L 1198.894531 336.59375 Z M 1198.894531 399.496094 "/>
<path style="fill-rule:nonzero;fill:rgb(87.45098%,56.470588%,62.745098%);fill-opacity:1;stroke-width:1.5;stroke-linecap:round;stroke-linejoin:round;stroke:rgb(0%,0%,0%);stroke-opacity:1;stroke-miterlimit:10;" d="M 1300.613281 664.984375 L 1306.917969 664.984375 L 1306.917969 654.566406 L 1300.613281 654.566406 Z M 1300.613281 664.984375 "/>
<path style="fill-rule:nonzero;fill:rgb(83.529412%,42.352941%,50.980392%);fill-opacity:1;stroke-width:1.5;stroke-linecap:round;stroke-linejoin:round;stroke:rgb(0%,0%,0%);stroke-opacity:1;stroke-miterlimit:10;" d="M 1241.28125 533.980469 L 1280.339844 533.980469 L 1280.339844 498.664063 L 1241.28125 498.664063 Z M 1241.28125 533.980469 "/>
<path style="fill-rule:nonzero;fill:rgb(80%,80%,80%);fill-opacity:1;stroke-width:1.5;stroke-linecap:round;stroke-linejoin:round;stroke:rgb(0%,0%,0%);stroke-opacity:1;stroke-miterlimit:10;" d="M 1069.445313 501.191406 L 1119.839844 501.191406 L 1119.839844 453.445313 L 1069.445313 453.445313 Z M 1069.445313 501.191406 "/>
<path style="fill-rule:nonzero;fill:rgb(99.607843%,99.607843%,99.607843%);fill-opacity:1;stroke-width:1.5;stroke-linecap:round;stroke-linejoin:round;stroke:rgb(0%,0%,0%);stroke-opacity:1;stroke-miterlimit:10;" d="M 1274.351563 606.382813 L 1295.6875 606.382813 L 1295.6875 586.769531 L 1274.351563 586.769531 Z M 1274.351563 606.382813 "/>
<path style="fill-rule:nonzero;fill:rgb(72.941176%,4.705882%,18.431373%);fill-opacity:1;stroke-width:1.5;stroke-linecap:round;stroke-linejoin:round;stroke:rgb(0%,0%,0%);stroke-opacity:1;stroke-miterlimit:10;" d="M 1161.429688 652.609375 L 1199.203125 652.609375 L 1199.203125 624.328125 L 1161.429688 624.328125 Z M 1161.429688 652.609375 "/>
<path style="fill-rule:nonzero;fill:rgb(81.176471%,34.117647%,43.529412%);fill-opacity:1;stroke-width:1.5;stroke-linecap:round;stroke-linejoin:round;stroke:rgb(0%,0%,0%);stroke-opacity:1;stroke-miterlimit:10;" d="M 1293.625 641.828125 L 1305.578125 641.828125 L 1305.578125 627.046875 L 1293.625 627.046875 Z M 1293.625 641.828125 "/>
<path style="fill-rule:nonzero;fill:rgb(80%,80%,80%);fill-opacity:1;stroke-width:1.5;stroke-linecap:round;stroke-linejoin:round;stroke:rgb(0%,0%,0%);stroke-opacity:1;stroke-miterlimit:10;" d="M 1089 218.4375 L 1203.015625 218.4375 L 1203.015625 69.585938 L 1089 69.585938 Z M 1089 218.4375 "/>
<path style="fill-rule:nonzero;fill:rgb(80%,80%,80%);fill-opacity:1;stroke-width:1.5;stroke-linecap:round;stroke-linejoin:round;stroke:rgb(0%,0%,0%);stroke-opacity:1;stroke-miterlimit:10;" d="M 1227.972656 625.601563 L 1249.445313 625.601563 L 1249.445313 606.382813 L 1227.972656 606.382813 Z M 1227.972656 625.601563 "/>
<path style="fill-rule:nonzero;fill:rgb(90.588235%,67.45098%,72.156863%);fill-opacity:1;stroke-width:1.5;stroke-linecap:round;stroke-linejoin:round;stroke:rgb(0%,0%,0%);stroke-opacity:1;stroke-miterlimit:10;" d="M 1250.992188 586.769531 L 1273.34375 586.769531 L 1273.34375 563.578125 L 1250.992188 563.578125 Z M 1250.992188 586.769531 "/>
<path style="fill-rule:nonzero;fill:rgb(80%,80%,80%);fill-opacity:1;stroke-width:1.5;stroke-linecap:round;stroke-linejoin:round;stroke:rgb(0%,0%,0%);stroke-opacity:1;stroke-miterlimit:10;" d="M 1298.523438 680.414063 L 1304.640625 680.414063 L 1304.640625 675.382813 L 1298.523438 675.382813 Z M 1298.523438 680.414063 "/>
<path style="fill-rule:nonzero;fill:rgb(96.078431%,86.666667%,88.235294%);fill-opacity:1;stroke-width:1.5;stroke-linecap:round;stroke-linejoin:round;stroke:rgb(0%,0%,0%);stroke-opacity:1;stroke-miterlimit:10;" d="M 1119.835938 574.484375 L 1161.429688 574.484375 L 1161.429688 536.863281 L 1119.835938 536.863281 Z M 1119.835938 574.484375 "/>
<path style="fill-rule:nonzero;fill:rgb(99.607843%,99.607843%,99.607843%);fill-opacity:1;stroke-width:1.5;stroke-linecap:round;stroke-linejoin:round;stroke:rgb(0%,0%,0%);stroke-opacity:1;stroke-miterlimit:10;" d="M 1284.652344 627.046875 L 1301.246094 627.046875 L 1301.246094 606.382813 L 1284.652344 606.382813 Z M 1284.652344 627.046875 "/>
<path style="fill-rule:nonzero;fill:rgb(99.607843%,99.215686%,99.215686%);fill-opacity:1;stroke-width:1.5;stroke-linecap:round;stroke-linejoin:round;stroke:rgb(0%,0%,0%);stroke-opacity:1;stroke-miterlimit:10;" d="M 583.265625 283.304688 L 818.085938 283.304688 L 818.085938 69.585938 L 583.265625 69.585938 Z M 583.265625 283.304688 "/>
<path style="fill-rule:nonzero;fill:rgb(94.901961%,82.745098%,85.098039%);fill-opacity:1;stroke-width:1.5;stroke-linecap:round;stroke-linejoin:round;stroke:rgb(0%,0%,0%);stroke-opacity:1;stroke-miterlimit:10;" d="M 1313.707031 680.414063 L 1316.824219 680.414063 L 1316.824219 680.074219 L 1313.707031 680.074219 Z M 1313.707031 680.414063 "/>
<path style="fill-rule:nonzero;fill:rgb(99.607843%,99.607843%,99.607843%);fill-opacity:1;stroke-width:1.5;stroke-linecap:round;stroke-linejoin:round;stroke:rgb(0%,0%,0%);stroke-opacity:1;stroke-miterlimit:10;" d="M 1249.441406 642.308594 L 1267.875 642.308594 L 1267.875 627.046875 L 1249.441406 627.046875 Z M 1249.441406 642.308594 "/>
<path style="fill-rule:nonzero;fill:rgb(80%,80%,80%);fill-opacity:1;stroke-width:1.5;stroke-linecap:round;stroke-linejoin:round;stroke:rgb(0%,0%,0%);stroke-opacity:1;stroke-miterlimit:10;" d="M 1120.804688 453.449219 L 1172.042969 453.449219 L 1172.042969 399.5 L 1120.804688 399.5 Z M 1120.804688 453.449219 "/>
<path style="fill-rule:nonzero;fill:rgb(99.607843%,99.607843%,99.607843%);fill-opacity:1;stroke-width:1.5;stroke-linecap:round;stroke-linejoin:round;stroke:rgb(0%,0%,0%);stroke-opacity:1;stroke-miterlimit:10;" d="M 1227.972656 586.769531 L 1250.992188 586.769531 L 1250.992188 563.578125 L 1227.972656 563.578125 Z M 1227.972656 586.769531 "/>
<path style="fill-rule:nonzero;fill:rgb(99.607843%,99.215686%,99.215686%);fill-opacity:1;stroke-width:1.5;stroke-linecap:round;stroke-linejoin:round;stroke:rgb(0%,0%,0%);stroke-opacity:1;stroke-miterlimit:10;" d="M 929.019531 581.785156 L 1012.648438 581.785156 L 1012.648438 530.730469 L 929.019531 530.730469 Z M 929.019531 581.785156 "/>
<path style="fill-rule:nonzero;fill:rgb(87.058824%,55.294118%,61.568627%);fill-opacity:1;stroke-width:1.5;stroke-linecap:round;stroke-linejoin:round;stroke:rgb(0%,0%,0%);stroke-opacity:1;stroke-miterlimit:10;" d="M 1127.777344 336.59375 L 1195.199219 336.59375 L 1195.199219 218.4375 L 1127.777344 218.4375 Z M 1127.777344 336.59375 "/>
<path style="fill-rule:nonzero;fill:rgb(80%,80%,80%);fill-opacity:1;stroke-width:1.5;stroke-linecap:round;stroke-linejoin:round;stroke:rgb(0%,0%,0%);stroke-opacity:1;stroke-miterlimit:10;" d="M 1257.945313 399.496094 L 1316.824219 399.496094 L 1316.824219 336.59375 L 1257.945313 336.59375 Z M 1257.945313 399.496094 "/>
<path style="fill-rule:nonzero;fill:rgb(96.862745%,89.803922%,91.372549%);fill-opacity:1;stroke-width:1.5;stroke-linecap:round;stroke-linejoin:round;stroke:rgb(0%,0%,0%);stroke-opacity:1;stroke-miterlimit:10;" d="M 1161.429688 680.414063 L 1199.203125 680.414063 L 1199.203125 652.609375 L 1161.429688 652.609375 Z M 1161.429688 680.414063 "/>
<path style="fill-rule:nonzero;fill:rgb(96.862745%,89.019608%,90.588235%);fill-opacity:1;stroke-width:1.5;stroke-linecap:round;stroke-linejoin:round;stroke:rgb(0%,0%,0%);stroke-opacity:1;stroke-miterlimit:10;" d="M 1279.425781 671.90625 L 1291.246094 671.90625 L 1291.246094 663.332031 L 1279.425781 663.332031 Z M 1279.425781 671.90625 "/>
<path style="fill-rule:nonzero;fill:rgb(98.431373%,95.686275%,96.078431%);fill-opacity:1;stroke-width:1.5;stroke-linecap:round;stroke-linejoin:round;stroke:rgb(0%,0%,0%);stroke-opacity:1;stroke-miterlimit:10;" d="M 1161.429688 594.625 L 1199.203125 594.625 L 1199.203125 564.730469 L 1161.429688 564.730469 Z M 1161.429688 594.625 "/>
<path style="fill-rule:nonzero;fill:rgb(94.117647%,79.607843%,82.352941%);fill-opacity:1;stroke-width:1.5;stroke-linecap:round;stroke-linejoin:round;stroke:rgb(0%,0%,0%);stroke-opacity:1;stroke-miterlimit:10;" d="M 1261.527344 563.574219 L 1290.195313 563.574219 L 1290.195313 533.980469 L 1261.527344 533.980469 Z M 1261.527344 563.574219 "/>
<path style="fill-rule:nonzero;fill:rgb(85.490196%,49.019608%,56.078431%);fill-opacity:1;stroke-width:1.5;stroke-linecap:round;stroke-linejoin:round;stroke:rgb(0%,0%,0%);stroke-opacity:1;stroke-miterlimit:10;" d="M 1257.421875 336.59375 L 1316.828125 336.59375 L 1316.828125 218.4375 L 1257.421875 218.4375 Z M 1257.421875 336.59375 "/>
<path style="fill-rule:nonzero;fill:rgb(98.823529%,96.078431%,96.470588%);fill-opacity:1;stroke-width:1.5;stroke-linecap:round;stroke-linejoin:round;stroke:rgb(0%,0%,0%);stroke-opacity:1;stroke-miterlimit:10;" d="M 1204.445313 498.664063 L 1243.351563 498.664063 L 1243.351563 453.445313 L 1204.445313 453.445313 Z M 1204.445313 498.664063 "/>
<path style="fill-rule:nonzero;fill:rgb(80%,80%,80%);fill-opacity:1;stroke-width:1.5;stroke-linecap:round;stroke-linejoin:round;stroke:rgb(0%,0%,0%);stroke-opacity:1;stroke-miterlimit:10;" d="M 1313.707031 680.074219 L 1316.289063 680.074219 L 1316.289063 677.128906 L 1313.707031 677.128906 Z M 1313.707031 680.074219 "/>
<path style="fill-rule:nonzero;fill:rgb(99.215686%,97.647059%,98.039216%);fill-opacity:1;stroke-width:1.5;stroke-linecap:round;stroke-linejoin:round;stroke:rgb(0%,0%,0%);stroke-opacity:1;stroke-miterlimit:10;" d="M 929.019531 409.957031 L 1012.648438 409.957031 L 1012.648438 336.59375 L 929.019531 336.59375 Z M 929.019531 409.957031 "/>
<path style="fill-rule:nonzero;fill:rgb(99.215686%,97.647059%,98.039216%);fill-opacity:1;stroke-width:1.5;stroke-linecap:round;stroke-linejoin:round;stroke:rgb(0%,0%,0%);stroke-opacity:1;stroke-miterlimit:10;" d="M 1311.167969 669.644531 L 1316.828125 669.644531 L 1316.828125 664.984375 L 1311.167969 664.984375 Z M 1311.167969 669.644531 "/>
<path style="fill-rule:nonzero;fill:rgb(98.823529%,96.470588%,96.862745%);fill-opacity:1;stroke-width:1.5;stroke-linecap:round;stroke-linejoin:round;stroke:rgb(0%,0%,0%);stroke-opacity:1;stroke-miterlimit:10;" d="M 1252.191406 606.382813 L 1274.351563 606.382813 L 1274.351563 586.769531 L 1252.191406 586.769531 Z M 1252.191406 606.382813 "/>
<path style="fill-rule:nonzero;fill:rgb(99.215686%,98.431373%,98.431373%);fill-opacity:1;stroke-width:1.5;stroke-linecap:round;stroke-linejoin:round;stroke:rgb(0%,0%,0%);stroke-opacity:1;stroke-miterlimit:10;" d="M 818.085938 342.410156 L 929.019531 342.410156 L 929.019531 218.4375 L 818.085938 218.4375 Z M 818.085938 342.410156 "/>
<path style="fill-rule:nonzero;fill:rgb(97.647059%,92.156863%,93.333333%);fill-opacity:1;stroke-width:1.5;stroke-linecap:round;stroke-linejoin:round;stroke:rgb(0%,0%,0%);stroke-opacity:1;stroke-miterlimit:10;" d="M 929.019531 470.734375 L 1012.648438 470.734375 L 1012.648438 409.957031 L 929.019531 409.957031 Z M 929.019531 470.734375 "/>
<path style="fill-rule:nonzero;fill:rgb(85.098039%,48.235294%,55.686275%);fill-opacity:1;stroke-width:1.5;stroke-linecap:round;stroke-linejoin:round;stroke:rgb(0%,0%,0%);stroke-opacity:1;stroke-miterlimit:10;" d="M 1267.878906 655.246094 L 1279.425781 655.246094 L 1279.425781 641.828125 L 1267.878906 641.828125 Z M 1267.878906 655.246094 "/>
<path style="fill-rule:nonzero;fill:rgb(97.647059%,92.54902%,93.72549%);fill-opacity:1;stroke-width:1.5;stroke-linecap:round;stroke-linejoin:round;stroke:rgb(0%,0%,0%);stroke-opacity:1;stroke-miterlimit:10;" d="M 1299.417969 654.566406 L 1308.351563 654.566406 L 1308.351563 641.828125 L 1299.417969 641.828125 Z M 1299.417969 654.566406 "/>
<path style="fill-rule:nonzero;fill:rgb(80%,80%,80%);fill-opacity:1;stroke-width:1.5;stroke-linecap:round;stroke-linejoin:round;stroke:rgb(0%,0%,0%);stroke-opacity:1;stroke-miterlimit:10;" d="M 1305.578125 641.828125 L 1316.828125 641.828125 L 1316.828125 627.046875 L 1305.578125 627.046875 Z M 1305.578125 641.828125 "/>
<path style="fill-rule:nonzero;fill:rgb(80%,80%,80%);fill-opacity:1;stroke-width:1.5;stroke-linecap:round;stroke-linejoin:round;stroke:rgb(0%,0%,0%);stroke-opacity:1;stroke-miterlimit:10;" d="M 1291.246094 670.300781 L 1298.527344 670.300781 L 1298.527344 664.984375 L 1291.246094 664.984375 Z M 1291.246094 670.300781 "/>
<path style="fill-rule:nonzero;fill:rgb(92.54902%,73.72549%,77.647059%);fill-opacity:1;stroke-width:1.5;stroke-linecap:round;stroke-linejoin:round;stroke:rgb(0%,0%,0%);stroke-opacity:1;stroke-miterlimit:10;" d="M 1291.246094 680.414063 L 1298.527344 680.414063 L 1298.527344 675.535156 L 1291.246094 675.535156 Z M 1291.246094 680.414063 "/>
<path style="fill-rule:nonzero;fill:rgb(93.72549%,78.039216%,81.176471%);fill-opacity:1;stroke-width:1.5;stroke-linecap:round;stroke-linejoin:round;stroke:rgb(0%,0%,0%);stroke-opacity:1;stroke-miterlimit:10;" d="M 1227.972656 662.992188 L 1249.445313 662.992188 L 1249.445313 644.726563 L 1227.972656 644.726563 Z M 1227.972656 662.992188 "/>
<path style="fill-rule:nonzero;fill:rgb(80%,80%,80%);fill-opacity:1;stroke-width:1.5;stroke-linecap:round;stroke-linejoin:round;stroke:rgb(0%,0%,0%);stroke-opacity:1;stroke-miterlimit:10;" d="M 1280.773438 498.664063 L 1316.824219 498.664063 L 1316.824219 453.445313 L 1280.773438 453.445313 Z M 1280.773438 498.664063 "/>
<path style="fill-rule:nonzero;fill:rgb(99.607843%,99.607843%,99.607843%);fill-opacity:1;stroke-width:1.5;stroke-linecap:round;stroke-linejoin:round;stroke:rgb(0%,0%,0%);stroke-opacity:1;stroke-miterlimit:10;" d="M 1249.441406 680.414063 L 1267.875 680.414063 L 1267.875 669.597656 L 1249.441406 669.597656 Z M 1249.441406 680.414063 "/>
<path style="fill-rule:nonzero;fill:rgb(89.019608%,62.352941%,67.843137%);fill-opacity:1;stroke-width:1.5;stroke-linecap:round;stroke-linejoin:round;stroke:rgb(0%,0%,0%);stroke-opacity:1;stroke-miterlimit:10;" d="M 1199.207031 637.980469 L 1227.972656 637.980469 L 1227.972656 614.015625 L 1199.207031 614.015625 Z M 1199.207031 637.980469 "/>
<path style="fill-rule:nonzero;fill:rgb(80%,80%,80%);fill-opacity:1;stroke-width:1.5;stroke-linecap:round;stroke-linejoin:round;stroke:rgb(0%,0%,0%);stroke-opacity:1;stroke-miterlimit:10;" d="M 1279.425781 654.566406 L 1289.894531 654.566406 L 1289.894531 641.828125 L 1279.425781 641.828125 Z M 1279.425781 654.566406 "/>
<path style="fill-rule:nonzero;fill:rgb(99.215686%,97.647059%,97.647059%);fill-opacity:1;stroke-width:1.5;stroke-linecap:round;stroke-linejoin:round;stroke:rgb(0%,0%,0%);stroke-opacity:1;stroke-miterlimit:10;" d="M 818.085938 570.941406 L 929.019531 570.941406 L 929.019531 460.4375 L 818.085938 460.4375 Z M 818.085938 570.941406 "/>
<path style="fill-rule:nonzero;fill:rgb(99.607843%,98.823529%,99.215686%);fill-opacity:1;stroke-width:1.5;stroke-linecap:round;stroke-linejoin:round;stroke:rgb(0%,0%,0%);stroke-opacity:1;stroke-miterlimit:10;" d="M 1161.429688 564.730469 L 1199.203125 564.730469 L 1199.203125 533.980469 L 1161.429688 533.980469 Z M 1161.429688 564.730469 "/>
<path style="fill-rule:nonzero;fill:rgb(97.254902%,90.980392%,92.156863%);fill-opacity:1;stroke-width:1.5;stroke-linecap:round;stroke-linejoin:round;stroke:rgb(0%,0%,0%);stroke-opacity:1;stroke-miterlimit:10;" d="M 1138.203125 399.496094 L 1198.894531 399.496094 L 1198.894531 336.59375 L 1138.203125 336.59375 Z M 1138.203125 399.496094 "/>
<path style="fill-rule:nonzero;fill:rgb(97.647059%,92.941176%,93.72549%);fill-opacity:1;stroke-width:1.5;stroke-linecap:round;stroke-linejoin:round;stroke:rgb(0%,0%,0%);stroke-opacity:1;stroke-miterlimit:10;" d="M 1267.878906 668.390625 L 1279.425781 668.390625 L 1279.425781 655.246094 L 1267.878906 655.246094 Z M 1267.878906 668.390625 "/>
<path style="fill-rule:nonzero;fill:rgb(91.372549%,69.411765%,73.72549%);fill-opacity:1;stroke-width:1.5;stroke-linecap:round;stroke-linejoin:round;stroke:rgb(0%,0%,0%);stroke-opacity:1;stroke-miterlimit:10;" d="M 1291.246094 664.984375 L 1300.613281 664.984375 L 1300.613281 654.566406 L 1291.246094 654.566406 Z M 1291.246094 664.984375 "/>
<path style="fill-rule:nonzero;fill:rgb(99.215686%,97.647059%,98.039216%);fill-opacity:1;stroke-width:1.5;stroke-linecap:round;stroke-linejoin:round;stroke:rgb(0%,0%,0%);stroke-opacity:1;stroke-miterlimit:10;" d="M 1267.878906 680.414063 L 1279.425781 680.414063 L 1279.425781 668.394531 L 1267.878906 668.394531 Z M 1267.878906 680.414063 "/>
<path style="fill-rule:nonzero;fill:rgb(92.54902%,74.509804%,78.039216%);fill-opacity:1;stroke-width:1.5;stroke-linecap:round;stroke-linejoin:round;stroke:rgb(0%,0%,0%);stroke-opacity:1;stroke-miterlimit:10;" d="M 1069.445313 546.722656 L 1119.839844 546.722656 L 1119.839844 501.191406 L 1069.445313 501.191406 Z M 1069.445313 546.722656 "/>
<path style="fill-rule:nonzero;fill:rgb(99.607843%,99.607843%,99.607843%);fill-opacity:1;stroke-width:1.5;stroke-linecap:round;stroke-linejoin:round;stroke:rgb(0%,0%,0%);stroke-opacity:1;stroke-miterlimit:10;" d="M 971.667969 218.4375 L 1089 218.4375 L 1089 69.585938 L 971.667969 69.585938 Z M 971.667969 218.4375 "/>
<path style="fill-rule:nonzero;fill:rgb(95.686275%,85.098039%,87.058824%);fill-opacity:1;stroke-width:1.5;stroke-linecap:round;stroke-linejoin:round;stroke:rgb(0%,0%,0%);stroke-opacity:1;stroke-miterlimit:10;" d="M 1298.523438 670.28125 L 1304.640625 670.28125 L 1304.640625 664.984375 L 1298.523438 664.984375 Z M 1298.523438 670.28125 "/>
<path style="fill-rule:nonzero;fill:rgb(87.45098%,56.078431%,62.352941%);fill-opacity:1;stroke-width:1.5;stroke-linecap:round;stroke-linejoin:round;stroke:rgb(0%,0%,0%);stroke-opacity:1;stroke-miterlimit:10;" d="M 1308.347656 654.566406 L 1316.824219 654.566406 L 1316.824219 641.828125 L 1308.347656 641.828125 Z M 1308.347656 654.566406 "/>
<path style="fill-rule:nonzero;fill:rgb(80%,80%,80%);fill-opacity:1;stroke-width:1.5;stroke-linecap:round;stroke-linejoin:round;stroke:rgb(0%,0%,0%);stroke-opacity:1;stroke-miterlimit:10;" d="M 1309.070313 677.660156 L 1313.710938 677.660156 L 1313.710938 674.328125 L 1309.070313 674.328125 Z M 1309.070313 677.660156 "/>
<path style="fill-rule:nonzero;fill:rgb(99.607843%,99.607843%,99.607843%);fill-opacity:1;stroke-width:1.5;stroke-linecap:round;stroke-linejoin:round;stroke:rgb(0%,0%,0%);stroke-opacity:1;stroke-miterlimit:10;" d="M 1119.835938 645.246094 L 1161.429688 645.246094 L 1161.429688 609.980469 L 1119.835938 609.980469 Z M 1119.835938 645.246094 "/>
<path style="fill-rule:nonzero;fill:rgb(80%,80%,80%);fill-opacity:1;stroke-width:1.5;stroke-linecap:round;stroke-linejoin:round;stroke:rgb(0%,0%,0%);stroke-opacity:1;stroke-miterlimit:10;" d="M 1203.019531 218.4375 L 1316.828125 218.4375 L 1316.828125 69.585938 L 1203.019531 69.585938 Z M 1203.019531 218.4375 "/>
<path style="fill-rule:nonzero;fill:rgb(99.215686%,98.039216%,98.039216%);fill-opacity:1;stroke-width:1.5;stroke-linecap:round;stroke-linejoin:round;stroke:rgb(0%,0%,0%);stroke-opacity:1;stroke-miterlimit:10;" d="M 1075.804688 399.496094 L 1138.203125 399.496094 L 1138.203125 336.59375 L 1075.804688 336.59375 Z M 1075.804688 399.496094 "/>
<path style="fill-rule:nonzero;fill:rgb(93.333333%,77.254902%,80.392157%);fill-opacity:1;stroke-width:1.5;stroke-linecap:round;stroke-linejoin:round;stroke:rgb(0%,0%,0%);stroke-opacity:1;stroke-miterlimit:10;" d="M 1119.835938 680.414063 L 1161.429688 680.414063 L 1161.429688 645.246094 L 1119.835938 645.246094 Z M 1119.835938 680.414063 "/>
<path style="fill-rule:nonzero;fill:rgb(80%,80%,80%);fill-opacity:1;stroke-width:1.5;stroke-linecap:round;stroke-linejoin:round;stroke:rgb(0%,0%,0%);stroke-opacity:1;stroke-miterlimit:10;" d="M 929.019531 530.726563 L 1012.648438 530.726563 L 1012.648438 470.734375 L 929.019531 470.734375 Z M 929.019531 530.726563 "/>
<path style="fill-rule:nonzero;fill:rgb(99.607843%,99.607843%,99.607843%);fill-opacity:1;stroke-width:1.5;stroke-linecap:round;stroke-linejoin:round;stroke:rgb(0%,0%,0%);stroke-opacity:1;stroke-miterlimit:10;" d="M 1012.652344 460.917969 L 1069.445313 460.917969 L 1069.445313 399.496094 L 1012.652344 399.496094 Z M 1012.652344 460.917969 "/>
<path style="fill-rule:nonzero;fill:rgb(80%,80%,80%);fill-opacity:1;stroke-width:1.5;stroke-linecap:round;stroke-linejoin:round;stroke:rgb(0%,0%,0%);stroke-opacity:1;stroke-miterlimit:10;" d="M 1201.421875 533.980469 L 1241.28125 533.980469 L 1241.28125 498.664063 L 1201.421875 498.664063 Z M 1201.421875 533.980469 "/>
<path style="fill-rule:nonzero;fill:rgb(80%,80%,80%);fill-opacity:1;stroke-width:1.5;stroke-linecap:round;stroke-linejoin:round;stroke:rgb(0%,0%,0%);stroke-opacity:1;stroke-miterlimit:10;" d="M 1306.917969 664.984375 L 1316.828125 664.984375 L 1316.828125 660.265625 L 1306.917969 660.265625 Z M 1306.917969 664.984375 "/>
<path style="fill-rule:nonzero;fill:rgb(98.039216%,92.941176%,94.117647%);fill-opacity:1;stroke-width:1.5;stroke-linecap:round;stroke-linejoin:round;stroke:rgb(0%,0%,0%);stroke-opacity:1;stroke-miterlimit:10;" d="M 818.085938 460.4375 L 929.019531 460.4375 L 929.019531 342.410156 L 818.085938 342.410156 Z M 818.085938 460.4375 "/>
<path style="fill-rule:nonzero;fill:rgb(99.215686%,98.039216%,98.431373%);fill-opacity:1;stroke-width:1.5;stroke-linecap:round;stroke-linejoin:round;stroke:rgb(0%,0%,0%);stroke-opacity:1;stroke-miterlimit:10;" d="M 1030.847656 336.59375 L 1127.777344 336.59375 L 1127.777344 218.4375 L 1030.847656 218.4375 Z M 1030.847656 336.59375 "/>
<path style="fill-rule:nonzero;fill:rgb(77.254902%,20.784314%,32.156863%);fill-opacity:1;stroke-width:1.5;stroke-linecap:round;stroke-linejoin:round;stroke:rgb(0%,0%,0%);stroke-opacity:1;stroke-miterlimit:10;" d="M 1272.171875 453.449219 L 1316.824219 453.449219 L 1316.824219 399.5 L 1272.171875 399.5 Z M 1272.171875 453.449219 "/>
<path style="fill-rule:nonzero;fill:rgb(80%,80%,80%);fill-opacity:1;stroke-width:1.5;stroke-linecap:round;stroke-linejoin:round;stroke:rgb(0%,0%,0%);stroke-opacity:1;stroke-miterlimit:10;" d="M 1199.207031 680.414063 L 1227.972656 680.414063 L 1227.972656 660.949219 L 1199.207031 660.949219 Z M 1199.207031 680.414063 "/>
</g>
</svg>
