<?xml version="1.0" encoding="UTF-8"?>
<svg xmlns="http://www.w3.org/2000/svg" xmlns:xlink="http://www.w3.org/1999/xlink" width="1499pt" height="750pt" viewBox="0 0 1499 750" version="1.1">
<g id="surface26">
<rect x="0" y="0" width="1499" height="750" style="fill:rgb(100%,100%,100%);fill-opacity:1;stroke:none;"/>
<path style="fill-rule:nonzero;fill:rgb(99.607843%,99.607843%,99.607843%);fill-opacity:1;stroke-width:1.5;stroke-linecap:round;stroke-linejoin:round;stroke:rgb(0%,0%,0%);stroke-opacity:1;stroke-miterlimit:10;" d="M 1348.765625 734.414063 L 1376.90625 734.414063 L 1376.90625 715.53125 L 1348.765625 715.53125 Z M 1348.765625 734.414063 "/>
<path style="fill-rule:nonzero;fill:rgb(90.980392%,68.235294%,72.54902%);fill-opacity:1;stroke-width:1.5;stroke-linecap:round;stroke-linejoin:round;stroke:rgb(0%,0%,0%);stroke-opacity:1;stroke-miterlimit:10;" d="M 1289.414063 408.4375 L 1352.273438 408.4375 L 1352.273438 313.535156 L 1289.414063 313.535156 Z M 1289.414063 408.4375 "/>
<path style="fill-rule:nonzero;fill:rgb(99.215686%,98.431373%,98.431373%);fill-opacity:1;stroke-width:1.5;stroke-linecap:round;stroke-linejoin:round;stroke:rgb(0%,0%,0%);stroke-opacity:1;stroke-miterlimit:10;" d="M 965.640625 734.414063 L 1056.273438 734.414063 L 1056.273438 619.074219 L 965.640625 619.074219 Z M 965.640625 734.414063 "/>
<path style="fill-rule:nonzero;fill:rgb(99.607843%,99.215686%,99.215686%);fill-opacity:1;stroke-width:1.5;stroke-linecap:round;stroke-linejoin:round;stroke:rgb(0%,0%,0%);stroke-opacity:1;stroke-miterlimit:10;" d="M 1189.453125 538.234375 L 1248.863281 538.234375 L 1248.863281 477.691406 L 1189.453125 477.691406 Z M 1189.453125 538.234375 "/>
<path style="fill-rule:nonzero;fill:rgb(99.607843%,99.607843%,99.607843%);fill-opacity:1;stroke-width:1.5;stroke-linecap:round;stroke-linejoin:round;stroke:rgb(0%,0%,0%);stroke-opacity:1;stroke-miterlimit:10;" d="M 1325.699219 702.332031 L 1348.765625 702.332031 L 1348.765625 669.746094 L 1325.699219 669.746094 Z M 1325.699219 702.332031 "/>
<path style="fill-rule:nonzero;fill:rgb(80%,80%,80%);fill-opacity:1;stroke-width:1.5;stroke-linecap:round;stroke-linejoin:round;stroke:rgb(0%,0%,0%);stroke-opacity:1;stroke-miterlimit:10;" d="M 1128.84375 611.984375 L 1189.453125 611.984375 L 1189.453125 547.238281 L 1128.84375 547.238281 Z M 1128.84375 611.984375 "/>
<path style="fill-rule:nonzero;fill:rgb(96.862745%,89.803922%,91.372549%);fill-opacity:1;stroke-width:1.5;stroke-linecap:round;stroke-linejoin:round;stroke:rgb(0%,0%,0%);stroke-opacity:1;stroke-miterlimit:10;" d="M 1407.933594 727.941406 L 1413.824219 727.941406 L 1413.824219 718.117188 L 1407.933594 718.117188 Z M 1407.933594 727.941406 "/>
<path style="fill-rule:nonzero;fill:rgb(99.607843%,98.823529%,99.215686%);fill-opacity:1;stroke-width:1.5;stroke-linecap:round;stroke-linejoin:round;stroke:rgb(0%,0%,0%);stroke-opacity:1;stroke-miterlimit:10;" d="M 1406.332031 731.84375 L 1409.890625 731.84375 L 1409.890625 727.941406 L 1406.332031 727.941406 Z M 1406.332031 731.84375 "/>
<path style="fill-rule:nonzero;fill:rgb(98.039216%,93.72549%,94.509804%);fill-opacity:1;stroke-width:1.5;stroke-linecap:round;stroke-linejoin:round;stroke:rgb(0%,0%,0%);stroke-opacity:1;stroke-miterlimit:10;" d="M 1325.699219 669.746094 L 1359.121094 669.746094 L 1359.121094 640.496094 L 1325.699219 640.496094 Z M 1325.699219 669.746094 "/>
<path style="fill-rule:nonzero;fill:rgb(99.607843%,99.607843%,99.607843%);fill-opacity:1;stroke-width:1.5;stroke-linecap:round;stroke-linejoin:round;stroke:rgb(0%,0%,0%);stroke-opacity:1;stroke-miterlimit:10;" d="M 1402.871094 718.117188 L 1413.828125 718.117188 L 1413.828125 705.25 L 1402.871094 705.25 Z M 1402.871094 718.117188 "/>
<path style="fill-rule:nonzero;fill:rgb(98.431373%,94.901961%,95.686275%);fill-opacity:1;stroke-width:1.5;stroke-linecap:round;stroke-linejoin:round;stroke:rgb(0%,0%,0%);stroke-opacity:1;stroke-miterlimit:10;" d="M 85.171875 427.359375 L 449.132813 427.359375 L 449.132813 15.585938 L 85.171875 15.585938 Z M 85.171875 427.359375 "/>
<path style="fill-rule:nonzero;fill:rgb(96.470588%,87.843137%,89.411765%);fill-opacity:1;stroke-width:1.5;stroke-linecap:round;stroke-linejoin:round;stroke:rgb(0%,0%,0%);stroke-opacity:1;stroke-miterlimit:10;" d="M 1396.867188 705.25 L 1413.824219 705.25 L 1413.824219 689.921875 L 1396.867188 689.921875 Z M 1396.867188 705.25 "/>
<path style="fill-rule:nonzero;fill:rgb(98.431373%,94.509804%,95.294118%);fill-opacity:1;stroke-width:1.5;stroke-linecap:round;stroke-linejoin:round;stroke:rgb(0%,0%,0%);stroke-opacity:1;stroke-miterlimit:10;" d="M 1390.589844 726.523438 L 1400.964844 726.523438 L 1400.964844 718.117188 L 1390.589844 718.117188 Z M 1390.589844 726.523438 "/>
<path style="fill-rule:nonzero;fill:rgb(99.215686%,97.254902%,97.647059%);fill-opacity:1;stroke-width:1.5;stroke-linecap:round;stroke-linejoin:round;stroke:rgb(0%,0%,0%);stroke-opacity:1;stroke-miterlimit:10;" d="M 727.710938 313.53125 L 974.859375 313.53125 L 974.859375 15.585938 L 727.710938 15.585938 Z M 727.710938 313.53125 "/>
<path style="fill-rule:nonzero;fill:rgb(98.823529%,95.686275%,96.470588%);fill-opacity:1;stroke-width:1.5;stroke-linecap:round;stroke-linejoin:round;stroke:rgb(0%,0%,0%);stroke-opacity:1;stroke-miterlimit:10;" d="M 727.710938 734.414063 L 853.832031 734.414063 L 853.832031 507.328125 L 727.710938 507.328125 Z M 727.710938 734.414063 "/>
<path style="fill-rule:nonzero;fill:rgb(93.333333%,77.647059%,80.784314%);fill-opacity:1;stroke-width:1.5;stroke-linecap:round;stroke-linejoin:round;stroke:rgb(0%,0%,0%);stroke-opacity:1;stroke-miterlimit:10;" d="M 1376.90625 705.25 L 1396.867188 705.25 L 1396.867188 689.921875 L 1376.90625 689.921875 Z M 1376.90625 705.25 "/>
<path style="fill-rule:nonzero;fill:rgb(99.607843%,98.823529%,98.823529%);fill-opacity:1;stroke-width:1.5;stroke-linecap:round;stroke-linejoin:round;stroke:rgb(0%,0%,0%);stroke-opacity:1;stroke-miterlimit:10;" d="M 1210.871094 408.4375 L 1289.414063 408.4375 L 1289.414063 313.535156 L 1210.871094 313.535156 Z M 1210.871094 408.4375 "/>
<path style="fill-rule:nonzero;fill:rgb(92.156863%,72.941176%,76.862745%);fill-opacity:1;stroke-width:1.5;stroke-linecap:round;stroke-linejoin:round;stroke:rgb(0%,0%,0%);stroke-opacity:1;stroke-miterlimit:10;" d="M 1245.457031 734.414063 L 1288.390625 734.414063 L 1288.390625 689.421875 L 1245.457031 689.421875 Z M 1245.457031 734.414063 "/>
<path style="fill-rule:nonzero;fill:rgb(99.607843%,98.431373%,98.823529%);fill-opacity:1;stroke-width:1.5;stroke-linecap:round;stroke-linejoin:round;stroke:rgb(0%,0%,0%);stroke-opacity:1;stroke-miterlimit:10;" d="M 1365.09375 538.234375 L 1413.824219 538.234375 L 1413.824219 477.691406 L 1365.09375 477.691406 Z M 1365.09375 538.234375 "/>
<path style="fill-rule:nonzero;fill:rgb(73.333333%,7.058824%,20.392157%);fill-opacity:1;stroke-width:1.5;stroke-linecap:round;stroke-linejoin:round;stroke:rgb(0%,0%,0%);stroke-opacity:1;stroke-miterlimit:10;" d="M 1412.816406 733.429688 L 1413.824219 733.429688 L 1413.824219 732.703125 L 1412.816406 732.703125 Z M 1412.816406 733.429688 "/>
<path style="fill-rule:nonzero;fill:rgb(98.823529%,96.078431%,96.470588%);fill-opacity:1;stroke-width:1.5;stroke-linecap:round;stroke-linejoin:round;stroke:rgb(0%,0%,0%);stroke-opacity:1;stroke-miterlimit:10;" d="M 1248.863281 538.234375 L 1307.820313 538.234375 L 1307.820313 477.691406 L 1248.863281 477.691406 Z M 1248.863281 538.234375 "/>
<path style="fill-rule:nonzero;fill:rgb(99.607843%,99.215686%,99.215686%);fill-opacity:1;stroke-width:1.5;stroke-linecap:round;stroke-linejoin:round;stroke:rgb(0%,0%,0%);stroke-opacity:1;stroke-miterlimit:10;" d="M 1349.933594 477.691406 L 1413.824219 477.691406 L 1413.824219 408.4375 L 1349.933594 408.4375 Z M 1349.933594 477.691406 "/>
<path style="fill-rule:nonzero;fill:rgb(99.607843%,98.823529%,98.823529%);fill-opacity:1;stroke-width:1.5;stroke-linecap:round;stroke-linejoin:round;stroke:rgb(0%,0%,0%);stroke-opacity:1;stroke-miterlimit:10;" d="M 1348.765625 695.148438 L 1376.90625 695.148438 L 1376.90625 669.746094 L 1348.765625 669.746094 Z M 1348.765625 695.148438 "/>
<path style="fill-rule:nonzero;fill:rgb(94.117647%,79.607843%,82.352941%);fill-opacity:1;stroke-width:1.5;stroke-linecap:round;stroke-linejoin:round;stroke:rgb(0%,0%,0%);stroke-opacity:1;stroke-miterlimit:10;" d="M 1325.699219 734.414063 L 1348.765625 734.414063 L 1348.765625 702.332031 L 1325.699219 702.332031 Z M 1325.699219 734.414063 "/>
<path style="fill-rule:nonzero;fill:rgb(99.607843%,98.431373%,98.823529%);fill-opacity:1;stroke-width:1.5;stroke-linecap:round;stroke-linejoin:round;stroke:rgb(0%,0%,0%);stroke-opacity:1;stroke-miterlimit:10;" d="M 1413.789063 734.414063 L 1413.824219 734.414063 L 1413.824219 733.429688 L 1413.789063 733.429688 Z M 1413.789063 734.414063 "/>
<path style="fill-rule:nonzero;fill:rgb(99.215686%,97.647059%,98.039216%);fill-opacity:1;stroke-width:1.5;stroke-linecap:round;stroke-linejoin:round;stroke:rgb(0%,0%,0%);stroke-opacity:1;stroke-miterlimit:10;" d="M 1245.457031 594.789063 L 1289.78125 594.789063 L 1289.78125 538.234375 L 1245.457031 538.234375 Z M 1245.457031 594.789063 "/>
<path style="fill-rule:nonzero;fill:rgb(93.333333%,76.470588%,80%);fill-opacity:1;stroke-width:1.5;stroke-linecap:round;stroke-linejoin:round;stroke:rgb(0%,0%,0%);stroke-opacity:1;stroke-miterlimit:10;" d="M 1409.890625 733.0625 L 1412.816406 733.0625 L 1412.816406 731.347656 L 1409.890625 731.347656 Z M 1409.890625 733.0625 "/>
<path style="fill-rule:nonzero;fill:rgb(96.862745%,89.019608%,90.588235%);fill-opacity:1;stroke-width:1.5;stroke-linecap:round;stroke-linejoin:round;stroke:rgb(0%,0%,0%);stroke-opacity:1;stroke-miterlimit:10;" d="M 1324.597656 640.496094 L 1357.976563 640.496094 L 1357.976563 594.789063 L 1324.597656 594.789063 Z M 1324.597656 640.496094 "/>
<path style="fill-rule:nonzero;fill:rgb(96.862745%,89.019608%,90.588235%);fill-opacity:1;stroke-width:1.5;stroke-linecap:round;stroke-linejoin:round;stroke:rgb(0%,0%,0%);stroke-opacity:1;stroke-miterlimit:10;" d="M 1189.453125 734.414063 L 1245.460938 734.414063 L 1245.460938 688.980469 L 1189.453125 688.980469 Z M 1189.453125 734.414063 "/>
<path style="fill-rule:nonzero;fill:rgb(97.254902%,90.588235%,91.764706%);fill-opacity:1;stroke-width:1.5;stroke-linecap:round;stroke-linejoin:round;stroke:rgb(0%,0%,0%);stroke-opacity:1;stroke-miterlimit:10;" d="M 1128.84375 673.757813 L 1189.453125 673.757813 L 1189.453125 611.984375 L 1128.84375 611.984375 Z M 1128.84375 673.757813 "/>
<path style="fill-rule:nonzero;fill:rgb(95.686275%,85.882353%,87.843137%);fill-opacity:1;stroke-width:1.5;stroke-linecap:round;stroke-linejoin:round;stroke:rgb(0%,0%,0%);stroke-opacity:1;stroke-miterlimit:10;" d="M 1189.453125 640.398438 L 1245.460938 640.398438 L 1245.460938 590.105469 L 1189.453125 590.105469 Z M 1189.453125 640.398438 "/>
<path style="fill-rule:nonzero;fill:rgb(96.862745%,89.803922%,91.372549%);fill-opacity:1;stroke-width:1.5;stroke-linecap:round;stroke-linejoin:round;stroke:rgb(0%,0%,0%);stroke-opacity:1;stroke-miterlimit:10;" d="M 449.132813 734.414063 L 727.710938 734.414063 L 727.710938 395.285156 L 449.132813 395.285156 Z M 449.132813 734.414063 "/>
<path style="fill-rule:nonzero;fill:rgb(98.431373%,94.509804%,95.294118%);fill-opacity:1;stroke-width:1.5;stroke-linecap:round;stroke-linejoin:round;stroke:rgb(0%,0%,0%);stroke-opacity:1;stroke-miterlimit:10;" d="M 974.859375 313.53125 L 1213.472656 313.53125 L 1213.472656 15.585938 L 974.859375 15.585938 Z M 974.859375 313.53125 "/>
<path style="fill-rule:nonzero;fill:rgb(99.607843%,99.215686%,99.607843%);fill-opacity:1;stroke-width:1.5;stroke-linecap:round;stroke-linejoin:round;stroke:rgb(0%,0%,0%);stroke-opacity:1;stroke-miterlimit:10;" d="M 1412.046875 731.351563 L 1413.828125 731.351563 L 1413.828125 727.941406 L 1412.046875 727.941406 Z M 1412.046875 731.351563 "/>
<path style="fill-rule:nonzero;fill:rgb(80%,80%,80%);fill-opacity:1;stroke-width:1.5;stroke-linecap:round;stroke-linejoin:round;stroke:rgb(0%,0%,0%);stroke-opacity:1;stroke-miterlimit:10;" d="M 1189.453125 688.980469 L 1245.460938 688.980469 L 1245.460938 640.398438 L 1189.453125 640.398438 Z M 1189.453125 688.980469 "/>
<path style="fill-rule:nonzero;fill:rgb(99.607843%,99.607843%,99.607843%);fill-opacity:1;stroke-width:1.5;stroke-linecap:round;stroke-linejoin:round;stroke:rgb(0%,0%,0%);stroke-opacity:1;stroke-miterlimit:10;" d="M 1128.84375 734.414063 L 1189.453125 734.414063 L 1189.453125 673.757813 L 1128.84375 673.757813 Z M 1128.84375 734.414063 "/>
<path style="fill-rule:nonzero;fill:rgb(99.607843%,99.607843%,99.607843%);fill-opacity:1;stroke-width:1.5;stroke-linecap:round;stroke-linejoin:round;stroke:rgb(0%,0%,0%);stroke-opacity:1;stroke-miterlimit:10;" d="M 1213.472656 313.53125 L 1413.828125 313.53125 L 1413.828125 15.585938 L 1213.472656 15.585938 Z M 1213.472656 313.53125 "/>
<path style="fill-rule:nonzero;fill:rgb(92.156863%,72.156863%,76.078431%);fill-opacity:1;stroke-width:1.5;stroke-linecap:round;stroke-linejoin:round;stroke:rgb(0%,0%,0%);stroke-opacity:1;stroke-miterlimit:10;" d="M 1400.964844 731.390625 L 1406.335938 731.390625 L 1406.335938 727.941406 L 1400.964844 727.941406 Z M 1400.964844 731.390625 "/>
<path style="fill-rule:nonzero;fill:rgb(80%,80%,80%);fill-opacity:1;stroke-width:1.5;stroke-linecap:round;stroke-linejoin:round;stroke:rgb(0%,0%,0%);stroke-opacity:1;stroke-miterlimit:10;" d="M 1390.589844 718.117188 L 1402.867188 718.117188 L 1402.867188 705.25 L 1390.589844 705.25 Z M 1390.589844 718.117188 "/>
<path style="fill-rule:nonzero;fill:rgb(99.215686%,97.647059%,97.647059%);fill-opacity:1;stroke-width:1.5;stroke-linecap:round;stroke-linejoin:round;stroke:rgb(0%,0%,0%);stroke-opacity:1;stroke-miterlimit:10;" d="M 1387.703125 669.746094 L 1413.824219 669.746094 L 1413.824219 640.496094 L 1387.703125 640.496094 Z M 1387.703125 669.746094 "/>
<path style="fill-rule:nonzero;fill:rgb(95.294118%,84.313725%,86.666667%);fill-opacity:1;stroke-width:1.5;stroke-linecap:round;stroke-linejoin:round;stroke:rgb(0%,0%,0%);stroke-opacity:1;stroke-miterlimit:10;" d="M 1357.976563 640.496094 L 1386 640.496094 L 1386 594.789063 L 1357.976563 594.789063 Z M 1357.976563 640.496094 "/>
<path style="fill-rule:nonzero;fill:rgb(80%,80%,80%);fill-opacity:1;stroke-width:1.5;stroke-linecap:round;stroke-linejoin:round;stroke:rgb(0%,0%,0%);stroke-opacity:1;stroke-miterlimit:10;" d="M 1128.84375 547.238281 L 1189.453125 547.238281 L 1189.453125 477.691406 L 1128.84375 477.691406 Z M 1128.84375 547.238281 "/>
<path style="fill-rule:nonzero;fill:rgb(99.607843%,99.607843%,99.607843%);fill-opacity:1;stroke-width:1.5;stroke-linecap:round;stroke-linejoin:round;stroke:rgb(0%,0%,0%);stroke-opacity:1;stroke-miterlimit:10;" d="M 1288.390625 734.414063 L 1325.699219 734.414063 L 1325.699219 706.402344 L 1288.390625 706.402344 Z M 1288.390625 734.414063 "/>
<path style="fill-rule:nonzero;fill:rgb(72.941176%,4.705882%,18.431373%);fill-opacity:1;stroke-width:1.5;stroke-linecap:round;stroke-linejoin:round;stroke:rgb(0%,0%,0%);stroke-opacity:1;stroke-miterlimit:10;" d="M 1409.890625 734.414063 L 1412.816406 734.414063 L 1412.816406 733.066406 L 1409.890625 733.066406 Z M 1409.890625 734.414063 "/>
<path style="fill-rule:nonzero;fill:rgb(80%,80%,80%);fill-opacity:1;stroke-width:1.5;stroke-linecap:round;stroke-linejoin:round;stroke:rgb(0%,0%,0%);stroke-opacity:1;stroke-miterlimit:10;" d="M 965.640625 468.484375 L 1128.84375 468.484375 L 1128.84375 313.53125 L 965.640625 313.53125 Z M 965.640625 468.484375 "/>
<path style="fill-rule:nonzero;fill:rgb(80%,80%,80%);fill-opacity:1;stroke-width:1.5;stroke-linecap:round;stroke-linejoin:round;stroke:rgb(0%,0%,0%);stroke-opacity:1;stroke-miterlimit:10;" d="M 1406.332031 734.414063 L 1409.890625 734.414063 L 1409.890625 731.847656 L 1406.332031 731.847656 Z M 1406.332031 734.414063 "/>
<path style="fill-rule:nonzero;fill:rgb(90.588235%,67.45098%,72.156863%);fill-opacity:1;stroke-width:1.5;stroke-linecap:round;stroke-linejoin:round;stroke:rgb(0%,0%,0%);stroke-opacity:1;stroke-miterlimit:10;" d="M 1412.816406 734.414063 L 1413.789063 734.414063 L 1413.789063 733.953125 L 1412.816406 733.953125 Z M 1412.816406 734.414063 "/>
<path style="fill-rule:nonzero;fill:rgb(99.607843%,99.607843%,99.607843%);fill-opacity:1;stroke-width:1.5;stroke-linecap:round;stroke-linejoin:round;stroke:rgb(0%,0%,0%);stroke-opacity:1;stroke-miterlimit:10;" d="M 1206.964844 477.691406 L 1278.882813 477.691406 L 1278.882813 408.4375 L 1206.964844 408.4375 Z M 1206.964844 477.691406 "/>
<path style="fill-rule:nonzero;fill:rgb(99.607843%,99.215686%,99.215686%);fill-opacity:1;stroke-width:1.5;stroke-linecap:round;stroke-linejoin:round;stroke:rgb(0%,0%,0%);stroke-opacity:1;stroke-miterlimit:10;" d="M 85.171875 734.414063 L 449.132813 734.414063 L 449.132813 427.359375 L 85.171875 427.359375 Z M 85.171875 734.414063 "/>
<path style="fill-rule:nonzero;fill:rgb(99.607843%,99.607843%,99.607843%);fill-opacity:1;stroke-width:1.5;stroke-linecap:round;stroke-linejoin:round;stroke:rgb(0%,0%,0%);stroke-opacity:1;stroke-miterlimit:10;" d="M 1359.125 669.746094 L 1387.707031 669.746094 L 1387.707031 640.496094 L 1359.125 640.496094 Z M 1359.125 669.746094 "/>
<path style="fill-rule:nonzero;fill:rgb(80%,80%,80%);fill-opacity:1;stroke-width:1.5;stroke-linecap:round;stroke-linejoin:round;stroke:rgb(0%,0%,0%);stroke-opacity:1;stroke-miterlimit:10;" d="M 1278.882813 477.691406 L 1349.933594 477.691406 L 1349.933594 408.4375 L 1278.882813 408.4375 Z M 1278.882813 477.691406 "/>
<path style="fill-rule:nonzero;fill:rgb(99.607843%,99.607843%,99.607843%);fill-opacity:1;stroke-width:1.5;stroke-linecap:round;stroke-linejoin:round;stroke:rgb(0%,0%,0%);stroke-opacity:1;stroke-miterlimit:10;" d="M 1376.90625 689.921875 L 1396.125 689.921875 L 1396.125 669.746094 L 1376.90625 669.746094 Z M 1376.90625 689.921875 "/>
<path style="fill-rule:nonzero;fill:rgb(99.607843%,99.215686%,99.215686%);fill-opacity:1;stroke-width:1.5;stroke-linecap:round;stroke-linejoin:round;stroke:rgb(0%,0%,0%);stroke-opacity:1;stroke-miterlimit:10;" d="M 1352.273438 408.4375 L 1413.828125 408.4375 L 1413.828125 313.535156 L 1352.273438 313.535156 Z M 1352.273438 408.4375 "/>
<path style="fill-rule:nonzero;fill:rgb(87.058824%,55.294118%,61.568627%);fill-opacity:1;stroke-width:1.5;stroke-linecap:round;stroke-linejoin:round;stroke:rgb(0%,0%,0%);stroke-opacity:1;stroke-miterlimit:10;" d="M 1288.390625 673.875 L 1325.699219 673.875 L 1325.699219 640.496094 L 1288.390625 640.496094 Z M 1288.390625 673.875 "/>
<path style="fill-rule:nonzero;fill:rgb(98.431373%,95.686275%,96.078431%);fill-opacity:1;stroke-width:1.5;stroke-linecap:round;stroke-linejoin:round;stroke:rgb(0%,0%,0%);stroke-opacity:1;stroke-miterlimit:10;" d="M 1288.390625 706.402344 L 1325.699219 706.402344 L 1325.699219 673.875 L 1288.390625 673.875 Z M 1288.390625 706.402344 "/>
<path style="fill-rule:nonzero;fill:rgb(85.490196%,49.019608%,56.078431%);fill-opacity:1;stroke-width:1.5;stroke-linecap:round;stroke-linejoin:round;stroke:rgb(0%,0%,0%);stroke-opacity:1;stroke-miterlimit:10;" d="M 1307.820313 538.234375 L 1365.09375 538.234375 L 1365.09375 477.691406 L 1307.820313 477.691406 Z M 1307.820313 538.234375 "/>
<path style="fill-rule:nonzero;fill:rgb(98.823529%,96.078431%,96.470588%);fill-opacity:1;stroke-width:1.5;stroke-linecap:round;stroke-linejoin:round;stroke:rgb(0%,0%,0%);stroke-opacity:1;stroke-miterlimit:10;" d="M 1289.785156 594.789063 L 1333.65625 594.789063 L 1333.65625 538.234375 L 1289.785156 538.234375 Z M 1289.785156 594.789063 "/>
<path style="fill-rule:nonzero;fill:rgb(99.215686%,97.647059%,98.039216%);fill-opacity:1;stroke-width:1.5;stroke-linecap:round;stroke-linejoin:round;stroke:rgb(0%,0%,0%);stroke-opacity:1;stroke-miterlimit:10;" d="M 1189.453125 590.105469 L 1245.460938 590.105469 L 1245.460938 538.234375 L 1189.453125 538.234375 Z M 1189.453125 590.105469 "/>
<path style="fill-rule:nonzero;fill:rgb(99.215686%,97.647059%,98.039216%);fill-opacity:1;stroke-width:1.5;stroke-linecap:round;stroke-linejoin:round;stroke:rgb(0%,0%,0%);stroke-opacity:1;stroke-miterlimit:10;" d="M 1288.390625 640.496094 L 1324.59375 640.496094 L 1324.59375 594.789063 L 1288.390625 594.789063 Z M 1288.390625 640.496094 "/>
<path style="fill-rule:nonzero;fill:rgb(98.823529%,96.470588%,96.862745%);fill-opacity:1;stroke-width:1.5;stroke-linecap:round;stroke-linejoin:round;stroke:rgb(0%,0%,0%);stroke-opacity:1;stroke-miterlimit:10;" d="M 1245.457031 689.421875 L 1288.390625 689.421875 L 1288.390625 643.339844 L 1245.457031 643.339844 Z M 1245.457031 689.421875 "/>
<path style="fill-rule:nonzero;fill:rgb(99.215686%,98.431373%,98.431373%);fill-opacity:1;stroke-width:1.5;stroke-linecap:round;stroke-linejoin:round;stroke:rgb(0%,0%,0%);stroke-opacity:1;stroke-miterlimit:10;" d="M 1128.84375 408.4375 L 1210.871094 408.4375 L 1210.871094 313.535156 L 1128.84375 313.535156 Z M 1128.84375 408.4375 "/>
<path style="fill-rule:nonzero;fill:rgb(97.647059%,92.156863%,93.333333%);fill-opacity:1;stroke-width:1.5;stroke-linecap:round;stroke-linejoin:round;stroke:rgb(0%,0%,0%);stroke-opacity:1;stroke-miterlimit:10;" d="M 1128.84375 477.691406 L 1206.964844 477.691406 L 1206.964844 408.4375 L 1128.84375 408.4375 Z M 1128.84375 477.691406 "/>
<path style="fill-rule:nonzero;fill:rgb(85.098039%,48.235294%,55.686275%);fill-opacity:1;stroke-width:1.5;stroke-linecap:round;stroke-linejoin:round;stroke:rgb(0%,0%,0%);stroke-opacity:1;stroke-miterlimit:10;" d="M 1348.765625 715.53125 L 1376.90625 715.53125 L 1376.90625 695.148438 L 1348.765625 695.148438 Z M 1348.765625 715.53125 "/>
<path style="fill-rule:nonzero;fill:rgb(80%,80%,80%);fill-opacity:1;stroke-width:1.5;stroke-linecap:round;stroke-linejoin:round;stroke:rgb(0%,0%,0%);stroke-opacity:1;stroke-miterlimit:10;" d="M 1412.816406 732.703125 L 1413.824219 732.703125 L 1413.824219 731.351563 L 1412.816406 731.351563 Z M 1412.816406 732.703125 "/>
<path style="fill-rule:nonzero;fill:rgb(93.72549%,78.039216%,81.176471%);fill-opacity:1;stroke-width:1.5;stroke-linecap:round;stroke-linejoin:round;stroke:rgb(0%,0%,0%);stroke-opacity:1;stroke-miterlimit:10;" d="M 1376.90625 734.414063 L 1390.589844 734.414063 L 1390.589844 721.503906 L 1376.90625 721.503906 Z M 1376.90625 734.414063 "/>
<path style="fill-rule:nonzero;fill:rgb(80%,80%,80%);fill-opacity:1;stroke-width:1.5;stroke-linecap:round;stroke-linejoin:round;stroke:rgb(0%,0%,0%);stroke-opacity:1;stroke-miterlimit:10;" d="M 1059.398438 619.074219 L 1128.84375 619.074219 L 1128.84375 468.488281 L 1059.398438 468.488281 Z M 1059.398438 619.074219 "/>
<path style="fill-rule:nonzero;fill:rgb(99.607843%,99.607843%,99.607843%);fill-opacity:1;stroke-width:1.5;stroke-linecap:round;stroke-linejoin:round;stroke:rgb(0%,0%,0%);stroke-opacity:1;stroke-miterlimit:10;" d="M 1412.816406 733.953125 L 1413.789063 733.953125 L 1413.789063 733.429688 L 1412.816406 733.429688 Z M 1412.816406 733.953125 "/>
<path style="fill-rule:nonzero;fill:rgb(80%,80%,80%);fill-opacity:1;stroke-width:1.5;stroke-linecap:round;stroke-linejoin:round;stroke:rgb(0%,0%,0%);stroke-opacity:1;stroke-miterlimit:10;" d="M 1409.890625 731.351563 L 1412.042969 731.351563 L 1412.042969 727.941406 L 1409.890625 727.941406 Z M 1409.890625 731.351563 "/>
<path style="fill-rule:nonzero;fill:rgb(99.215686%,97.647059%,97.647059%);fill-opacity:1;stroke-width:1.5;stroke-linecap:round;stroke-linejoin:round;stroke:rgb(0%,0%,0%);stroke-opacity:1;stroke-miterlimit:10;" d="M 965.640625 619.074219 L 1059.398438 619.074219 L 1059.398438 468.488281 L 965.640625 468.488281 Z M 965.640625 619.074219 "/>
<path style="fill-rule:nonzero;fill:rgb(99.607843%,98.823529%,99.215686%);fill-opacity:1;stroke-width:1.5;stroke-linecap:round;stroke-linejoin:round;stroke:rgb(0%,0%,0%);stroke-opacity:1;stroke-miterlimit:10;" d="M 1245.457031 643.335938 L 1288.390625 643.335938 L 1288.390625 594.785156 L 1245.457031 594.785156 Z M 1245.457031 643.335938 "/>
<path style="fill-rule:nonzero;fill:rgb(92.54902%,74.509804%,78.039216%);fill-opacity:1;stroke-width:1.5;stroke-linecap:round;stroke-linejoin:round;stroke:rgb(0%,0%,0%);stroke-opacity:1;stroke-miterlimit:10;" d="M 1386 640.496094 L 1413.828125 640.496094 L 1413.828125 594.789063 L 1386 594.789063 Z M 1386 640.496094 "/>
<path style="fill-rule:nonzero;fill:rgb(99.607843%,99.607843%,99.607843%);fill-opacity:1;stroke-width:1.5;stroke-linecap:round;stroke-linejoin:round;stroke:rgb(0%,0%,0%);stroke-opacity:1;stroke-miterlimit:10;" d="M 853.835938 734.414063 L 965.640625 734.414063 L 965.640625 507.328125 L 853.835938 507.328125 Z M 853.835938 734.414063 "/>
<path style="fill-rule:nonzero;fill:rgb(87.45098%,56.078431%,62.352941%);fill-opacity:1;stroke-width:1.5;stroke-linecap:round;stroke-linejoin:round;stroke:rgb(0%,0%,0%);stroke-opacity:1;stroke-miterlimit:10;" d="M 1390.589844 734.414063 L 1400.964844 734.414063 L 1400.964844 726.523438 L 1390.589844 726.523438 Z M 1390.589844 734.414063 "/>
<path style="fill-rule:nonzero;fill:rgb(99.607843%,99.607843%,99.607843%);fill-opacity:1;stroke-width:1.5;stroke-linecap:round;stroke-linejoin:round;stroke:rgb(0%,0%,0%);stroke-opacity:1;stroke-miterlimit:10;" d="M 1396.128906 689.921875 L 1413.828125 689.921875 L 1413.828125 669.746094 L 1396.128906 669.746094 Z M 1396.128906 689.921875 "/>
<path style="fill-rule:nonzero;fill:rgb(80%,80%,80%);fill-opacity:1;stroke-width:1.5;stroke-linecap:round;stroke-linejoin:round;stroke:rgb(0%,0%,0%);stroke-opacity:1;stroke-miterlimit:10;" d="M 449.132813 395.285156 L 727.710938 395.285156 L 727.710938 15.589844 L 449.132813 15.589844 Z M 449.132813 395.285156 "/>
<path style="fill-rule:nonzero;fill:rgb(99.215686%,98.039216%,98.039216%);fill-opacity:1;stroke-width:1.5;stroke-linecap:round;stroke-linejoin:round;stroke:rgb(0%,0%,0%);stroke-opacity:1;stroke-miterlimit:10;" d="M 1400.964844 734.414063 L 1406.335938 734.414063 L 1406.335938 731.390625 L 1400.964844 731.390625 Z M 1400.964844 734.414063 "/>
<path style="fill-rule:nonzero;fill:rgb(80%,80%,80%);fill-opacity:1;stroke-width:1.5;stroke-linecap:round;stroke-linejoin:round;stroke:rgb(0%,0%,0%);stroke-opacity:1;stroke-miterlimit:10;" d="M 727.710938 507.328125 L 965.640625 507.328125 L 965.640625 313.535156 L 727.710938 313.535156 Z M 727.710938 507.328125 "/>
<path style="fill-rule:nonzero;fill:rgb(80%,80%,80%);fill-opacity:1;stroke-width:1.5;stroke-linecap:round;stroke-linejoin:round;stroke:rgb(0%,0%,0%);stroke-opacity:1;stroke-miterlimit:10;" d="M 1374.339844 594.789063 L 1413.828125 594.789063 L 1413.828125 538.234375 L 1374.339844 538.234375 Z M 1374.339844 594.789063 "/>
<path style="fill-rule:nonzero;fill:rgb(98.039216%,92.941176%,94.117647%);fill-opacity:1;stroke-width:1.5;stroke-linecap:round;stroke-linejoin:round;stroke:rgb(0%,0%,0%);stroke-opacity:1;stroke-miterlimit:10;" d="M 1376.90625 721.503906 L 1390.589844 721.503906 L 1390.589844 705.25 L 1376.90625 705.25 Z M 1376.90625 721.503906 "/>
<path style="fill-rule:nonzero;fill:rgb(99.215686%,98.039216%,98.431373%);fill-opacity:1;stroke-width:1.5;stroke-linecap:round;stroke-linejoin:round;stroke:rgb(0%,0%,0%);stroke-opacity:1;stroke-miterlimit:10;" d="M 1056.273438 734.414063 L 1128.84375 734.414063 L 1128.84375 619.074219 L 1056.273438 619.074219 Z M 1056.273438 734.414063 "/>
<path style="fill-rule:nonzero;fill:rgb(77.254902%,20.784314%,32.156863%);fill-opacity:1;stroke-width:1.5;stroke-linecap:round;stroke-linejoin:round;stroke:rgb(0%,0%,0%);stroke-opacity:1;stroke-miterlimit:10;" d="M 1400.964844 727.941406 L 1407.933594 727.941406 L 1407.933594 718.117188 L 1400.964844 718.117188 Z M 1400.964844 727.941406 "/>
<path style="fill-rule:nonzero;fill:rgb(80%,80%,80%);fill-opacity:1;stroke-width:1.5;stroke-linecap:round;stroke-linejoin:round;stroke:rgb(0%,0%,0%);stroke-opacity:1;stroke-miterlimit:10;" d="M 1333.652344 594.789063 L 1374.335938 594.789063 L 1374.335938 538.234375 L 1333.652344 538.234375 Z M 1333.652344 594.789063 "/>
</g>
</svg>
