<?xml version="1.0" encoding="UTF-8"?>
<svg xmlns="http://www.w3.org/2000/svg" xmlns:xlink="http://www.w3.org/1999/xlink" width="1499pt" height="750pt" viewBox="0 0 1499 750" version="1.1">
<g id="surface11">
<rect x="0" y="0" width="1499" height="750" style="fill:rgb(100%,100%,100%);fill-opacity:1;stroke:none;"/>
<path style="fill-rule:nonzero;fill:rgb(80%,80%,80%);fill-opacity:1;stroke-width:1.5;stroke-linecap:round;stroke-linejoin:round;stroke:rgb(0%,0%,0%);stroke-opacity:1;stroke-miterlimit:10;" d="M 85.171875 436.390625 L 344.574219 436.390625 L 344.574219 279.40625 L 85.171875 279.40625 Z M 85.171875 436.390625 "/>
<path style="fill-rule:nonzero;fill:rgb(99.607843%,99.607843%,99.607843%);fill-opacity:1;stroke-width:1.5;stroke-linecap:round;stroke-linejoin:round;stroke:rgb(0%,0%,0%);stroke-opacity:1;stroke-miterlimit:10;" d="M 1369.554688 505.734375 L 1413.824219 505.734375 L 1413.824219 455.589844 L 1369.554688 455.589844 Z M 1369.554688 505.734375 "/>
<path style="fill-rule:nonzero;fill:rgb(99.607843%,99.215686%,99.215686%);fill-opacity:1;stroke-width:1.5;stroke-linecap:round;stroke-linejoin:round;stroke:rgb(0%,0%,0%);stroke-opacity:1;stroke-miterlimit:10;" d="M 1183.8125 649.269531 L 1225.964844 649.269531 L 1225.964844 602.753906 L 1183.8125 602.753906 Z M 1183.8125 649.269531 "/>
<path style="fill-rule:nonzero;fill:rgb(90.980392%,68.235294%,72.54902%);fill-opacity:1;stroke-width:1.5;stroke-linecap:round;stroke-linejoin:round;stroke:rgb(0%,0%,0%);stroke-opacity:1;stroke-miterlimit:10;" d="M 1127.722656 598.488281 L 1183.8125 598.488281 L 1183.8125 551.671875 L 1127.722656 551.671875 Z M 1127.722656 598.488281 "/>
<path style="fill-rule:nonzero;fill:rgb(80%,80%,80%);fill-opacity:1;stroke-width:1.5;stroke-linecap:round;stroke-linejoin:round;stroke:rgb(0%,0%,0%);stroke-opacity:1;stroke-miterlimit:10;" d="M 1405.089844 732.078125 L 1413.824219 732.078125 L 1413.824219 725.273438 L 1405.089844 725.273438 Z M 1405.089844 732.078125 "/>
<path style="fill-rule:nonzero;fill:rgb(80%,80%,80%);fill-opacity:1;stroke-width:1.5;stroke-linecap:round;stroke-linejoin:round;stroke:rgb(0%,0%,0%);stroke-opacity:1;stroke-miterlimit:10;" d="M 1405.089844 734.414063 L 1413.824219 734.414063 L 1413.824219 732.082031 L 1405.089844 732.082031 Z M 1405.089844 734.414063 "/>
<path style="fill-rule:nonzero;fill:rgb(99.215686%,98.431373%,98.431373%);fill-opacity:1;stroke-width:1.5;stroke-linecap:round;stroke-linejoin:round;stroke:rgb(0%,0%,0%);stroke-opacity:1;stroke-miterlimit:10;" d="M 1348.253906 667.503906 L 1371.265625 667.503906 L 1371.265625 639.671875 L 1348.253906 639.671875 Z M 1348.253906 667.503906 "/>
<path style="fill-rule:nonzero;fill:rgb(99.607843%,99.215686%,99.215686%);fill-opacity:1;stroke-width:1.5;stroke-linecap:round;stroke-linejoin:round;stroke:rgb(0%,0%,0%);stroke-opacity:1;stroke-miterlimit:10;" d="M 1127.722656 734.414063 L 1183.8125 734.414063 L 1183.8125 690.402344 L 1127.722656 690.402344 Z M 1127.722656 734.414063 "/>
<path style="fill-rule:nonzero;fill:rgb(99.607843%,99.607843%,99.607843%);fill-opacity:1;stroke-width:1.5;stroke-linecap:round;stroke-linejoin:round;stroke:rgb(0%,0%,0%);stroke-opacity:1;stroke-miterlimit:10;" d="M 1324.441406 505.734375 L 1369.554688 505.734375 L 1369.554688 455.589844 L 1324.441406 455.589844 Z M 1324.441406 505.734375 "/>
<path style="fill-rule:nonzero;fill:rgb(94.509804%,80.784314%,83.529412%);fill-opacity:1;stroke-width:1.5;stroke-linecap:round;stroke-linejoin:round;stroke:rgb(0%,0%,0%);stroke-opacity:1;stroke-miterlimit:10;" d="M 344.578125 734.414063 L 502.914063 734.414063 L 502.914063 562.617188 L 344.578125 562.617188 Z M 344.578125 734.414063 "/>
<path style="fill-rule:nonzero;fill:rgb(80%,80%,80%);fill-opacity:1;stroke-width:1.5;stroke-linecap:round;stroke-linejoin:round;stroke:rgb(0%,0%,0%);stroke-opacity:1;stroke-miterlimit:10;" d="M 1324.085938 639.671875 L 1354.175781 639.671875 L 1354.175781 613.859375 L 1324.085938 613.859375 Z M 1324.085938 639.671875 "/>
<path style="fill-rule:nonzero;fill:rgb(96.862745%,89.803922%,91.372549%);fill-opacity:1;stroke-width:1.5;stroke-linecap:round;stroke-linejoin:round;stroke:rgb(0%,0%,0%);stroke-opacity:1;stroke-miterlimit:10;" d="M 1345.003906 686.222656 L 1367.074219 686.222656 L 1367.074219 667.503906 L 1345.003906 667.503906 Z M 1345.003906 686.222656 "/>
<path style="fill-rule:nonzero;fill:rgb(89.411765%,63.137255%,68.235294%);fill-opacity:1;stroke-width:1.5;stroke-linecap:round;stroke-linejoin:round;stroke:rgb(0%,0%,0%);stroke-opacity:1;stroke-miterlimit:10;" d="M 1347.890625 395.929688 L 1413.824219 395.929688 L 1413.824219 316.433594 L 1347.890625 316.433594 Z M 1347.890625 395.929688 "/>
<path style="fill-rule:nonzero;fill:rgb(99.607843%,98.823529%,99.215686%);fill-opacity:1;stroke-width:1.5;stroke-linecap:round;stroke-linejoin:round;stroke:rgb(0%,0%,0%);stroke-opacity:1;stroke-miterlimit:10;" d="M 1292.496094 584.71875 L 1323.828125 584.71875 L 1323.828125 548.800781 L 1292.496094 548.800781 Z M 1292.496094 584.71875 "/>
<path style="fill-rule:nonzero;fill:rgb(98.039216%,93.72549%,94.509804%);fill-opacity:1;stroke-width:1.5;stroke-linecap:round;stroke-linejoin:round;stroke:rgb(0%,0%,0%);stroke-opacity:1;stroke-miterlimit:10;" d="M 1069.148438 395.929688 L 1139.613281 395.929688 L 1139.613281 316.433594 L 1069.148438 316.433594 Z M 1069.148438 395.929688 "/>
<path style="fill-rule:nonzero;fill:rgb(99.607843%,99.607843%,99.607843%);fill-opacity:1;stroke-width:1.5;stroke-linecap:round;stroke-linejoin:round;stroke:rgb(0%,0%,0%);stroke-opacity:1;stroke-miterlimit:10;" d="M 997.554688 609.484375 L 1066.976563 609.484375 L 1066.976563 543.445313 L 997.554688 543.445313 Z M 997.554688 609.484375 "/>
<path style="fill-rule:nonzero;fill:rgb(98.039216%,94.117647%,94.901961%);fill-opacity:1;stroke-width:1.5;stroke-linecap:round;stroke-linejoin:round;stroke:rgb(0%,0%,0%);stroke-opacity:1;stroke-miterlimit:10;" d="M 1260.332031 705.527344 L 1293.570313 705.527344 L 1293.570313 676.042969 L 1260.332031 676.042969 Z M 1260.332031 705.527344 "/>
<path style="fill-rule:nonzero;fill:rgb(98.431373%,94.901961%,95.686275%);fill-opacity:1;stroke-width:1.5;stroke-linecap:round;stroke-linejoin:round;stroke:rgb(0%,0%,0%);stroke-opacity:1;stroke-miterlimit:10;" d="M 797.929688 324.542969 L 909.109375 324.542969 L 909.109375 228.636719 L 797.929688 228.636719 Z M 797.929688 324.542969 "/>
<path style="fill-rule:nonzero;fill:rgb(92.54902%,74.901961%,78.431373%);fill-opacity:1;stroke-width:1.5;stroke-linecap:round;stroke-linejoin:round;stroke:rgb(0%,0%,0%);stroke-opacity:1;stroke-miterlimit:10;" d="M 1081.398438 229.601563 L 1166.289063 229.601563 L 1166.289063 130.875 L 1081.398438 130.875 Z M 1081.398438 229.601563 "/>
<path style="fill-rule:nonzero;fill:rgb(80.784314%,32.156863%,41.960784%);fill-opacity:1;stroke-width:1.5;stroke-linecap:round;stroke-linejoin:round;stroke:rgb(0%,0%,0%);stroke-opacity:1;stroke-miterlimit:10;" d="M 997.554688 672.445313 L 1066.976563 672.445313 L 1066.976563 609.484375 L 997.554688 609.484375 Z M 997.554688 672.445313 "/>
<path style="fill-rule:nonzero;fill:rgb(98.823529%,96.862745%,97.254902%);fill-opacity:1;stroke-width:1.5;stroke-linecap:round;stroke-linejoin:round;stroke:rgb(0%,0%,0%);stroke-opacity:1;stroke-miterlimit:10;" d="M 1255.601563 316.433594 L 1335.542969 316.433594 L 1335.542969 229.601563 L 1255.601563 229.601563 Z M 1255.601563 316.433594 "/>
<path style="fill-rule:nonzero;fill:rgb(96.470588%,87.843137%,89.411765%);fill-opacity:1;stroke-width:1.5;stroke-linecap:round;stroke-linejoin:round;stroke:rgb(0%,0%,0%);stroke-opacity:1;stroke-miterlimit:10;" d="M 909.109375 602.730469 L 997.558594 602.730469 L 997.558594 534.753906 L 909.109375 534.753906 Z M 909.109375 602.730469 "/>
<path style="fill-rule:nonzero;fill:rgb(98.431373%,94.509804%,95.294118%);fill-opacity:1;stroke-width:1.5;stroke-linecap:round;stroke-linejoin:round;stroke:rgb(0%,0%,0%);stroke-opacity:1;stroke-miterlimit:10;" d="M 1183.8125 602.753906 L 1225.964844 602.753906 L 1225.964844 554.929688 L 1183.8125 554.929688 Z M 1183.8125 602.753906 "/>
<path style="fill-rule:nonzero;fill:rgb(85.098039%,47.45098%,54.901961%);fill-opacity:1;stroke-width:1.5;stroke-linecap:round;stroke-linejoin:round;stroke:rgb(0%,0%,0%);stroke-opacity:1;stroke-miterlimit:10;" d="M 1344.335938 548.800781 L 1379.269531 548.800781 L 1379.269531 505.734375 L 1344.335938 505.734375 Z M 1344.335938 548.800781 "/>
<path style="fill-rule:nonzero;fill:rgb(92.156863%,72.156863%,76.078431%);fill-opacity:1;stroke-width:1.5;stroke-linecap:round;stroke-linejoin:round;stroke:rgb(0%,0%,0%);stroke-opacity:1;stroke-miterlimit:10;" d="M 1252.9375 455.589844 L 1312.035156 455.589844 L 1312.035156 395.929688 L 1252.9375 395.929688 Z M 1252.9375 455.589844 "/>
<path style="fill-rule:nonzero;fill:rgb(99.607843%,99.215686%,99.215686%);fill-opacity:1;stroke-width:1.5;stroke-linecap:round;stroke-linejoin:round;stroke:rgb(0%,0%,0%);stroke-opacity:1;stroke-miterlimit:10;" d="M 1293.570313 711.984375 L 1324.328125 711.984375 L 1324.328125 688.628906 L 1293.570313 688.628906 Z M 1293.570313 711.984375 "/>
<path style="fill-rule:nonzero;fill:rgb(99.215686%,97.254902%,97.647059%);fill-opacity:1;stroke-width:1.5;stroke-linecap:round;stroke-linejoin:round;stroke:rgb(0%,0%,0%);stroke-opacity:1;stroke-miterlimit:10;" d="M 797.929688 130.875 L 917.980469 130.875 L 917.980469 15.589844 L 797.929688 15.589844 Z M 797.929688 130.875 "/>
<path style="fill-rule:nonzero;fill:rgb(98.823529%,95.686275%,96.470588%);fill-opacity:1;stroke-width:1.5;stroke-linecap:round;stroke-linejoin:round;stroke:rgb(0%,0%,0%);stroke-opacity:1;stroke-miterlimit:10;" d="M 1335.542969 316.433594 L 1413.828125 316.433594 L 1413.828125 229.601563 L 1335.542969 229.601563 Z M 1335.542969 316.433594 "/>
<path style="fill-rule:nonzero;fill:rgb(87.45098%,56.862745%,62.745098%);fill-opacity:1;stroke-width:1.5;stroke-linecap:round;stroke-linejoin:round;stroke:rgb(0%,0%,0%);stroke-opacity:1;stroke-miterlimit:10;" d="M 1225.964844 666.574219 L 1260.332031 666.574219 L 1260.332031 627.457031 L 1225.964844 627.457031 Z M 1225.964844 666.574219 "/>
<path style="fill-rule:nonzero;fill:rgb(93.333333%,77.647059%,80.784314%);fill-opacity:1;stroke-width:1.5;stroke-linecap:round;stroke-linejoin:round;stroke:rgb(0%,0%,0%);stroke-opacity:1;stroke-miterlimit:10;" d="M 1225.964844 588.332031 L 1260.332031 588.332031 L 1260.332031 548.800781 L 1225.964844 548.800781 Z M 1225.964844 588.332031 "/>
<path style="fill-rule:nonzero;fill:rgb(80%,80%,80%);fill-opacity:1;stroke-width:1.5;stroke-linecap:round;stroke-linejoin:round;stroke:rgb(0%,0%,0%);stroke-opacity:1;stroke-miterlimit:10;" d="M 1384.847656 734.414063 L 1396.832031 734.414063 L 1396.832031 723.515625 L 1384.847656 723.515625 Z M 1384.847656 734.414063 "/>
<path style="fill-rule:nonzero;fill:rgb(99.607843%,98.823529%,98.823529%);fill-opacity:1;stroke-width:1.5;stroke-linecap:round;stroke-linejoin:round;stroke:rgb(0%,0%,0%);stroke-opacity:1;stroke-miterlimit:10;" d="M 1371.265625 667.503906 L 1393.046875 667.503906 L 1393.046875 639.671875 L 1371.265625 639.671875 Z M 1371.265625 667.503906 "/>
<path style="fill-rule:nonzero;fill:rgb(92.156863%,72.941176%,76.862745%);fill-opacity:1;stroke-width:1.5;stroke-linecap:round;stroke-linejoin:round;stroke:rgb(0%,0%,0%);stroke-opacity:1;stroke-miterlimit:10;" d="M 656.070313 526.3125 L 797.929688 526.3125 L 797.929688 411.253906 L 656.070313 411.253906 Z M 656.070313 526.3125 "/>
<path style="fill-rule:nonzero;fill:rgb(80%,80%,80%);fill-opacity:1;stroke-width:1.5;stroke-linecap:round;stroke-linejoin:round;stroke:rgb(0%,0%,0%);stroke-opacity:1;stroke-miterlimit:10;" d="M 1384.191406 639.671875 L 1413.828125 639.671875 L 1413.828125 613.859375 L 1384.191406 613.859375 Z M 1384.191406 639.671875 "/>
<path style="fill-rule:nonzero;fill:rgb(98.431373%,94.901961%,95.686275%);fill-opacity:1;stroke-width:1.5;stroke-linecap:round;stroke-linejoin:round;stroke:rgb(0%,0%,0%);stroke-opacity:1;stroke-miterlimit:10;" d="M 1225.964844 700.550781 L 1260.332031 700.550781 L 1260.332031 666.574219 L 1225.964844 666.574219 Z M 1225.964844 700.550781 "/>
<path style="fill-rule:nonzero;fill:rgb(80%,80%,80%);fill-opacity:1;stroke-width:1.5;stroke-linecap:round;stroke-linejoin:round;stroke:rgb(0%,0%,0%);stroke-opacity:1;stroke-miterlimit:10;" d="M 1367.074219 723.960938 L 1384.847656 723.960938 L 1384.847656 712.417969 L 1367.074219 712.417969 Z M 1367.074219 723.960938 "/>
<path style="fill-rule:nonzero;fill:rgb(99.607843%,98.431373%,98.823529%);fill-opacity:1;stroke-width:1.5;stroke-linecap:round;stroke-linejoin:round;stroke:rgb(0%,0%,0%);stroke-opacity:1;stroke-miterlimit:10;" d="M 1306.972656 548.800781 L 1344.332031 548.800781 L 1344.332031 505.734375 L 1306.972656 505.734375 Z M 1306.972656 548.800781 "/>
<path style="fill-rule:nonzero;fill:rgb(73.333333%,7.058824%,20.392157%);fill-opacity:1;stroke-width:1.5;stroke-linecap:round;stroke-linejoin:round;stroke:rgb(0%,0%,0%);stroke-opacity:1;stroke-miterlimit:10;" d="M 502.910156 734.414063 L 656.070313 734.414063 L 656.070313 604.933594 L 502.910156 604.933594 Z M 502.910156 734.414063 "/>
<path style="fill-rule:nonzero;fill:rgb(98.823529%,96.078431%,96.470588%);fill-opacity:1;stroke-width:1.5;stroke-linecap:round;stroke-linejoin:round;stroke:rgb(0%,0%,0%);stroke-opacity:1;stroke-miterlimit:10;" d="M 1266.902344 548.800781 L 1306.976563 548.800781 L 1306.976563 505.734375 L 1266.902344 505.734375 Z M 1266.902344 548.800781 "/>
<path style="fill-rule:nonzero;fill:rgb(99.607843%,99.215686%,99.215686%);fill-opacity:1;stroke-width:1.5;stroke-linecap:round;stroke-linejoin:round;stroke:rgb(0%,0%,0%);stroke-opacity:1;stroke-miterlimit:10;" d="M 797.929688 409.078125 L 909.109375 409.078125 L 909.109375 324.539063 L 797.929688 324.539063 Z M 797.929688 409.078125 "/>
<path style="fill-rule:nonzero;fill:rgb(99.607843%,98.823529%,98.823529%);fill-opacity:1;stroke-width:1.5;stroke-linecap:round;stroke-linejoin:round;stroke:rgb(0%,0%,0%);stroke-opacity:1;stroke-miterlimit:10;" d="M 1183.8125 692.222656 L 1225.964844 692.222656 L 1225.964844 649.265625 L 1183.8125 649.265625 Z M 1183.8125 692.222656 "/>
<path style="fill-rule:nonzero;fill:rgb(80%,80%,80%);fill-opacity:1;stroke-width:1.5;stroke-linecap:round;stroke-linejoin:round;stroke:rgb(0%,0%,0%);stroke-opacity:1;stroke-miterlimit:10;" d="M 1396.832031 734.414063 L 1405.089844 734.414063 L 1405.089844 725.277344 L 1396.832031 725.277344 Z M 1396.832031 734.414063 "/>
<path style="fill-rule:nonzero;fill:rgb(80%,80%,80%);fill-opacity:1;stroke-width:1.5;stroke-linecap:round;stroke-linejoin:round;stroke:rgb(0%,0%,0%);stroke-opacity:1;stroke-miterlimit:10;" d="M 1293.570313 734.414063 L 1324.328125 734.414063 L 1324.328125 711.984375 L 1293.570313 711.984375 Z M 1293.570313 734.414063 "/>
<path style="fill-rule:nonzero;fill:rgb(94.117647%,79.607843%,82.352941%);fill-opacity:1;stroke-width:1.5;stroke-linecap:round;stroke-linejoin:round;stroke:rgb(0%,0%,0%);stroke-opacity:1;stroke-miterlimit:10;" d="M 344.578125 206.492188 L 502.914063 206.492188 L 502.914063 15.585938 L 344.578125 15.585938 Z M 344.578125 206.492188 "/>
<path style="fill-rule:nonzero;fill:rgb(99.607843%,98.431373%,98.823529%);fill-opacity:1;stroke-width:1.5;stroke-linecap:round;stroke-linejoin:round;stroke:rgb(0%,0%,0%);stroke-opacity:1;stroke-miterlimit:10;" d="M 1293.570313 688.628906 L 1324.328125 688.628906 L 1324.328125 664.445313 L 1293.570313 664.445313 Z M 1293.570313 688.628906 "/>
<path style="fill-rule:nonzero;fill:rgb(99.215686%,97.647059%,98.039216%);fill-opacity:1;stroke-width:1.5;stroke-linecap:round;stroke-linejoin:round;stroke:rgb(0%,0%,0%);stroke-opacity:1;stroke-miterlimit:10;" d="M 1386.746094 613.859375 L 1413.828125 613.859375 L 1413.828125 584.71875 L 1386.746094 584.71875 Z M 1386.746094 613.859375 "/>
<path style="fill-rule:nonzero;fill:rgb(93.333333%,76.470588%,80%);fill-opacity:1;stroke-width:1.5;stroke-linecap:round;stroke-linejoin:round;stroke:rgb(0%,0%,0%);stroke-opacity:1;stroke-miterlimit:10;" d="M 1260.332031 734.414063 L 1293.570313 734.414063 L 1293.570313 705.53125 L 1260.332031 705.53125 Z M 1260.332031 734.414063 "/>
<path style="fill-rule:nonzero;fill:rgb(96.862745%,89.019608%,90.588235%);fill-opacity:1;stroke-width:1.5;stroke-linecap:round;stroke-linejoin:round;stroke:rgb(0%,0%,0%);stroke-opacity:1;stroke-miterlimit:10;" d="M 1278.851563 395.929688 L 1347.890625 395.929688 L 1347.890625 316.433594 L 1278.851563 316.433594 Z M 1278.851563 395.929688 "/>
<path style="fill-rule:nonzero;fill:rgb(96.862745%,89.019608%,90.588235%);fill-opacity:1;stroke-width:1.5;stroke-linecap:round;stroke-linejoin:round;stroke:rgb(0%,0%,0%);stroke-opacity:1;stroke-miterlimit:10;" d="M 1223.683594 130.875 L 1318.820313 130.875 L 1318.820313 15.589844 L 1223.683594 15.589844 Z M 1223.683594 130.875 "/>
<path style="fill-rule:nonzero;fill:rgb(80%,80%,80%);fill-opacity:1;stroke-width:1.5;stroke-linecap:round;stroke-linejoin:round;stroke:rgb(0%,0%,0%);stroke-opacity:1;stroke-miterlimit:10;" d="M 1396.832031 725.277344 L 1406.339844 725.277344 L 1406.339844 711.828125 L 1396.832031 711.828125 Z M 1396.832031 725.277344 "/>
<path style="fill-rule:nonzero;fill:rgb(97.254902%,90.588235%,91.764706%);fill-opacity:1;stroke-width:1.5;stroke-linecap:round;stroke-linejoin:round;stroke:rgb(0%,0%,0%);stroke-opacity:1;stroke-miterlimit:10;" d="M 1066.976563 465.300781 L 1127.722656 465.300781 L 1127.722656 395.929688 L 1066.976563 395.929688 Z M 1066.976563 465.300781 "/>
<path style="fill-rule:nonzero;fill:rgb(90.588235%,67.843137%,72.54902%);fill-opacity:1;stroke-width:1.5;stroke-linecap:round;stroke-linejoin:round;stroke:rgb(0%,0%,0%);stroke-opacity:1;stroke-miterlimit:10;" d="M 1358.984375 613.859375 L 1386.746094 613.859375 L 1386.746094 584.71875 L 1358.984375 584.71875 Z M 1358.984375 613.859375 "/>
<path style="fill-rule:nonzero;fill:rgb(92.54902%,74.509804%,78.039216%);fill-opacity:1;stroke-width:1.5;stroke-linecap:round;stroke-linejoin:round;stroke:rgb(0%,0%,0%);stroke-opacity:1;stroke-miterlimit:10;" d="M 997.554688 470.21875 L 1066.976563 470.21875 L 1066.976563 395.929688 L 997.554688 395.929688 Z M 997.554688 470.21875 "/>
<path style="fill-rule:nonzero;fill:rgb(98.823529%,96.862745%,97.254902%);fill-opacity:1;stroke-width:1.5;stroke-linecap:round;stroke-linejoin:round;stroke:rgb(0%,0%,0%);stroke-opacity:1;stroke-miterlimit:10;" d="M 1326.398438 613.859375 L 1358.984375 613.859375 L 1358.984375 584.71875 L 1326.398438 584.71875 Z M 1326.398438 613.859375 "/>
<path style="fill-rule:nonzero;fill:rgb(85.882353%,50.588235%,57.647059%);fill-opacity:1;stroke-width:1.5;stroke-linecap:round;stroke-linejoin:round;stroke:rgb(0%,0%,0%);stroke-opacity:1;stroke-miterlimit:10;" d="M 797.929688 734.414063 L 909.109375 734.414063 L 909.109375 653.664063 L 797.929688 653.664063 Z M 797.929688 734.414063 "/>
<path style="fill-rule:nonzero;fill:rgb(95.686275%,85.882353%,87.843137%);fill-opacity:1;stroke-width:1.5;stroke-linecap:round;stroke-linejoin:round;stroke:rgb(0%,0%,0%);stroke-opacity:1;stroke-miterlimit:10;" d="M 997.554688 543.445313 L 1066.976563 543.445313 L 1066.976563 470.21875 L 997.554688 470.21875 Z M 997.554688 543.445313 "/>
<path style="fill-rule:nonzero;fill:rgb(96.862745%,89.803922%,91.372549%);fill-opacity:1;stroke-width:1.5;stroke-linecap:round;stroke-linejoin:round;stroke:rgb(0%,0%,0%);stroke-opacity:1;stroke-miterlimit:10;" d="M 85.171875 734.414063 L 344.574219 734.414063 L 344.574219 589.199219 L 85.171875 589.199219 Z M 85.171875 734.414063 "/>
<path style="fill-rule:nonzero;fill:rgb(98.431373%,94.509804%,95.294118%);fill-opacity:1;stroke-width:1.5;stroke-linecap:round;stroke-linejoin:round;stroke:rgb(0%,0%,0%);stroke-opacity:1;stroke-miterlimit:10;" d="M 502.910156 469.980469 L 656.070313 469.980469 L 656.070313 334.109375 L 502.910156 334.109375 Z M 502.910156 469.980469 "/>
<path style="fill-rule:nonzero;fill:rgb(99.607843%,99.215686%,99.607843%);fill-opacity:1;stroke-width:1.5;stroke-linecap:round;stroke-linejoin:round;stroke:rgb(0%,0%,0%);stroke-opacity:1;stroke-miterlimit:10;" d="M 1260.332031 676.046875 L 1293.570313 676.046875 L 1293.570313 646.535156 L 1260.332031 646.535156 Z M 1260.332031 676.046875 "/>
<path style="fill-rule:nonzero;fill:rgb(99.607843%,98.431373%,98.823529%);fill-opacity:1;stroke-width:1.5;stroke-linecap:round;stroke-linejoin:round;stroke:rgb(0%,0%,0%);stroke-opacity:1;stroke-miterlimit:10;" d="M 917.976563 130.875 L 1030.527344 130.875 L 1030.527344 15.589844 L 917.976563 15.589844 Z M 917.976563 130.875 "/>
<path style="fill-rule:nonzero;fill:rgb(80%,80%,80%);fill-opacity:1;stroke-width:1.5;stroke-linecap:round;stroke-linejoin:round;stroke:rgb(0%,0%,0%);stroke-opacity:1;stroke-miterlimit:10;" d="M 1225.964844 734.414063 L 1260.332031 734.414063 L 1260.332031 700.550781 L 1225.964844 700.550781 Z M 1225.964844 734.414063 "/>
<path style="fill-rule:nonzero;fill:rgb(99.607843%,99.607843%,99.607843%);fill-opacity:1;stroke-width:1.5;stroke-linecap:round;stroke-linejoin:round;stroke:rgb(0%,0%,0%);stroke-opacity:1;stroke-miterlimit:10;" d="M 797.929688 228.636719 L 909.109375 228.636719 L 909.109375 130.875 L 797.929688 130.875 Z M 797.929688 228.636719 "/>
<path style="fill-rule:nonzero;fill:rgb(99.607843%,99.607843%,99.607843%);fill-opacity:1;stroke-width:1.5;stroke-linecap:round;stroke-linejoin:round;stroke:rgb(0%,0%,0%);stroke-opacity:1;stroke-miterlimit:10;" d="M 1323.828125 584.71875 L 1354.390625 584.71875 L 1354.390625 548.800781 L 1323.828125 548.800781 Z M 1323.828125 584.71875 "/>
<path style="fill-rule:nonzero;fill:rgb(92.156863%,72.156863%,76.078431%);fill-opacity:1;stroke-width:1.5;stroke-linecap:round;stroke-linejoin:round;stroke:rgb(0%,0%,0%);stroke-opacity:1;stroke-miterlimit:10;" d="M 344.578125 562.617188 L 502.914063 562.617188 L 502.914063 387.066406 L 344.578125 387.066406 Z M 344.578125 562.617188 "/>
<path style="fill-rule:nonzero;fill:rgb(80%,80%,80%);fill-opacity:1;stroke-width:1.5;stroke-linecap:round;stroke-linejoin:round;stroke:rgb(0%,0%,0%);stroke-opacity:1;stroke-miterlimit:10;" d="M 1324.328125 693.777344 L 1345 693.777344 L 1345 667.507813 L 1324.328125 667.507813 Z M 1324.328125 693.777344 "/>
<path style="fill-rule:nonzero;fill:rgb(80%,80%,80%);fill-opacity:1;stroke-width:1.5;stroke-linecap:round;stroke-linejoin:round;stroke:rgb(0%,0%,0%);stroke-opacity:1;stroke-miterlimit:10;" d="M 1127.722656 455.589844 L 1190.648438 455.589844 L 1190.648438 395.929688 L 1127.722656 395.929688 Z M 1127.722656 455.589844 "/>
<path style="fill-rule:nonzero;fill:rgb(99.215686%,97.647059%,97.647059%);fill-opacity:1;stroke-width:1.5;stroke-linecap:round;stroke-linejoin:round;stroke:rgb(0%,0%,0%);stroke-opacity:1;stroke-miterlimit:10;" d="M 1363.285156 455.589844 L 1413.824219 455.589844 L 1413.824219 395.929688 L 1363.285156 395.929688 Z M 1363.285156 455.589844 "/>
<path style="fill-rule:nonzero;fill:rgb(95.294118%,84.313725%,86.666667%);fill-opacity:1;stroke-width:1.5;stroke-linecap:round;stroke-linejoin:round;stroke:rgb(0%,0%,0%);stroke-opacity:1;stroke-miterlimit:10;" d="M 1190.644531 455.589844 L 1252.933594 455.589844 L 1252.933594 395.929688 L 1190.644531 395.929688 Z M 1190.644531 455.589844 "/>
<path style="fill-rule:nonzero;fill:rgb(80%,80%,80%);fill-opacity:1;stroke-width:1.5;stroke-linecap:round;stroke-linejoin:round;stroke:rgb(0%,0%,0%);stroke-opacity:1;stroke-miterlimit:10;" d="M 1139.613281 395.929688 L 1209.273438 395.929688 L 1209.273438 316.433594 L 1139.613281 316.433594 Z M 1139.613281 395.929688 "/>
<path style="fill-rule:nonzero;fill:rgb(87.45098%,56.470588%,62.745098%);fill-opacity:1;stroke-width:1.5;stroke-linecap:round;stroke-linejoin:round;stroke:rgb(0%,0%,0%);stroke-opacity:1;stroke-miterlimit:10;" d="M 1127.722656 644.804688 L 1183.8125 644.804688 L 1183.8125 598.488281 L 1127.722656 598.488281 Z M 1127.722656 644.804688 "/>
<path style="fill-rule:nonzero;fill:rgb(83.529412%,42.352941%,50.980392%);fill-opacity:1;stroke-width:1.5;stroke-linecap:round;stroke-linejoin:round;stroke:rgb(0%,0%,0%);stroke-opacity:1;stroke-miterlimit:10;" d="M 1066.976563 533.652344 L 1127.722656 533.652344 L 1127.722656 465.304688 L 1066.976563 465.304688 Z M 1066.976563 533.652344 "/>
<path style="fill-rule:nonzero;fill:rgb(80%,80%,80%);fill-opacity:1;stroke-width:1.5;stroke-linecap:round;stroke-linejoin:round;stroke:rgb(0%,0%,0%);stroke-opacity:1;stroke-miterlimit:10;" d="M 1384.160156 584.71875 L 1413.824219 584.71875 L 1413.824219 548.800781 L 1384.160156 548.800781 Z M 1384.160156 584.71875 "/>
<path style="fill-rule:nonzero;fill:rgb(99.607843%,99.607843%,99.607843%);fill-opacity:1;stroke-width:1.5;stroke-linecap:round;stroke-linejoin:round;stroke:rgb(0%,0%,0%);stroke-opacity:1;stroke-miterlimit:10;" d="M 1231.71875 505.734375 L 1278.253906 505.734375 L 1278.253906 455.589844 L 1231.71875 455.589844 Z M 1231.71875 505.734375 "/>
<path style="fill-rule:nonzero;fill:rgb(72.941176%,4.705882%,18.431373%);fill-opacity:1;stroke-width:1.5;stroke-linecap:round;stroke-linejoin:round;stroke:rgb(0%,0%,0%);stroke-opacity:1;stroke-miterlimit:10;" d="M 1209.277344 395.929688 L 1278.851563 395.929688 L 1278.851563 316.433594 L 1209.277344 316.433594 Z M 1209.277344 395.929688 "/>
<path style="fill-rule:nonzero;fill:rgb(81.176471%,34.117647%,43.529412%);fill-opacity:1;stroke-width:1.5;stroke-linecap:round;stroke-linejoin:round;stroke:rgb(0%,0%,0%);stroke-opacity:1;stroke-miterlimit:10;" d="M 797.929688 572.585938 L 909.109375 572.585938 L 909.109375 491.316406 L 797.929688 491.316406 Z M 797.929688 572.585938 "/>
<path style="fill-rule:nonzero;fill:rgb(80%,80%,80%);fill-opacity:1;stroke-width:1.5;stroke-linecap:round;stroke-linejoin:round;stroke:rgb(0%,0%,0%);stroke-opacity:1;stroke-miterlimit:10;" d="M 1225.964844 548.800781 L 1266.902344 548.800781 L 1266.902344 505.734375 L 1225.964844 505.734375 Z M 1225.964844 548.800781 "/>
<path style="fill-rule:nonzero;fill:rgb(80%,80%,80%);fill-opacity:1;stroke-width:1.5;stroke-linecap:round;stroke-linejoin:round;stroke:rgb(0%,0%,0%);stroke-opacity:1;stroke-miterlimit:10;" d="M 1399.363281 684.605469 L 1413.824219 684.605469 L 1413.824219 667.503906 L 1399.363281 667.503906 Z M 1399.363281 684.605469 "/>
<path style="fill-rule:nonzero;fill:rgb(90.588235%,67.45098%,72.156863%);fill-opacity:1;stroke-width:1.5;stroke-linecap:round;stroke-linejoin:round;stroke:rgb(0%,0%,0%);stroke-opacity:1;stroke-miterlimit:10;" d="M 1318.816406 130.875 L 1413.824219 130.875 L 1413.824219 15.589844 L 1318.816406 15.589844 Z M 1318.816406 130.875 "/>
<path style="fill-rule:nonzero;fill:rgb(80%,80%,80%);fill-opacity:1;stroke-width:1.5;stroke-linecap:round;stroke-linejoin:round;stroke:rgb(0%,0%,0%);stroke-opacity:1;stroke-miterlimit:10;" d="M 1293.570313 664.445313 L 1324.328125 664.445313 L 1324.328125 639.671875 L 1293.570313 639.671875 Z M 1293.570313 664.445313 "/>
<path style="fill-rule:nonzero;fill:rgb(96.078431%,86.666667%,88.235294%);fill-opacity:1;stroke-width:1.5;stroke-linecap:round;stroke-linejoin:round;stroke:rgb(0%,0%,0%);stroke-opacity:1;stroke-miterlimit:10;" d="M 1127.722656 690.402344 L 1183.8125 690.402344 L 1183.8125 644.808594 L 1127.722656 644.808594 Z M 1127.722656 690.402344 "/>
<path style="fill-rule:nonzero;fill:rgb(99.607843%,99.607843%,99.607843%);fill-opacity:1;stroke-width:1.5;stroke-linecap:round;stroke-linejoin:round;stroke:rgb(0%,0%,0%);stroke-opacity:1;stroke-miterlimit:10;" d="M 1225.964844 627.453125 L 1260.332031 627.453125 L 1260.332031 588.332031 L 1225.964844 588.332031 Z M 1225.964844 627.453125 "/>
<path style="fill-rule:nonzero;fill:rgb(99.607843%,99.215686%,99.215686%);fill-opacity:1;stroke-width:1.5;stroke-linecap:round;stroke-linejoin:round;stroke:rgb(0%,0%,0%);stroke-opacity:1;stroke-miterlimit:10;" d="M 909.109375 669.59375 L 997.558594 669.59375 L 997.558594 602.730469 L 909.109375 602.730469 Z M 909.109375 669.59375 "/>
<path style="fill-rule:nonzero;fill:rgb(94.901961%,82.745098%,85.098039%);fill-opacity:1;stroke-width:1.5;stroke-linecap:round;stroke-linejoin:round;stroke:rgb(0%,0%,0%);stroke-opacity:1;stroke-miterlimit:10;" d="M 1260.332031 584.71875 L 1292.496094 584.71875 L 1292.496094 548.800781 L 1260.332031 548.800781 Z M 1260.332031 584.71875 "/>
<path style="fill-rule:nonzero;fill:rgb(99.607843%,99.607843%,99.607843%);fill-opacity:1;stroke-width:1.5;stroke-linecap:round;stroke-linejoin:round;stroke:rgb(0%,0%,0%);stroke-opacity:1;stroke-miterlimit:10;" d="M 1127.722656 504.441406 L 1183.8125 504.441406 L 1183.8125 455.589844 L 1127.722656 455.589844 Z M 1127.722656 504.441406 "/>
<path style="fill-rule:nonzero;fill:rgb(80%,80%,80%);fill-opacity:1;stroke-width:1.5;stroke-linecap:round;stroke-linejoin:round;stroke:rgb(0%,0%,0%);stroke-opacity:1;stroke-miterlimit:10;" d="M 1066.976563 734.414063 L 1127.722656 734.414063 L 1127.722656 668.414063 L 1066.976563 668.414063 Z M 1066.976563 734.414063 "/>
<path style="fill-rule:nonzero;fill:rgb(99.607843%,99.607843%,99.607843%);fill-opacity:1;stroke-width:1.5;stroke-linecap:round;stroke-linejoin:round;stroke:rgb(0%,0%,0%);stroke-opacity:1;stroke-miterlimit:10;" d="M 1260.332031 616.164063 L 1293.570313 616.164063 L 1293.570313 584.71875 L 1260.332031 584.71875 Z M 1260.332031 616.164063 "/>
<path style="fill-rule:nonzero;fill:rgb(80%,80%,80%);fill-opacity:1;stroke-width:1.5;stroke-linecap:round;stroke-linejoin:round;stroke:rgb(0%,0%,0%);stroke-opacity:1;stroke-miterlimit:10;" d="M 1324.328125 714.242188 L 1345 714.242188 L 1345 693.777344 L 1324.328125 693.777344 Z M 1324.328125 714.242188 "/>
<path style="fill-rule:nonzero;fill:rgb(99.607843%,99.215686%,99.215686%);fill-opacity:1;stroke-width:1.5;stroke-linecap:round;stroke-linejoin:round;stroke:rgb(0%,0%,0%);stroke-opacity:1;stroke-miterlimit:10;" d="M 656.070313 411.253906 L 797.929688 411.253906 L 797.929688 280.335938 L 656.070313 280.335938 Z M 656.070313 411.253906 "/>
<path style="fill-rule:nonzero;fill:rgb(87.058824%,55.294118%,61.568627%);fill-opacity:1;stroke-width:1.5;stroke-linecap:round;stroke-linejoin:round;stroke:rgb(0%,0%,0%);stroke-opacity:1;stroke-miterlimit:10;" d="M 656.070313 148.238281 L 797.929688 148.238281 L 797.929688 15.585938 L 656.070313 15.585938 Z M 656.070313 148.238281 "/>
<path style="fill-rule:nonzero;fill:rgb(80%,80%,80%);fill-opacity:1;stroke-width:1.5;stroke-linecap:round;stroke-linejoin:round;stroke:rgb(0%,0%,0%);stroke-opacity:1;stroke-miterlimit:10;" d="M 85.171875 279.402344 L 344.574219 279.402344 L 344.574219 15.585938 L 85.171875 15.585938 Z M 85.171875 279.402344 "/>
<path style="fill-rule:nonzero;fill:rgb(96.862745%,89.803922%,91.372549%);fill-opacity:1;stroke-width:1.5;stroke-linecap:round;stroke-linejoin:round;stroke:rgb(0%,0%,0%);stroke-opacity:1;stroke-miterlimit:10;" d="M 1278.253906 505.734375 L 1324.441406 505.734375 L 1324.441406 455.589844 L 1278.253906 455.589844 Z M 1278.253906 505.734375 "/>
<path style="fill-rule:nonzero;fill:rgb(80%,80%,80%);fill-opacity:1;stroke-width:1.5;stroke-linecap:round;stroke-linejoin:round;stroke:rgb(0%,0%,0%);stroke-opacity:1;stroke-miterlimit:10;" d="M 1382.75 699.664063 L 1398.351563 699.664063 L 1398.351563 684.605469 L 1382.75 684.605469 Z M 1382.75 699.664063 "/>
<path style="fill-rule:nonzero;fill:rgb(96.862745%,89.019608%,90.588235%);fill-opacity:1;stroke-width:1.5;stroke-linecap:round;stroke-linejoin:round;stroke:rgb(0%,0%,0%);stroke-opacity:1;stroke-miterlimit:10;" d="M 1250.609375 229.601563 L 1332.597656 229.601563 L 1332.597656 130.875 L 1250.609375 130.875 Z M 1250.609375 229.601563 "/>
<path style="fill-rule:nonzero;fill:rgb(98.431373%,95.686275%,96.078431%);fill-opacity:1;stroke-width:1.5;stroke-linecap:round;stroke-linejoin:round;stroke:rgb(0%,0%,0%);stroke-opacity:1;stroke-miterlimit:10;" d="M 1066.976563 668.414063 L 1127.722656 668.414063 L 1127.722656 601.757813 L 1066.976563 601.757813 Z M 1066.976563 668.414063 "/>
<path style="fill-rule:nonzero;fill:rgb(94.117647%,79.607843%,82.352941%);fill-opacity:1;stroke-width:1.5;stroke-linecap:round;stroke-linejoin:round;stroke:rgb(0%,0%,0%);stroke-opacity:1;stroke-miterlimit:10;" d="M 909.109375 534.753906 L 997.558594 534.753906 L 997.558594 464.746094 L 909.109375 464.746094 Z M 909.109375 534.753906 "/>
<path style="fill-rule:nonzero;fill:rgb(85.490196%,49.019608%,56.078431%);fill-opacity:1;stroke-width:1.5;stroke-linecap:round;stroke-linejoin:round;stroke:rgb(0%,0%,0%);stroke-opacity:1;stroke-miterlimit:10;" d="M 502.910156 604.933594 L 656.070313 604.933594 L 656.070313 469.980469 L 502.910156 469.980469 Z M 502.910156 604.933594 "/>
<path style="fill-rule:nonzero;fill:rgb(80%,80%,80%);fill-opacity:1;stroke-width:1.5;stroke-linecap:round;stroke-linejoin:round;stroke:rgb(0%,0%,0%);stroke-opacity:1;stroke-miterlimit:10;" d="M 1384.847656 723.511719 L 1396.832031 723.511719 L 1396.832031 711.824219 L 1384.847656 711.824219 Z M 1384.847656 723.511719 "/>
<path style="fill-rule:nonzero;fill:rgb(80%,80%,80%);fill-opacity:1;stroke-width:1.5;stroke-linecap:round;stroke-linejoin:round;stroke:rgb(0%,0%,0%);stroke-opacity:1;stroke-miterlimit:10;" d="M 1393.046875 667.503906 L 1413.828125 667.503906 L 1413.828125 639.671875 L 1393.046875 639.671875 Z M 1393.046875 667.503906 "/>
<path style="fill-rule:nonzero;fill:rgb(98.823529%,96.078431%,96.470588%);fill-opacity:1;stroke-width:1.5;stroke-linecap:round;stroke-linejoin:round;stroke:rgb(0%,0%,0%);stroke-opacity:1;stroke-miterlimit:10;" d="M 502.910156 334.109375 L 656.070313 334.109375 L 656.070313 192.578125 L 502.910156 192.578125 Z M 502.910156 334.109375 "/>
<path style="fill-rule:nonzero;fill:rgb(80%,80%,80%);fill-opacity:1;stroke-width:1.5;stroke-linecap:round;stroke-linejoin:round;stroke:rgb(0%,0%,0%);stroke-opacity:1;stroke-miterlimit:10;" d="M 1345.003906 734.414063 L 1367.074219 734.414063 L 1367.074219 720.664063 L 1345.003906 720.664063 Z M 1345.003906 734.414063 "/>
<path style="fill-rule:nonzero;fill:rgb(80%,80%,80%);fill-opacity:1;stroke-width:1.5;stroke-linecap:round;stroke-linejoin:round;stroke:rgb(0%,0%,0%);stroke-opacity:1;stroke-miterlimit:10;" d="M 656.070313 280.339844 L 797.929688 280.339844 L 797.929688 148.242188 L 656.070313 148.242188 Z M 656.070313 280.339844 "/>
<path style="fill-rule:nonzero;fill:rgb(99.215686%,97.647059%,98.039216%);fill-opacity:1;stroke-width:1.5;stroke-linecap:round;stroke-linejoin:round;stroke:rgb(0%,0%,0%);stroke-opacity:1;stroke-miterlimit:10;" d="M 1345.003906 704.78125 L 1367.074219 704.78125 L 1367.074219 686.222656 L 1345.003906 686.222656 Z M 1345.003906 704.78125 "/>
<path style="fill-rule:nonzero;fill:rgb(99.215686%,97.647059%,98.039216%);fill-opacity:1;stroke-width:1.5;stroke-linecap:round;stroke-linejoin:round;stroke:rgb(0%,0%,0%);stroke-opacity:1;stroke-miterlimit:10;" d="M 997.554688 395.929688 L 1069.148438 395.929688 L 1069.148438 316.433594 L 997.554688 316.433594 Z M 997.554688 395.929688 "/>
<path style="fill-rule:nonzero;fill:rgb(98.823529%,96.470588%,96.862745%);fill-opacity:1;stroke-width:1.5;stroke-linecap:round;stroke-linejoin:round;stroke:rgb(0%,0%,0%);stroke-opacity:1;stroke-miterlimit:10;" d="M 1379.265625 548.800781 L 1413.824219 548.800781 L 1413.824219 505.734375 L 1379.265625 505.734375 Z M 1379.265625 548.800781 "/>
<path style="fill-rule:nonzero;fill:rgb(99.215686%,98.431373%,98.431373%);fill-opacity:1;stroke-width:1.5;stroke-linecap:round;stroke-linejoin:round;stroke:rgb(0%,0%,0%);stroke-opacity:1;stroke-miterlimit:10;" d="M 1066.976563 601.757813 L 1127.722656 601.757813 L 1127.722656 533.652344 L 1066.976563 533.652344 Z M 1066.976563 601.757813 "/>
<path style="fill-rule:nonzero;fill:rgb(97.647059%,92.156863%,93.333333%);fill-opacity:1;stroke-width:1.5;stroke-linecap:round;stroke-linejoin:round;stroke:rgb(0%,0%,0%);stroke-opacity:1;stroke-miterlimit:10;" d="M 909.109375 229.601563 L 995.273438 229.601563 L 995.273438 130.875 L 909.109375 130.875 Z M 909.109375 229.601563 "/>
<path style="fill-rule:nonzero;fill:rgb(85.098039%,48.235294%,55.686275%);fill-opacity:1;stroke-width:1.5;stroke-linecap:round;stroke-linejoin:round;stroke:rgb(0%,0%,0%);stroke-opacity:1;stroke-miterlimit:10;" d="M 995.269531 229.601563 L 1081.394531 229.601563 L 1081.394531 130.875 L 995.269531 130.875 Z M 995.269531 229.601563 "/>
<path style="fill-rule:nonzero;fill:rgb(80%,80%,80%);fill-opacity:1;stroke-width:1.5;stroke-linecap:round;stroke-linejoin:round;stroke:rgb(0%,0%,0%);stroke-opacity:1;stroke-miterlimit:10;" d="M 1354.390625 584.71875 L 1384.160156 584.71875 L 1384.160156 548.800781 L 1354.390625 548.800781 Z M 1354.390625 584.71875 "/>
<path style="fill-rule:nonzero;fill:rgb(80%,80%,80%);fill-opacity:1;stroke-width:1.5;stroke-linecap:round;stroke-linejoin:round;stroke:rgb(0%,0%,0%);stroke-opacity:1;stroke-miterlimit:10;" d="M 1384.664063 684.605469 L 1399.367188 684.605469 L 1399.367188 667.503906 L 1384.664063 667.503906 Z M 1384.664063 684.605469 "/>
<path style="fill-rule:nonzero;fill:rgb(97.647059%,92.54902%,93.72549%);fill-opacity:1;stroke-width:1.5;stroke-linecap:round;stroke-linejoin:round;stroke:rgb(0%,0%,0%);stroke-opacity:1;stroke-miterlimit:10;" d="M 1367.074219 699.664063 L 1382.75 699.664063 L 1382.75 684.605469 L 1367.074219 684.605469 Z M 1367.074219 699.664063 "/>
<path style="fill-rule:nonzero;fill:rgb(80%,80%,80%);fill-opacity:1;stroke-width:1.5;stroke-linecap:round;stroke-linejoin:round;stroke:rgb(0%,0%,0%);stroke-opacity:1;stroke-miterlimit:10;" d="M 1406.339844 725.277344 L 1413.828125 725.277344 L 1413.828125 711.828125 L 1406.339844 711.828125 Z M 1406.339844 725.277344 "/>
<path style="fill-rule:nonzero;fill:rgb(80%,80%,80%);fill-opacity:1;stroke-width:1.5;stroke-linecap:round;stroke-linejoin:round;stroke:rgb(0%,0%,0%);stroke-opacity:1;stroke-miterlimit:10;" d="M 1260.332031 646.535156 L 1293.570313 646.535156 L 1293.570313 616.164063 L 1260.332031 616.164063 Z M 1260.332031 646.535156 "/>
<path style="fill-rule:nonzero;fill:rgb(92.54902%,73.72549%,77.647059%);fill-opacity:1;stroke-width:1.5;stroke-linecap:round;stroke-linejoin:round;stroke:rgb(0%,0%,0%);stroke-opacity:1;stroke-miterlimit:10;" d="M 1324.328125 734.414063 L 1345 734.414063 L 1345 714.242188 L 1324.328125 714.242188 Z M 1324.328125 734.414063 "/>
<path style="fill-rule:nonzero;fill:rgb(93.72549%,78.039216%,81.176471%);fill-opacity:1;stroke-width:1.5;stroke-linecap:round;stroke-linejoin:round;stroke:rgb(0%,0%,0%);stroke-opacity:1;stroke-miterlimit:10;" d="M 1332.597656 229.601563 L 1413.828125 229.601563 L 1413.828125 130.875 L 1332.597656 130.875 Z M 1332.597656 229.601563 "/>
<path style="fill-rule:nonzero;fill:rgb(80%,80%,80%);fill-opacity:1;stroke-width:1.5;stroke-linecap:round;stroke-linejoin:round;stroke:rgb(0%,0%,0%);stroke-opacity:1;stroke-miterlimit:10;" d="M 1173.125 316.433594 L 1255.601563 316.433594 L 1255.601563 229.601563 L 1173.125 229.601563 Z M 1173.125 316.433594 "/>
<path style="fill-rule:nonzero;fill:rgb(99.607843%,99.607843%,99.607843%);fill-opacity:1;stroke-width:1.5;stroke-linecap:round;stroke-linejoin:round;stroke:rgb(0%,0%,0%);stroke-opacity:1;stroke-miterlimit:10;" d="M 1399.714844 711.828125 L 1413.828125 711.828125 L 1413.828125 699.664063 L 1399.714844 699.664063 Z M 1399.714844 711.828125 "/>
<path style="fill-rule:nonzero;fill:rgb(89.019608%,62.352941%,67.843137%);fill-opacity:1;stroke-width:1.5;stroke-linecap:round;stroke-linejoin:round;stroke:rgb(0%,0%,0%);stroke-opacity:1;stroke-miterlimit:10;" d="M 997.554688 734.414063 L 1066.976563 734.414063 L 1066.976563 672.445313 L 997.554688 672.445313 Z M 997.554688 734.414063 "/>
<path style="fill-rule:nonzero;fill:rgb(80%,80%,80%);fill-opacity:1;stroke-width:1.5;stroke-linecap:round;stroke-linejoin:round;stroke:rgb(0%,0%,0%);stroke-opacity:1;stroke-miterlimit:10;" d="M 1183.8125 505.734375 L 1231.71875 505.734375 L 1231.71875 455.589844 L 1183.8125 455.589844 Z M 1183.8125 505.734375 "/>
<path style="fill-rule:nonzero;fill:rgb(99.607843%,99.607843%,99.607843%);fill-opacity:1;stroke-width:1.5;stroke-linecap:round;stroke-linejoin:round;stroke:rgb(0%,0%,0%);stroke-opacity:1;stroke-miterlimit:10;" d="M 909.109375 392.074219 L 997.558594 392.074219 L 997.558594 316.433594 L 909.109375 316.433594 Z M 909.109375 392.074219 "/>
<path style="fill-rule:nonzero;fill:rgb(99.215686%,97.647059%,97.647059%);fill-opacity:1;stroke-width:1.5;stroke-linecap:round;stroke-linejoin:round;stroke:rgb(0%,0%,0%);stroke-opacity:1;stroke-miterlimit:10;" d="M 1127.882813 130.875 L 1223.683594 130.875 L 1223.683594 15.589844 L 1127.882813 15.589844 Z M 1127.882813 130.875 "/>
<path style="fill-rule:nonzero;fill:rgb(80%,80%,80%);fill-opacity:1;stroke-width:1.5;stroke-linecap:round;stroke-linejoin:round;stroke:rgb(0%,0%,0%);stroke-opacity:1;stroke-miterlimit:10;" d="M 1030.527344 130.875 L 1127.882813 130.875 L 1127.882813 15.589844 L 1030.527344 15.589844 Z M 1030.527344 130.875 "/>
<path style="fill-rule:nonzero;fill:rgb(99.607843%,98.823529%,99.215686%);fill-opacity:1;stroke-width:1.5;stroke-linecap:round;stroke-linejoin:round;stroke:rgb(0%,0%,0%);stroke-opacity:1;stroke-miterlimit:10;" d="M 1087.605469 316.433594 L 1173.125 316.433594 L 1173.125 229.601563 L 1087.605469 229.601563 Z M 1087.605469 316.433594 "/>
<path style="fill-rule:nonzero;fill:rgb(97.254902%,90.980392%,92.156863%);fill-opacity:1;stroke-width:1.5;stroke-linecap:round;stroke-linejoin:round;stroke:rgb(0%,0%,0%);stroke-opacity:1;stroke-miterlimit:10;" d="M 797.929688 491.316406 L 909.109375 491.316406 L 909.109375 409.078125 L 797.929688 409.078125 Z M 797.929688 491.316406 "/>
<path style="fill-rule:nonzero;fill:rgb(97.647059%,92.941176%,93.72549%);fill-opacity:1;stroke-width:1.5;stroke-linecap:round;stroke-linejoin:round;stroke:rgb(0%,0%,0%);stroke-opacity:1;stroke-miterlimit:10;" d="M 1398.355469 699.664063 L 1413.828125 699.664063 L 1413.828125 684.605469 L 1398.355469 684.605469 Z M 1398.355469 699.664063 "/>
<path style="fill-rule:nonzero;fill:rgb(91.372549%,69.411765%,73.72549%);fill-opacity:1;stroke-width:1.5;stroke-linecap:round;stroke-linejoin:round;stroke:rgb(0%,0%,0%);stroke-opacity:1;stroke-miterlimit:10;" d="M 1293.570313 613.859375 L 1326.398438 613.859375 L 1326.398438 584.71875 L 1293.570313 584.71875 Z M 1293.570313 613.859375 "/>
<path style="fill-rule:nonzero;fill:rgb(99.607843%,99.607843%,99.607843%);fill-opacity:1;stroke-width:1.5;stroke-linecap:round;stroke-linejoin:round;stroke:rgb(0%,0%,0%);stroke-opacity:1;stroke-miterlimit:10;" d="M 656.070313 633.722656 L 797.929688 633.722656 L 797.929688 526.316406 L 656.070313 526.316406 Z M 656.070313 633.722656 "/>
<path style="fill-rule:nonzero;fill:rgb(99.215686%,97.647059%,98.039216%);fill-opacity:1;stroke-width:1.5;stroke-linecap:round;stroke-linejoin:round;stroke:rgb(0%,0%,0%);stroke-opacity:1;stroke-miterlimit:10;" d="M 1312.03125 455.589844 L 1363.285156 455.589844 L 1363.285156 395.929688 L 1312.03125 395.929688 Z M 1312.03125 455.589844 "/>
<path style="fill-rule:nonzero;fill:rgb(92.54902%,74.509804%,78.039216%);fill-opacity:1;stroke-width:1.5;stroke-linecap:round;stroke-linejoin:round;stroke:rgb(0%,0%,0%);stroke-opacity:1;stroke-miterlimit:10;" d="M 344.578125 387.066406 L 502.914063 387.066406 L 502.914063 206.492188 L 344.578125 206.492188 Z M 344.578125 387.066406 "/>
<path style="fill-rule:nonzero;fill:rgb(99.607843%,99.607843%,99.607843%);fill-opacity:1;stroke-width:1.5;stroke-linecap:round;stroke-linejoin:round;stroke:rgb(0%,0%,0%);stroke-opacity:1;stroke-miterlimit:10;" d="M 998.574219 316.433594 L 1087.601563 316.433594 L 1087.601563 229.601563 L 998.574219 229.601563 Z M 998.574219 316.433594 "/>
<path style="fill-rule:nonzero;fill:rgb(95.686275%,85.098039%,87.058824%);fill-opacity:1;stroke-width:1.5;stroke-linecap:round;stroke-linejoin:round;stroke:rgb(0%,0%,0%);stroke-opacity:1;stroke-miterlimit:10;" d="M 1183.8125 554.929688 L 1225.964844 554.929688 L 1225.964844 505.734375 L 1183.8125 505.734375 Z M 1183.8125 554.929688 "/>
<path style="fill-rule:nonzero;fill:rgb(87.45098%,56.078431%,62.352941%);fill-opacity:1;stroke-width:1.5;stroke-linecap:round;stroke-linejoin:round;stroke:rgb(0%,0%,0%);stroke-opacity:1;stroke-miterlimit:10;" d="M 1183.8125 734.414063 L 1225.964844 734.414063 L 1225.964844 692.222656 L 1183.8125 692.222656 Z M 1183.8125 734.414063 "/>
<path style="fill-rule:nonzero;fill:rgb(80%,80%,80%);fill-opacity:1;stroke-width:1.5;stroke-linecap:round;stroke-linejoin:round;stroke:rgb(0%,0%,0%);stroke-opacity:1;stroke-miterlimit:10;" d="M 1384.847656 711.828125 L 1399.714844 711.828125 L 1399.714844 699.664063 L 1384.847656 699.664063 Z M 1384.847656 711.828125 "/>
<path style="fill-rule:nonzero;fill:rgb(80%,80%,80%);fill-opacity:1;stroke-width:1.5;stroke-linecap:round;stroke-linejoin:round;stroke:rgb(0%,0%,0%);stroke-opacity:1;stroke-miterlimit:10;" d="M 1324.328125 667.503906 L 1348.25 667.503906 L 1348.25 639.671875 L 1324.328125 639.671875 Z M 1324.328125 667.503906 "/>
<path style="fill-rule:nonzero;fill:rgb(99.607843%,99.607843%,99.607843%);fill-opacity:1;stroke-width:1.5;stroke-linecap:round;stroke-linejoin:round;stroke:rgb(0%,0%,0%);stroke-opacity:1;stroke-miterlimit:10;" d="M 909.109375 316.433594 L 998.578125 316.433594 L 998.578125 229.601563 L 909.109375 229.601563 Z M 909.109375 316.433594 "/>
<path style="fill-rule:nonzero;fill:rgb(80%,80%,80%);fill-opacity:1;stroke-width:1.5;stroke-linecap:round;stroke-linejoin:round;stroke:rgb(0%,0%,0%);stroke-opacity:1;stroke-miterlimit:10;" d="M 502.910156 192.582031 L 656.070313 192.582031 L 656.070313 15.585938 L 502.910156 15.585938 Z M 502.910156 192.582031 "/>
<path style="fill-rule:nonzero;fill:rgb(99.215686%,98.039216%,98.039216%);fill-opacity:1;stroke-width:1.5;stroke-linecap:round;stroke-linejoin:round;stroke:rgb(0%,0%,0%);stroke-opacity:1;stroke-miterlimit:10;" d="M 1367.074219 734.414063 L 1384.847656 734.414063 L 1384.847656 723.960938 L 1367.074219 723.960938 Z M 1367.074219 734.414063 "/>
<path style="fill-rule:nonzero;fill:rgb(80%,80%,80%);fill-opacity:1;stroke-width:1.5;stroke-linecap:round;stroke-linejoin:round;stroke:rgb(0%,0%,0%);stroke-opacity:1;stroke-miterlimit:10;" d="M 1367.074219 712.417969 L 1384.847656 712.417969 L 1384.847656 699.664063 L 1367.074219 699.664063 Z M 1367.074219 712.417969 "/>
<path style="fill-rule:nonzero;fill:rgb(93.333333%,77.254902%,80.392157%);fill-opacity:1;stroke-width:1.5;stroke-linecap:round;stroke-linejoin:round;stroke:rgb(0%,0%,0%);stroke-opacity:1;stroke-miterlimit:10;" d="M 656.070313 734.414063 L 797.929688 734.414063 L 797.929688 633.722656 L 656.070313 633.722656 Z M 656.070313 734.414063 "/>
<path style="fill-rule:nonzero;fill:rgb(80%,80%,80%);fill-opacity:1;stroke-width:1.5;stroke-linecap:round;stroke-linejoin:round;stroke:rgb(0%,0%,0%);stroke-opacity:1;stroke-miterlimit:10;" d="M 909.109375 734.414063 L 997.558594 734.414063 L 997.558594 669.59375 L 909.109375 669.59375 Z M 909.109375 734.414063 "/>
<path style="fill-rule:nonzero;fill:rgb(99.607843%,99.607843%,99.607843%);fill-opacity:1;stroke-width:1.5;stroke-linecap:round;stroke-linejoin:round;stroke:rgb(0%,0%,0%);stroke-opacity:1;stroke-miterlimit:10;" d="M 1345.003906 720.664063 L 1367.074219 720.664063 L 1367.074219 704.78125 L 1345.003906 704.78125 Z M 1345.003906 720.664063 "/>
<path style="fill-rule:nonzero;fill:rgb(80%,80%,80%);fill-opacity:1;stroke-width:1.5;stroke-linecap:round;stroke-linejoin:round;stroke:rgb(0%,0%,0%);stroke-opacity:1;stroke-miterlimit:10;" d="M 1127.722656 551.667969 L 1183.8125 551.667969 L 1183.8125 504.4375 L 1127.722656 504.4375 Z M 1127.722656 551.667969 "/>
<path style="fill-rule:nonzero;fill:rgb(80%,80%,80%);fill-opacity:1;stroke-width:1.5;stroke-linecap:round;stroke-linejoin:round;stroke:rgb(0%,0%,0%);stroke-opacity:1;stroke-miterlimit:10;" d="M 1354.175781 639.671875 L 1384.191406 639.671875 L 1384.191406 613.859375 L 1354.175781 613.859375 Z M 1354.175781 639.671875 "/>
<path style="fill-rule:nonzero;fill:rgb(98.039216%,92.941176%,94.117647%);fill-opacity:1;stroke-width:1.5;stroke-linecap:round;stroke-linejoin:round;stroke:rgb(0%,0%,0%);stroke-opacity:1;stroke-miterlimit:10;" d="M 1367.074219 684.605469 L 1384.664063 684.605469 L 1384.664063 667.503906 L 1367.074219 667.503906 Z M 1367.074219 684.605469 "/>
<path style="fill-rule:nonzero;fill:rgb(99.215686%,98.039216%,98.431373%);fill-opacity:1;stroke-width:1.5;stroke-linecap:round;stroke-linejoin:round;stroke:rgb(0%,0%,0%);stroke-opacity:1;stroke-miterlimit:10;" d="M 85.171875 589.199219 L 344.574219 589.199219 L 344.574219 436.390625 L 85.171875 436.390625 Z M 85.171875 589.199219 "/>
<path style="fill-rule:nonzero;fill:rgb(80%,80%,80%);fill-opacity:1;stroke-width:1.5;stroke-linecap:round;stroke-linejoin:round;stroke:rgb(0%,0%,0%);stroke-opacity:1;stroke-miterlimit:10;" d="M 1293.570313 639.671875 L 1324.085938 639.671875 L 1324.085938 613.859375 L 1293.570313 613.859375 Z M 1293.570313 639.671875 "/>
<path style="fill-rule:nonzero;fill:rgb(99.215686%,98.039216%,98.431373%);fill-opacity:1;stroke-width:1.5;stroke-linecap:round;stroke-linejoin:round;stroke:rgb(0%,0%,0%);stroke-opacity:1;stroke-miterlimit:10;" d="M 1166.289063 229.601563 L 1250.609375 229.601563 L 1250.609375 130.875 L 1166.289063 130.875 Z M 1166.289063 229.601563 "/>
<path style="fill-rule:nonzero;fill:rgb(77.254902%,20.784314%,32.156863%);fill-opacity:1;stroke-width:1.5;stroke-linecap:round;stroke-linejoin:round;stroke:rgb(0%,0%,0%);stroke-opacity:1;stroke-miterlimit:10;" d="M 797.929688 653.664063 L 909.109375 653.664063 L 909.109375 572.585938 L 797.929688 572.585938 Z M 797.929688 653.664063 "/>
<path style="fill-rule:nonzero;fill:rgb(80%,80%,80%);fill-opacity:1;stroke-width:1.5;stroke-linecap:round;stroke-linejoin:round;stroke:rgb(0%,0%,0%);stroke-opacity:1;stroke-miterlimit:10;" d="M 909.109375 464.746094 L 997.558594 464.746094 L 997.558594 392.074219 L 909.109375 392.074219 Z M 909.109375 464.746094 "/>
</g>
</svg>
