<?xml version="1.0" encoding="UTF-8"?>
<svg xmlns="http://www.w3.org/2000/svg" xmlns:xlink="http://www.w3.org/1999/xlink" width="1499pt" height="750pt" viewBox="0 0 1499 750" version="1.1">
<g id="surface16">
<rect x="0" y="0" width="1499" height="750" style="fill:rgb(100%,100%,100%);fill-opacity:1;stroke:none;"/>
<path style="fill-rule:nonzero;fill:rgb(99.607843%,99.607843%,99.607843%);fill-opacity:1;stroke-width:1.5;stroke-linecap:round;stroke-linejoin:round;stroke:rgb(0%,0%,0%);stroke-opacity:1;stroke-miterlimit:10;" d="M 1096.019531 680.914063 L 1148.230469 680.914063 L 1148.230469 640.8125 L 1096.019531 640.8125 Z M 1096.019531 680.914063 "/>
<path style="fill-rule:nonzero;fill:rgb(99.607843%,99.215686%,99.215686%);fill-opacity:1;stroke-width:1.5;stroke-linecap:round;stroke-linejoin:round;stroke:rgb(0%,0%,0%);stroke-opacity:1;stroke-miterlimit:10;" d="M 1235.941406 515.335938 L 1277.992188 515.335938 L 1277.992188 471.359375 L 1235.941406 471.359375 Z M 1235.941406 515.335938 "/>
<path style="fill-rule:nonzero;fill:rgb(90.980392%,68.235294%,72.54902%);fill-opacity:1;stroke-width:1.5;stroke-linecap:round;stroke-linejoin:round;stroke:rgb(0%,0%,0%);stroke-opacity:1;stroke-miterlimit:10;" d="M 1048.664063 578.234375 L 1096.019531 578.234375 L 1096.019531 525.933594 L 1048.664063 525.933594 Z M 1048.664063 578.234375 "/>
<path style="fill-rule:nonzero;fill:rgb(99.215686%,98.431373%,98.431373%);fill-opacity:1;stroke-width:1.5;stroke-linecap:round;stroke-linejoin:round;stroke:rgb(0%,0%,0%);stroke-opacity:1;stroke-miterlimit:10;" d="M 1248.089844 661.09375 L 1276.9375 661.09375 L 1276.9375 640.148438 L 1248.089844 640.148438 Z M 1248.089844 661.09375 "/>
<path style="fill-rule:nonzero;fill:rgb(99.607843%,99.215686%,99.215686%);fill-opacity:1;stroke-width:1.5;stroke-linecap:round;stroke-linejoin:round;stroke:rgb(0%,0%,0%);stroke-opacity:1;stroke-miterlimit:10;" d="M 1096.019531 515.957031 L 1148.230469 515.957031 L 1148.230469 471.359375 L 1096.019531 471.359375 Z M 1096.019531 515.957031 "/>
<path style="fill-rule:nonzero;fill:rgb(99.607843%,99.607843%,99.607843%);fill-opacity:1;stroke-width:1.5;stroke-linecap:round;stroke-linejoin:round;stroke:rgb(0%,0%,0%);stroke-opacity:1;stroke-miterlimit:10;" d="M 1096.019531 640.8125 L 1148.230469 640.8125 L 1148.230469 599.945313 L 1096.019531 599.945313 Z M 1096.019531 640.8125 "/>
<path style="fill-rule:nonzero;fill:rgb(94.509804%,80.784314%,83.529412%);fill-opacity:1;stroke-width:1.5;stroke-linecap:round;stroke-linejoin:round;stroke:rgb(0%,0%,0%);stroke-opacity:1;stroke-miterlimit:10;" d="M 392.027344 414.261719 L 542.308594 414.261719 L 542.308594 243.539063 L 392.027344 243.539063 Z M 392.027344 414.261719 "/>
<path style="fill-rule:nonzero;fill:rgb(96.862745%,89.803922%,91.372549%);fill-opacity:1;stroke-width:1.5;stroke-linecap:round;stroke-linejoin:round;stroke:rgb(0%,0%,0%);stroke-opacity:1;stroke-miterlimit:10;" d="M 1296.976563 636.285156 L 1316.828125 636.285156 L 1316.828125 616.65625 L 1296.976563 616.65625 Z M 1296.976563 636.285156 "/>
<path style="fill-rule:nonzero;fill:rgb(89.411765%,63.137255%,68.235294%);fill-opacity:1;stroke-width:1.5;stroke-linecap:round;stroke-linejoin:round;stroke:rgb(0%,0%,0%);stroke-opacity:1;stroke-miterlimit:10;" d="M 978.761719 421.902344 L 1048.664063 421.902344 L 1048.664063 351.179688 L 978.761719 351.179688 Z M 978.761719 421.902344 "/>
<path style="fill-rule:nonzero;fill:rgb(99.607843%,98.823529%,99.215686%);fill-opacity:1;stroke-width:1.5;stroke-linecap:round;stroke-linejoin:round;stroke:rgb(0%,0%,0%);stroke-opacity:1;stroke-miterlimit:10;" d="M 1185.929688 650.5625 L 1220.046875 650.5625 L 1220.046875 619.449219 L 1185.929688 619.449219 Z M 1185.929688 650.5625 "/>
<path style="fill-rule:nonzero;fill:rgb(98.039216%,93.72549%,94.509804%);fill-opacity:1;stroke-width:1.5;stroke-linecap:round;stroke-linejoin:round;stroke:rgb(0%,0%,0%);stroke-opacity:1;stroke-miterlimit:10;" d="M 898.023438 552.1875 L 978.761719 552.1875 L 978.761719 486.75 L 898.023438 486.75 Z M 898.023438 552.1875 "/>
<path style="fill-rule:nonzero;fill:rgb(99.607843%,99.607843%,99.607843%);fill-opacity:1;stroke-width:1.5;stroke-linecap:round;stroke-linejoin:round;stroke:rgb(0%,0%,0%);stroke-opacity:1;stroke-miterlimit:10;" d="M 978.761719 621.9375 L 1048.664063 621.9375 L 1048.664063 560.078125 L 978.761719 560.078125 Z M 978.761719 621.9375 "/>
<path style="fill-rule:nonzero;fill:rgb(98.039216%,94.117647%,94.901961%);fill-opacity:1;stroke-width:1.5;stroke-linecap:round;stroke-linejoin:round;stroke:rgb(0%,0%,0%);stroke-opacity:1;stroke-miterlimit:10;" d="M 1285.277344 584.523438 L 1316.828125 584.523438 L 1316.828125 555.226563 L 1285.277344 555.226563 Z M 1285.277344 584.523438 "/>
<path style="fill-rule:nonzero;fill:rgb(98.431373%,94.901961%,95.686275%);fill-opacity:1;stroke-width:1.5;stroke-linecap:round;stroke-linejoin:round;stroke:rgb(0%,0%,0%);stroke-opacity:1;stroke-miterlimit:10;" d="M 1025.789063 163.734375 L 1132.046875 163.734375 L 1132.046875 69.085938 L 1025.789063 69.085938 Z M 1025.789063 163.734375 "/>
<path style="fill-rule:nonzero;fill:rgb(92.54902%,74.901961%,78.431373%);fill-opacity:1;stroke-width:1.5;stroke-linecap:round;stroke-linejoin:round;stroke:rgb(0%,0%,0%);stroke-opacity:1;stroke-miterlimit:10;" d="M 1235.523438 260.960938 L 1316.828125 260.960938 L 1316.828125 163.734375 L 1235.523438 163.734375 Z M 1235.523438 260.960938 "/>
<path style="fill-rule:nonzero;fill:rgb(80.784314%,32.156863%,41.960784%);fill-opacity:1;stroke-width:1.5;stroke-linecap:round;stroke-linejoin:round;stroke:rgb(0%,0%,0%);stroke-opacity:1;stroke-miterlimit:10;" d="M 978.761719 680.914063 L 1048.664063 680.914063 L 1048.664063 621.9375 L 978.761719 621.9375 Z M 978.761719 680.914063 "/>
<path style="fill-rule:nonzero;fill:rgb(98.823529%,96.862745%,97.254902%);fill-opacity:1;stroke-width:1.5;stroke-linecap:round;stroke-linejoin:round;stroke:rgb(0%,0%,0%);stroke-opacity:1;stroke-miterlimit:10;" d="M 975.65625 351.179688 L 1048.226563 351.179688 L 1048.226563 260.960938 L 975.65625 260.960938 Z M 975.65625 351.179688 "/>
<path style="fill-rule:nonzero;fill:rgb(96.470588%,87.843137%,89.411765%);fill-opacity:1;stroke-width:1.5;stroke-linecap:round;stroke-linejoin:round;stroke:rgb(0%,0%,0%);stroke-opacity:1;stroke-miterlimit:10;" d="M 1253.972656 351.179688 L 1316.828125 351.179688 L 1316.828125 260.960938 L 1253.972656 260.960938 Z M 1253.972656 351.179688 "/>
<path style="fill-rule:nonzero;fill:rgb(98.431373%,94.509804%,95.294118%);fill-opacity:1;stroke-width:1.5;stroke-linecap:round;stroke-linejoin:round;stroke:rgb(0%,0%,0%);stroke-opacity:1;stroke-miterlimit:10;" d="M 1192.707031 515.335938 L 1235.941406 515.335938 L 1235.941406 471.359375 L 1192.707031 471.359375 Z M 1192.707031 515.335938 "/>
<path style="fill-rule:nonzero;fill:rgb(85.098039%,47.45098%,54.901961%);fill-opacity:1;stroke-width:1.5;stroke-linecap:round;stroke-linejoin:round;stroke:rgb(0%,0%,0%);stroke-opacity:1;stroke-miterlimit:10;" d="M 1148.234375 680.914063 L 1185.929688 680.914063 L 1185.929688 643.273438 L 1148.234375 643.273438 Z M 1148.234375 680.914063 "/>
<path style="fill-rule:nonzero;fill:rgb(92.156863%,72.156863%,76.078431%);fill-opacity:1;stroke-width:1.5;stroke-linecap:round;stroke-linejoin:round;stroke:rgb(0%,0%,0%);stroke-opacity:1;stroke-miterlimit:10;" d="M 1168.585938 471.359375 L 1223.035156 471.359375 L 1223.035156 410.285156 L 1168.585938 410.285156 Z M 1168.585938 471.359375 "/>
<path style="fill-rule:nonzero;fill:rgb(99.607843%,99.215686%,99.215686%);fill-opacity:1;stroke-width:1.5;stroke-linecap:round;stroke-linejoin:round;stroke:rgb(0%,0%,0%);stroke-opacity:1;stroke-miterlimit:10;" d="M 1248.089844 640.148438 L 1276.9375 640.148438 L 1276.9375 616.660156 L 1248.089844 616.660156 Z M 1248.089844 640.148438 "/>
<path style="fill-rule:nonzero;fill:rgb(99.215686%,97.254902%,97.647059%);fill-opacity:1;stroke-width:1.5;stroke-linecap:round;stroke-linejoin:round;stroke:rgb(0%,0%,0%);stroke-opacity:1;stroke-miterlimit:10;" d="M 687.542969 407.691406 L 808.324219 407.691406 L 808.324219 299.613281 L 687.542969 299.613281 Z M 687.542969 407.691406 "/>
<path style="fill-rule:nonzero;fill:rgb(98.823529%,95.686275%,96.470588%);fill-opacity:1;stroke-width:1.5;stroke-linecap:round;stroke-linejoin:round;stroke:rgb(0%,0%,0%);stroke-opacity:1;stroke-miterlimit:10;" d="M 1048.226563 351.179688 L 1119.292969 351.179688 L 1119.292969 260.960938 L 1048.226563 260.960938 Z M 1048.226563 351.179688 "/>
<path style="fill-rule:nonzero;fill:rgb(87.45098%,56.862745%,62.745098%);fill-opacity:1;stroke-width:1.5;stroke-linecap:round;stroke-linejoin:round;stroke:rgb(0%,0%,0%);stroke-opacity:1;stroke-miterlimit:10;" d="M 1285.039063 555.226563 L 1316.828125 555.226563 L 1316.828125 515.335938 L 1285.039063 515.335938 Z M 1285.039063 555.226563 "/>
<path style="fill-rule:nonzero;fill:rgb(93.333333%,77.647059%,80.784314%);fill-opacity:1;stroke-width:1.5;stroke-linecap:round;stroke-linejoin:round;stroke:rgb(0%,0%,0%);stroke-opacity:1;stroke-miterlimit:10;" d="M 1221.121094 555.226563 L 1253.246094 555.226563 L 1253.246094 515.335938 L 1221.121094 515.335938 Z M 1221.121094 555.226563 "/>
<path style="fill-rule:nonzero;fill:rgb(99.607843%,98.823529%,98.823529%);fill-opacity:1;stroke-width:1.5;stroke-linecap:round;stroke-linejoin:round;stroke:rgb(0%,0%,0%);stroke-opacity:1;stroke-miterlimit:10;" d="M 1248.089844 680.914063 L 1276.9375 680.914063 L 1276.9375 661.09375 L 1248.089844 661.09375 Z M 1248.089844 680.914063 "/>
<path style="fill-rule:nonzero;fill:rgb(92.156863%,72.941176%,76.862745%);fill-opacity:1;stroke-width:1.5;stroke-linecap:round;stroke-linejoin:round;stroke:rgb(0%,0%,0%);stroke-opacity:1;stroke-miterlimit:10;" d="M 542.304688 680.914063 L 687.539063 680.914063 L 687.539063 574.917969 L 542.304688 574.917969 Z M 542.304688 680.914063 "/>
<path style="fill-rule:nonzero;fill:rgb(98.431373%,94.901961%,95.686275%);fill-opacity:1;stroke-width:1.5;stroke-linecap:round;stroke-linejoin:round;stroke:rgb(0%,0%,0%);stroke-opacity:1;stroke-miterlimit:10;" d="M 1185.929688 587.511719 L 1220.046875 587.511719 L 1220.046875 555.226563 L 1185.929688 555.226563 Z M 1185.929688 587.511719 "/>
<path style="fill-rule:nonzero;fill:rgb(99.607843%,98.431373%,98.823529%);fill-opacity:1;stroke-width:1.5;stroke-linecap:round;stroke-linejoin:round;stroke:rgb(0%,0%,0%);stroke-opacity:1;stroke-miterlimit:10;" d="M 1148.234375 643.273438 L 1185.929688 643.273438 L 1185.929688 603.015625 L 1148.234375 603.015625 Z M 1148.234375 643.273438 "/>
<path style="fill-rule:nonzero;fill:rgb(73.333333%,7.058824%,20.392157%);fill-opacity:1;stroke-width:1.5;stroke-linecap:round;stroke-linejoin:round;stroke:rgb(0%,0%,0%);stroke-opacity:1;stroke-miterlimit:10;" d="M 542.304688 332.101563 L 687.539063 332.101563 L 687.539063 203.316406 L 542.304688 203.316406 Z M 542.304688 332.101563 "/>
<path style="fill-rule:nonzero;fill:rgb(98.823529%,96.078431%,96.470588%);fill-opacity:1;stroke-width:1.5;stroke-linecap:round;stroke-linejoin:round;stroke:rgb(0%,0%,0%);stroke-opacity:1;stroke-miterlimit:10;" d="M 1148.234375 603.011719 L 1185.929688 603.011719 L 1185.929688 559.832031 L 1148.234375 559.832031 Z M 1148.234375 603.011719 "/>
<path style="fill-rule:nonzero;fill:rgb(99.607843%,99.215686%,99.215686%);fill-opacity:1;stroke-width:1.5;stroke-linecap:round;stroke-linejoin:round;stroke:rgb(0%,0%,0%);stroke-opacity:1;stroke-miterlimit:10;" d="M 1132.046875 163.734375 L 1225.710938 163.734375 L 1225.710938 69.085938 L 1132.046875 69.085938 Z M 1132.046875 163.734375 "/>
<path style="fill-rule:nonzero;fill:rgb(99.607843%,98.823529%,98.823529%);fill-opacity:1;stroke-width:1.5;stroke-linecap:round;stroke-linejoin:round;stroke:rgb(0%,0%,0%);stroke-opacity:1;stroke-miterlimit:10;" d="M 1277.992188 515.335938 L 1316.824219 515.335938 L 1316.824219 471.359375 L 1277.992188 471.359375 Z M 1277.992188 515.335938 "/>
<path style="fill-rule:nonzero;fill:rgb(94.117647%,79.607843%,82.352941%);fill-opacity:1;stroke-width:1.5;stroke-linecap:round;stroke-linejoin:round;stroke:rgb(0%,0%,0%);stroke-opacity:1;stroke-miterlimit:10;" d="M 182.171875 552.410156 L 392.023438 552.410156 L 392.023438 416.554688 L 182.171875 416.554688 Z M 182.171875 552.410156 "/>
<path style="fill-rule:nonzero;fill:rgb(99.607843%,98.431373%,98.823529%);fill-opacity:1;stroke-width:1.5;stroke-linecap:round;stroke-linejoin:round;stroke:rgb(0%,0%,0%);stroke-opacity:1;stroke-miterlimit:10;" d="M 1294.992188 616.65625 L 1316.828125 616.65625 L 1316.828125 584.519531 L 1294.992188 584.519531 Z M 1294.992188 616.65625 "/>
<path style="fill-rule:nonzero;fill:rgb(99.215686%,97.647059%,98.039216%);fill-opacity:1;stroke-width:1.5;stroke-linecap:round;stroke-linejoin:round;stroke:rgb(0%,0%,0%);stroke-opacity:1;stroke-miterlimit:10;" d="M 1271.832031 616.65625 L 1294.992188 616.65625 L 1294.992188 584.519531 L 1271.832031 584.519531 Z M 1271.832031 616.65625 "/>
<path style="fill-rule:nonzero;fill:rgb(93.333333%,76.470588%,80%);fill-opacity:1;stroke-width:1.5;stroke-linecap:round;stroke-linejoin:round;stroke:rgb(0%,0%,0%);stroke-opacity:1;stroke-miterlimit:10;" d="M 1220.042969 616.808594 L 1248.089844 616.808594 L 1248.089844 584.519531 L 1220.042969 584.519531 Z M 1220.042969 616.808594 "/>
<path style="fill-rule:nonzero;fill:rgb(96.862745%,89.019608%,90.588235%);fill-opacity:1;stroke-width:1.5;stroke-linecap:round;stroke-linejoin:round;stroke:rgb(0%,0%,0%);stroke-opacity:1;stroke-miterlimit:10;" d="M 898.023438 680.914063 L 978.761719 680.914063 L 978.761719 616.800781 L 898.023438 616.800781 Z M 898.023438 680.914063 "/>
<path style="fill-rule:nonzero;fill:rgb(96.862745%,89.019608%,90.588235%);fill-opacity:1;stroke-width:1.5;stroke-linecap:round;stroke-linejoin:round;stroke:rgb(0%,0%,0%);stroke-opacity:1;stroke-miterlimit:10;" d="M 687.542969 680.914063 L 808.324219 680.914063 L 808.324219 595.265625 L 687.542969 595.265625 Z M 687.542969 680.914063 "/>
<path style="fill-rule:nonzero;fill:rgb(97.254902%,90.588235%,91.764706%);fill-opacity:1;stroke-width:1.5;stroke-linecap:round;stroke-linejoin:round;stroke:rgb(0%,0%,0%);stroke-opacity:1;stroke-miterlimit:10;" d="M 1117.3125 410.285156 L 1184.558594 410.285156 L 1184.558594 351.179688 L 1117.3125 351.179688 Z M 1117.3125 410.285156 "/>
<path style="fill-rule:nonzero;fill:rgb(90.588235%,67.843137%,72.54902%);fill-opacity:1;stroke-width:1.5;stroke-linecap:round;stroke-linejoin:round;stroke:rgb(0%,0%,0%);stroke-opacity:1;stroke-miterlimit:10;" d="M 1248.089844 616.65625 L 1271.832031 616.65625 L 1271.832031 584.519531 L 1248.089844 584.519531 Z M 1248.089844 616.65625 "/>
<path style="fill-rule:nonzero;fill:rgb(92.54902%,74.509804%,78.039216%);fill-opacity:1;stroke-width:1.5;stroke-linecap:round;stroke-linejoin:round;stroke:rgb(0%,0%,0%);stroke-opacity:1;stroke-miterlimit:10;" d="M 978.761719 491.488281 L 1048.664063 491.488281 L 1048.664063 421.902344 L 978.761719 421.902344 Z M 978.761719 491.488281 "/>
<path style="fill-rule:nonzero;fill:rgb(98.823529%,96.862745%,97.254902%);fill-opacity:1;stroke-width:1.5;stroke-linecap:round;stroke-linejoin:round;stroke:rgb(0%,0%,0%);stroke-opacity:1;stroke-miterlimit:10;" d="M 1220.042969 680.914063 L 1248.089844 680.914063 L 1248.089844 648.980469 L 1220.042969 648.980469 Z M 1220.042969 680.914063 "/>
<path style="fill-rule:nonzero;fill:rgb(85.882353%,50.588235%,57.647059%);fill-opacity:1;stroke-width:1.5;stroke-linecap:round;stroke-linejoin:round;stroke:rgb(0%,0%,0%);stroke-opacity:1;stroke-miterlimit:10;" d="M 983.421875 260.960938 L 1070.511719 260.960938 L 1070.511719 163.734375 L 983.421875 163.734375 Z M 983.421875 260.960938 "/>
<path style="fill-rule:nonzero;fill:rgb(95.686275%,85.882353%,87.843137%);fill-opacity:1;stroke-width:1.5;stroke-linecap:round;stroke-linejoin:round;stroke:rgb(0%,0%,0%);stroke-opacity:1;stroke-miterlimit:10;" d="M 978.761719 560.078125 L 1048.664063 560.078125 L 1048.664063 491.488281 L 978.761719 491.488281 Z M 978.761719 560.078125 "/>
<path style="fill-rule:nonzero;fill:rgb(96.862745%,89.803922%,91.372549%);fill-opacity:1;stroke-width:1.5;stroke-linecap:round;stroke-linejoin:round;stroke:rgb(0%,0%,0%);stroke-opacity:1;stroke-miterlimit:10;" d="M 182.171875 416.550781 L 392.023438 416.550781 L 392.023438 247.246094 L 182.171875 247.246094 Z M 182.171875 416.550781 "/>
<path style="fill-rule:nonzero;fill:rgb(98.431373%,94.509804%,95.294118%);fill-opacity:1;stroke-width:1.5;stroke-linecap:round;stroke-linejoin:round;stroke:rgb(0%,0%,0%);stroke-opacity:1;stroke-miterlimit:10;" d="M 392.027344 680.914063 L 542.308594 680.914063 L 542.308594 550.308594 L 392.027344 550.308594 Z M 392.027344 680.914063 "/>
<path style="fill-rule:nonzero;fill:rgb(99.607843%,99.215686%,99.607843%);fill-opacity:1;stroke-width:1.5;stroke-linecap:round;stroke-linejoin:round;stroke:rgb(0%,0%,0%);stroke-opacity:1;stroke-miterlimit:10;" d="M 1253.695313 584.523438 L 1285.277344 584.523438 L 1285.277344 555.226563 L 1253.695313 555.226563 Z M 1253.695313 584.523438 "/>
<path style="fill-rule:nonzero;fill:rgb(99.607843%,98.431373%,98.823529%);fill-opacity:1;stroke-width:1.5;stroke-linecap:round;stroke-linejoin:round;stroke:rgb(0%,0%,0%);stroke-opacity:1;stroke-miterlimit:10;" d="M 687.542969 509.019531 L 808.324219 509.019531 L 808.324219 407.695313 L 687.542969 407.695313 Z M 687.542969 509.019531 "/>
<path style="fill-rule:nonzero;fill:rgb(99.607843%,99.607843%,99.607843%);fill-opacity:1;stroke-width:1.5;stroke-linecap:round;stroke-linejoin:round;stroke:rgb(0%,0%,0%);stroke-opacity:1;stroke-miterlimit:10;" d="M 917.476563 163.734375 L 1025.792969 163.734375 L 1025.792969 69.085938 L 917.476563 69.085938 Z M 917.476563 163.734375 "/>
<path style="fill-rule:nonzero;fill:rgb(99.607843%,99.607843%,99.607843%);fill-opacity:1;stroke-width:1.5;stroke-linecap:round;stroke-linejoin:round;stroke:rgb(0%,0%,0%);stroke-opacity:1;stroke-miterlimit:10;" d="M 1185.929688 680.914063 L 1220.046875 680.914063 L 1220.046875 650.5625 L 1185.929688 650.5625 Z M 1185.929688 680.914063 "/>
<path style="fill-rule:nonzero;fill:rgb(92.156863%,72.156863%,76.078431%);fill-opacity:1;stroke-width:1.5;stroke-linecap:round;stroke-linejoin:round;stroke:rgb(0%,0%,0%);stroke-opacity:1;stroke-miterlimit:10;" d="M 392.027344 243.539063 L 542.308594 243.539063 L 542.308594 69.085938 L 392.027344 69.085938 Z M 392.027344 243.539063 "/>
<path style="fill-rule:nonzero;fill:rgb(99.215686%,97.647059%,97.647059%);fill-opacity:1;stroke-width:1.5;stroke-linecap:round;stroke-linejoin:round;stroke:rgb(0%,0%,0%);stroke-opacity:1;stroke-miterlimit:10;" d="M 1270.261719 471.359375 L 1316.828125 471.359375 L 1316.828125 410.285156 L 1270.261719 410.285156 Z M 1270.261719 471.359375 "/>
<path style="fill-rule:nonzero;fill:rgb(95.294118%,84.313725%,86.666667%);fill-opacity:1;stroke-width:1.5;stroke-linecap:round;stroke-linejoin:round;stroke:rgb(0%,0%,0%);stroke-opacity:1;stroke-miterlimit:10;" d="M 1111.195313 471.359375 L 1168.585938 471.359375 L 1168.585938 410.285156 L 1111.195313 410.285156 Z M 1111.195313 471.359375 "/>
<path style="fill-rule:nonzero;fill:rgb(87.45098%,56.470588%,62.745098%);fill-opacity:1;stroke-width:1.5;stroke-linecap:round;stroke-linejoin:round;stroke:rgb(0%,0%,0%);stroke-opacity:1;stroke-miterlimit:10;" d="M 1048.664063 629.976563 L 1096.019531 629.976563 L 1096.019531 578.234375 L 1048.664063 578.234375 Z M 1048.664063 629.976563 "/>
<path style="fill-rule:nonzero;fill:rgb(83.529412%,42.352941%,50.980392%);fill-opacity:1;stroke-width:1.5;stroke-linecap:round;stroke-linejoin:round;stroke:rgb(0%,0%,0%);stroke-opacity:1;stroke-miterlimit:10;" d="M 1184.558594 410.285156 L 1250.8125 410.285156 L 1250.8125 351.179688 L 1184.558594 351.179688 Z M 1184.558594 410.285156 "/>
<path style="fill-rule:nonzero;fill:rgb(99.607843%,99.607843%,99.607843%);fill-opacity:1;stroke-width:1.5;stroke-linecap:round;stroke-linejoin:round;stroke:rgb(0%,0%,0%);stroke-opacity:1;stroke-miterlimit:10;" d="M 1096.019531 558.109375 L 1148.230469 558.109375 L 1148.230469 515.957031 L 1096.019531 515.957031 Z M 1096.019531 558.109375 "/>
<path style="fill-rule:nonzero;fill:rgb(72.941176%,4.705882%,18.431373%);fill-opacity:1;stroke-width:1.5;stroke-linecap:round;stroke-linejoin:round;stroke:rgb(0%,0%,0%);stroke-opacity:1;stroke-miterlimit:10;" d="M 898.023438 616.796875 L 978.761719 616.796875 L 978.761719 552.1875 L 898.023438 552.1875 Z M 898.023438 616.796875 "/>
<path style="fill-rule:nonzero;fill:rgb(81.176471%,34.117647%,43.529412%);fill-opacity:1;stroke-width:1.5;stroke-linecap:round;stroke-linejoin:round;stroke:rgb(0%,0%,0%);stroke-opacity:1;stroke-miterlimit:10;" d="M 808.324219 260.960938 L 895.976563 260.960938 L 895.976563 163.734375 L 808.324219 163.734375 Z M 808.324219 260.960938 "/>
<path style="fill-rule:nonzero;fill:rgb(90.588235%,67.45098%,72.156863%);fill-opacity:1;stroke-width:1.5;stroke-linecap:round;stroke-linejoin:round;stroke:rgb(0%,0%,0%);stroke-opacity:1;stroke-miterlimit:10;" d="M 808.324219 163.734375 L 917.476563 163.734375 L 917.476563 69.085938 L 808.324219 69.085938 Z M 808.324219 163.734375 "/>
<path style="fill-rule:nonzero;fill:rgb(96.078431%,86.666667%,88.235294%);fill-opacity:1;stroke-width:1.5;stroke-linecap:round;stroke-linejoin:round;stroke:rgb(0%,0%,0%);stroke-opacity:1;stroke-miterlimit:10;" d="M 1048.664063 680.914063 L 1096.019531 680.914063 L 1096.019531 629.976563 L 1048.664063 629.976563 Z M 1048.664063 680.914063 "/>
<path style="fill-rule:nonzero;fill:rgb(99.607843%,99.607843%,99.607843%);fill-opacity:1;stroke-width:1.5;stroke-linecap:round;stroke-linejoin:round;stroke:rgb(0%,0%,0%);stroke-opacity:1;stroke-miterlimit:10;" d="M 1253.246094 555.226563 L 1285.039063 555.226563 L 1285.039063 515.335938 L 1253.246094 515.335938 Z M 1253.246094 555.226563 "/>
<path style="fill-rule:nonzero;fill:rgb(99.607843%,99.215686%,99.215686%);fill-opacity:1;stroke-width:1.5;stroke-linecap:round;stroke-linejoin:round;stroke:rgb(0%,0%,0%);stroke-opacity:1;stroke-miterlimit:10;" d="M 898.023438 420.265625 L 978.761719 420.265625 L 978.761719 351.179688 L 898.023438 351.179688 Z M 898.023438 420.265625 "/>
<path style="fill-rule:nonzero;fill:rgb(94.901961%,82.745098%,85.098039%);fill-opacity:1;stroke-width:1.5;stroke-linecap:round;stroke-linejoin:round;stroke:rgb(0%,0%,0%);stroke-opacity:1;stroke-miterlimit:10;" d="M 1185.929688 619.449219 L 1220.046875 619.449219 L 1220.046875 587.511719 L 1185.929688 587.511719 Z M 1185.929688 619.449219 "/>
<path style="fill-rule:nonzero;fill:rgb(99.607843%,99.607843%,99.607843%);fill-opacity:1;stroke-width:1.5;stroke-linecap:round;stroke-linejoin:round;stroke:rgb(0%,0%,0%);stroke-opacity:1;stroke-miterlimit:10;" d="M 1048.664063 525.929688 L 1096.019531 525.929688 L 1096.019531 471.359375 L 1048.664063 471.359375 Z M 1048.664063 525.929688 "/>
<path style="fill-rule:nonzero;fill:rgb(99.607843%,99.607843%,99.607843%);fill-opacity:1;stroke-width:1.5;stroke-linecap:round;stroke-linejoin:round;stroke:rgb(0%,0%,0%);stroke-opacity:1;stroke-miterlimit:10;" d="M 1220.042969 584.523438 L 1253.691406 584.523438 L 1253.691406 555.226563 L 1220.042969 555.226563 Z M 1220.042969 584.523438 "/>
<path style="fill-rule:nonzero;fill:rgb(99.607843%,99.215686%,99.215686%);fill-opacity:1;stroke-width:1.5;stroke-linecap:round;stroke-linejoin:round;stroke:rgb(0%,0%,0%);stroke-opacity:1;stroke-miterlimit:10;" d="M 542.304688 574.914063 L 687.539063 574.914063 L 687.539063 454.308594 L 542.304688 454.308594 Z M 542.304688 574.914063 "/>
<path style="fill-rule:nonzero;fill:rgb(87.058824%,55.294118%,61.568627%);fill-opacity:1;stroke-width:1.5;stroke-linecap:round;stroke-linejoin:round;stroke:rgb(0%,0%,0%);stroke-opacity:1;stroke-miterlimit:10;" d="M 542.304688 454.308594 L 687.539063 454.308594 L 687.539063 332.101563 L 542.304688 332.101563 Z M 542.304688 454.308594 "/>
<path style="fill-rule:nonzero;fill:rgb(96.862745%,89.803922%,91.372549%);fill-opacity:1;stroke-width:1.5;stroke-linecap:round;stroke-linejoin:round;stroke:rgb(0%,0%,0%);stroke-opacity:1;stroke-miterlimit:10;" d="M 1096.019531 599.945313 L 1148.230469 599.945313 L 1148.230469 558.105469 L 1096.019531 558.105469 Z M 1096.019531 599.945313 "/>
<path style="fill-rule:nonzero;fill:rgb(96.862745%,89.019608%,90.588235%);fill-opacity:1;stroke-width:1.5;stroke-linecap:round;stroke-linejoin:round;stroke:rgb(0%,0%,0%);stroke-opacity:1;stroke-miterlimit:10;" d="M 808.324219 433.609375 L 898.023438 433.609375 L 898.023438 348.496094 L 808.324219 348.496094 Z M 808.324219 433.609375 "/>
<path style="fill-rule:nonzero;fill:rgb(98.431373%,95.686275%,96.078431%);fill-opacity:1;stroke-width:1.5;stroke-linecap:round;stroke-linejoin:round;stroke:rgb(0%,0%,0%);stroke-opacity:1;stroke-miterlimit:10;" d="M 1048.664063 471.359375 L 1111.195313 471.359375 L 1111.195313 410.285156 L 1048.664063 410.285156 Z M 1048.664063 471.359375 "/>
<path style="fill-rule:nonzero;fill:rgb(94.117647%,79.607843%,82.352941%);fill-opacity:1;stroke-width:1.5;stroke-linecap:round;stroke-linejoin:round;stroke:rgb(0%,0%,0%);stroke-opacity:1;stroke-miterlimit:10;" d="M 1189.238281 351.179688 L 1253.972656 351.179688 L 1253.972656 260.960938 L 1189.238281 260.960938 Z M 1189.238281 351.179688 "/>
<path style="fill-rule:nonzero;fill:rgb(85.490196%,49.019608%,56.078431%);fill-opacity:1;stroke-width:1.5;stroke-linecap:round;stroke-linejoin:round;stroke:rgb(0%,0%,0%);stroke-opacity:1;stroke-miterlimit:10;" d="M 542.304688 203.316406 L 687.539063 203.316406 L 687.539063 69.085938 L 542.304688 69.085938 Z M 542.304688 203.316406 "/>
<path style="fill-rule:nonzero;fill:rgb(98.823529%,96.078431%,96.470588%);fill-opacity:1;stroke-width:1.5;stroke-linecap:round;stroke-linejoin:round;stroke:rgb(0%,0%,0%);stroke-opacity:1;stroke-miterlimit:10;" d="M 392.027344 550.308594 L 542.308594 550.308594 L 542.308594 414.261719 L 392.027344 414.261719 Z M 392.027344 550.308594 "/>
<path style="fill-rule:nonzero;fill:rgb(99.215686%,97.647059%,98.039216%);fill-opacity:1;stroke-width:1.5;stroke-linecap:round;stroke-linejoin:round;stroke:rgb(0%,0%,0%);stroke-opacity:1;stroke-miterlimit:10;" d="M 1276.9375 654.261719 L 1298.433594 654.261719 L 1298.433594 636.289063 L 1276.9375 636.289063 Z M 1276.9375 654.261719 "/>
<path style="fill-rule:nonzero;fill:rgb(99.215686%,97.647059%,98.039216%);fill-opacity:1;stroke-width:1.5;stroke-linecap:round;stroke-linejoin:round;stroke:rgb(0%,0%,0%);stroke-opacity:1;stroke-miterlimit:10;" d="M 898.023438 486.75 L 978.761719 486.75 L 978.761719 420.265625 L 898.023438 420.265625 Z M 898.023438 486.75 "/>
<path style="fill-rule:nonzero;fill:rgb(98.823529%,96.470588%,96.862745%);fill-opacity:1;stroke-width:1.5;stroke-linecap:round;stroke-linejoin:round;stroke:rgb(0%,0%,0%);stroke-opacity:1;stroke-miterlimit:10;" d="M 1185.929688 555.226563 L 1221.121094 555.226563 L 1221.121094 515.335938 L 1185.929688 515.335938 Z M 1185.929688 555.226563 "/>
<path style="fill-rule:nonzero;fill:rgb(99.215686%,98.431373%,98.431373%);fill-opacity:1;stroke-width:1.5;stroke-linecap:round;stroke-linejoin:round;stroke:rgb(0%,0%,0%);stroke-opacity:1;stroke-miterlimit:10;" d="M 1250.808594 410.285156 L 1316.824219 410.285156 L 1316.824219 351.179688 L 1250.808594 351.179688 Z M 1250.808594 410.285156 "/>
<path style="fill-rule:nonzero;fill:rgb(97.647059%,92.156863%,93.333333%);fill-opacity:1;stroke-width:1.5;stroke-linecap:round;stroke-linejoin:round;stroke:rgb(0%,0%,0%);stroke-opacity:1;stroke-miterlimit:10;" d="M 1070.511719 260.960938 L 1153.035156 260.960938 L 1153.035156 163.734375 L 1070.511719 163.734375 Z M 1070.511719 260.960938 "/>
<path style="fill-rule:nonzero;fill:rgb(85.098039%,48.235294%,55.686275%);fill-opacity:1;stroke-width:1.5;stroke-linecap:round;stroke-linejoin:round;stroke:rgb(0%,0%,0%);stroke-opacity:1;stroke-miterlimit:10;" d="M 1153.035156 260.960938 L 1235.523438 260.960938 L 1235.523438 163.734375 L 1153.035156 163.734375 Z M 1153.035156 260.960938 "/>
<path style="fill-rule:nonzero;fill:rgb(97.647059%,92.54902%,93.72549%);fill-opacity:1;stroke-width:1.5;stroke-linecap:round;stroke-linejoin:round;stroke:rgb(0%,0%,0%);stroke-opacity:1;stroke-miterlimit:10;" d="M 1276.9375 680.914063 L 1295.933594 680.914063 L 1295.933594 669.195313 L 1276.9375 669.195313 Z M 1276.9375 680.914063 "/>
<path style="fill-rule:nonzero;fill:rgb(92.54902%,73.72549%,77.647059%);fill-opacity:1;stroke-width:1.5;stroke-linecap:round;stroke-linejoin:round;stroke:rgb(0%,0%,0%);stroke-opacity:1;stroke-miterlimit:10;" d="M 1276.9375 636.285156 L 1296.976563 636.285156 L 1296.976563 616.65625 L 1276.9375 616.65625 Z M 1276.9375 636.285156 "/>
<path style="fill-rule:nonzero;fill:rgb(93.72549%,78.039216%,81.176471%);fill-opacity:1;stroke-width:1.5;stroke-linecap:round;stroke-linejoin:round;stroke:rgb(0%,0%,0%);stroke-opacity:1;stroke-miterlimit:10;" d="M 808.324219 517.9375 L 898.023438 517.9375 L 898.023438 433.613281 L 808.324219 433.613281 Z M 808.324219 517.9375 "/>
<path style="fill-rule:nonzero;fill:rgb(99.607843%,99.607843%,99.607843%);fill-opacity:1;stroke-width:1.5;stroke-linecap:round;stroke-linejoin:round;stroke:rgb(0%,0%,0%);stroke-opacity:1;stroke-miterlimit:10;" d="M 1295.933594 680.914063 L 1316.828125 680.914063 L 1316.828125 673.164063 L 1295.933594 673.164063 Z M 1295.933594 680.914063 "/>
<path style="fill-rule:nonzero;fill:rgb(89.019608%,62.352941%,67.843137%);fill-opacity:1;stroke-width:1.5;stroke-linecap:round;stroke-linejoin:round;stroke:rgb(0%,0%,0%);stroke-opacity:1;stroke-miterlimit:10;" d="M 1048.664063 410.285156 L 1117.3125 410.285156 L 1117.3125 351.179688 L 1048.664063 351.179688 Z M 1048.664063 410.285156 "/>
<path style="fill-rule:nonzero;fill:rgb(99.607843%,99.607843%,99.607843%);fill-opacity:1;stroke-width:1.5;stroke-linecap:round;stroke-linejoin:round;stroke:rgb(0%,0%,0%);stroke-opacity:1;stroke-miterlimit:10;" d="M 1119.296875 351.179688 L 1189.238281 351.179688 L 1189.238281 260.960938 L 1119.296875 260.960938 Z M 1119.296875 351.179688 "/>
<path style="fill-rule:nonzero;fill:rgb(99.215686%,97.647059%,97.647059%);fill-opacity:1;stroke-width:1.5;stroke-linecap:round;stroke-linejoin:round;stroke:rgb(0%,0%,0%);stroke-opacity:1;stroke-miterlimit:10;" d="M 687.542969 595.265625 L 808.324219 595.265625 L 808.324219 509.019531 L 687.542969 509.019531 Z M 687.542969 595.265625 "/>
<path style="fill-rule:nonzero;fill:rgb(99.607843%,98.823529%,99.215686%);fill-opacity:1;stroke-width:1.5;stroke-linecap:round;stroke-linejoin:round;stroke:rgb(0%,0%,0%);stroke-opacity:1;stroke-miterlimit:10;" d="M 898.023438 351.179688 L 975.660156 351.179688 L 975.660156 260.960938 L 898.023438 260.960938 Z M 898.023438 351.179688 "/>
<path style="fill-rule:nonzero;fill:rgb(97.254902%,90.980392%,92.156863%);fill-opacity:1;stroke-width:1.5;stroke-linecap:round;stroke-linejoin:round;stroke:rgb(0%,0%,0%);stroke-opacity:1;stroke-miterlimit:10;" d="M 1225.710938 163.734375 L 1316.824219 163.734375 L 1316.824219 69.085938 L 1225.710938 69.085938 Z M 1225.710938 163.734375 "/>
<path style="fill-rule:nonzero;fill:rgb(97.647059%,92.941176%,93.72549%);fill-opacity:1;stroke-width:1.5;stroke-linecap:round;stroke-linejoin:round;stroke:rgb(0%,0%,0%);stroke-opacity:1;stroke-miterlimit:10;" d="M 1295.933594 673.164063 L 1307.558594 673.164063 L 1307.558594 654.261719 L 1295.933594 654.261719 Z M 1295.933594 673.164063 "/>
<path style="fill-rule:nonzero;fill:rgb(91.372549%,69.411765%,73.72549%);fill-opacity:1;stroke-width:1.5;stroke-linecap:round;stroke-linejoin:round;stroke:rgb(0%,0%,0%);stroke-opacity:1;stroke-miterlimit:10;" d="M 1220.042969 648.980469 L 1248.089844 648.980469 L 1248.089844 616.808594 L 1220.042969 616.808594 Z M 1220.042969 648.980469 "/>
<path style="fill-rule:nonzero;fill:rgb(99.607843%,99.607843%,99.607843%);fill-opacity:1;stroke-width:1.5;stroke-linecap:round;stroke-linejoin:round;stroke:rgb(0%,0%,0%);stroke-opacity:1;stroke-miterlimit:10;" d="M 687.542969 188.070313 L 808.324219 188.070313 L 808.324219 69.085938 L 687.542969 69.085938 Z M 687.542969 188.070313 "/>
<path style="fill-rule:nonzero;fill:rgb(99.215686%,97.647059%,98.039216%);fill-opacity:1;stroke-width:1.5;stroke-linecap:round;stroke-linejoin:round;stroke:rgb(0%,0%,0%);stroke-opacity:1;stroke-miterlimit:10;" d="M 1223.035156 471.359375 L 1270.257813 471.359375 L 1270.257813 410.285156 L 1223.035156 410.285156 Z M 1223.035156 471.359375 "/>
<path style="fill-rule:nonzero;fill:rgb(92.54902%,74.509804%,78.039216%);fill-opacity:1;stroke-width:1.5;stroke-linecap:round;stroke-linejoin:round;stroke:rgb(0%,0%,0%);stroke-opacity:1;stroke-miterlimit:10;" d="M 182.171875 680.914063 L 392.023438 680.914063 L 392.023438 552.410156 L 182.171875 552.410156 Z M 182.171875 680.914063 "/>
<path style="fill-rule:nonzero;fill:rgb(99.607843%,99.607843%,99.607843%);fill-opacity:1;stroke-width:1.5;stroke-linecap:round;stroke-linejoin:round;stroke:rgb(0%,0%,0%);stroke-opacity:1;stroke-miterlimit:10;" d="M 808.324219 680.914063 L 898.023438 680.914063 L 898.023438 599.625 L 808.324219 599.625 Z M 808.324219 680.914063 "/>
<path style="fill-rule:nonzero;fill:rgb(95.686275%,85.098039%,87.058824%);fill-opacity:1;stroke-width:1.5;stroke-linecap:round;stroke-linejoin:round;stroke:rgb(0%,0%,0%);stroke-opacity:1;stroke-miterlimit:10;" d="M 1148.234375 515.335938 L 1192.710938 515.335938 L 1192.710938 471.359375 L 1148.234375 471.359375 Z M 1148.234375 515.335938 "/>
<path style="fill-rule:nonzero;fill:rgb(87.45098%,56.078431%,62.352941%);fill-opacity:1;stroke-width:1.5;stroke-linecap:round;stroke-linejoin:round;stroke:rgb(0%,0%,0%);stroke-opacity:1;stroke-miterlimit:10;" d="M 1148.234375 559.832031 L 1185.929688 559.832031 L 1185.929688 515.335938 L 1148.234375 515.335938 Z M 1148.234375 559.832031 "/>
<path style="fill-rule:nonzero;fill:rgb(99.607843%,99.607843%,99.607843%);fill-opacity:1;stroke-width:1.5;stroke-linecap:round;stroke-linejoin:round;stroke:rgb(0%,0%,0%);stroke-opacity:1;stroke-miterlimit:10;" d="M 808.324219 599.625 L 898.023438 599.625 L 898.023438 517.9375 L 808.324219 517.9375 Z M 808.324219 599.625 "/>
<path style="fill-rule:nonzero;fill:rgb(99.215686%,98.039216%,98.039216%);fill-opacity:1;stroke-width:1.5;stroke-linecap:round;stroke-linejoin:round;stroke:rgb(0%,0%,0%);stroke-opacity:1;stroke-miterlimit:10;" d="M 1307.558594 673.164063 L 1316.828125 673.164063 L 1316.828125 654.261719 L 1307.558594 654.261719 Z M 1307.558594 673.164063 "/>
<path style="fill-rule:nonzero;fill:rgb(93.333333%,77.254902%,80.392157%);fill-opacity:1;stroke-width:1.5;stroke-linecap:round;stroke-linejoin:round;stroke:rgb(0%,0%,0%);stroke-opacity:1;stroke-miterlimit:10;" d="M 687.542969 299.613281 L 808.324219 299.613281 L 808.324219 188.070313 L 687.542969 188.070313 Z M 687.542969 299.613281 "/>
<path style="fill-rule:nonzero;fill:rgb(99.607843%,99.607843%,99.607843%);fill-opacity:1;stroke-width:1.5;stroke-linecap:round;stroke-linejoin:round;stroke:rgb(0%,0%,0%);stroke-opacity:1;stroke-miterlimit:10;" d="M 1298.429688 654.261719 L 1316.824219 654.261719 L 1316.824219 636.289063 L 1298.429688 636.289063 Z M 1298.429688 654.261719 "/>
<path style="fill-rule:nonzero;fill:rgb(98.039216%,92.941176%,94.117647%);fill-opacity:1;stroke-width:1.5;stroke-linecap:round;stroke-linejoin:round;stroke:rgb(0%,0%,0%);stroke-opacity:1;stroke-miterlimit:10;" d="M 1276.9375 669.191406 L 1295.933594 669.191406 L 1295.933594 654.257813 L 1276.9375 654.257813 Z M 1276.9375 669.191406 "/>
<path style="fill-rule:nonzero;fill:rgb(99.215686%,98.039216%,98.431373%);fill-opacity:1;stroke-width:1.5;stroke-linecap:round;stroke-linejoin:round;stroke:rgb(0%,0%,0%);stroke-opacity:1;stroke-miterlimit:10;" d="M 182.171875 247.246094 L 392.023438 247.246094 L 392.023438 69.085938 L 182.171875 69.085938 Z M 182.171875 247.246094 "/>
<path style="fill-rule:nonzero;fill:rgb(99.215686%,98.039216%,98.431373%);fill-opacity:1;stroke-width:1.5;stroke-linecap:round;stroke-linejoin:round;stroke:rgb(0%,0%,0%);stroke-opacity:1;stroke-miterlimit:10;" d="M 808.324219 348.496094 L 898.023438 348.496094 L 898.023438 260.960938 L 808.324219 260.960938 Z M 808.324219 348.496094 "/>
<path style="fill-rule:nonzero;fill:rgb(77.254902%,20.784314%,32.156863%);fill-opacity:1;stroke-width:1.5;stroke-linecap:round;stroke-linejoin:round;stroke:rgb(0%,0%,0%);stroke-opacity:1;stroke-miterlimit:10;" d="M 895.976563 260.960938 L 983.421875 260.960938 L 983.421875 163.734375 L 895.976563 163.734375 Z M 895.976563 260.960938 "/>
</g>
</svg>
