<?xml version="1.0" encoding="UTF-8"?>
<svg xmlns="http://www.w3.org/2000/svg" xmlns:xlink="http://www.w3.org/1999/xlink" width="1499pt" height="750pt" viewBox="0 0 1499 750" version="1.1">
<g id="surface21">
<rect x="0" y="0" width="1499" height="750" style="fill:rgb(100%,100%,100%);fill-opacity:1;stroke:none;"/>
<path style="fill-rule:nonzero;fill:rgb(99.607843%,99.215686%,99.215686%);fill-opacity:1;stroke-width:1.5;stroke-linecap:round;stroke-linejoin:round;stroke:rgb(0%,0%,0%);stroke-opacity:1;stroke-miterlimit:10;" d="M 1210.554688 510.351563 L 1282.53125 510.351563 L 1282.53125 439.996094 L 1210.554688 439.996094 Z M 1210.554688 510.351563 "/>
<path style="fill-rule:nonzero;fill:rgb(90.588235%,67.45098%,72.156863%);fill-opacity:1;stroke-width:1.5;stroke-linecap:round;stroke-linejoin:round;stroke:rgb(0%,0%,0%);stroke-opacity:1;stroke-miterlimit:10;" d="M 1413.332031 734.414063 L 1413.828125 734.414063 L 1413.828125 734.167969 L 1413.332031 734.167969 Z M 1413.332031 734.414063 "/>
<path style="fill-rule:nonzero;fill:rgb(80%,80%,80%);fill-opacity:1;stroke-width:1.5;stroke-linecap:round;stroke-linejoin:round;stroke:rgb(0%,0%,0%);stroke-opacity:1;stroke-miterlimit:10;" d="M 1402.371094 723.371094 L 1408.945313 723.371094 L 1408.945313 714.847656 L 1402.371094 714.847656 Z M 1402.371094 723.371094 "/>
<path style="fill-rule:nonzero;fill:rgb(99.607843%,98.823529%,99.215686%);fill-opacity:1;stroke-width:1.5;stroke-linecap:round;stroke-linejoin:round;stroke:rgb(0%,0%,0%);stroke-opacity:1;stroke-miterlimit:10;" d="M 1057.046875 666.460938 L 1137.855469 666.460938 L 1137.855469 591.667969 L 1057.046875 591.667969 Z M 1057.046875 666.460938 "/>
<path style="fill-rule:nonzero;fill:rgb(99.607843%,99.607843%,99.607843%);fill-opacity:1;stroke-width:1.5;stroke-linecap:round;stroke-linejoin:round;stroke:rgb(0%,0%,0%);stroke-opacity:1;stroke-miterlimit:10;" d="M 1137.855469 574.496094 L 1204.414063 574.496094 L 1204.414063 510.351563 L 1137.855469 510.351563 Z M 1137.855469 574.496094 "/>
<path style="fill-rule:nonzero;fill:rgb(94.117647%,80.392157%,83.137255%);fill-opacity:1;stroke-width:1.5;stroke-linecap:round;stroke-linejoin:round;stroke:rgb(0%,0%,0%);stroke-opacity:1;stroke-miterlimit:10;" d="M 1020.1875 239.226563 L 1173.492188 239.226563 L 1173.492188 15.585938 L 1020.1875 15.585938 Z M 1020.1875 239.226563 "/>
<path style="fill-rule:nonzero;fill:rgb(80%,80%,80%);fill-opacity:1;stroke-width:1.5;stroke-linecap:round;stroke-linejoin:round;stroke:rgb(0%,0%,0%);stroke-opacity:1;stroke-miterlimit:10;" d="M 1315.992188 569.121094 L 1366.003906 569.121094 L 1366.003906 510.351563 L 1315.992188 510.351563 Z M 1315.992188 569.121094 "/>
<path style="fill-rule:nonzero;fill:rgb(96.862745%,89.803922%,90.980392%);fill-opacity:1;stroke-width:1.5;stroke-linecap:round;stroke-linejoin:round;stroke:rgb(0%,0%,0%);stroke-opacity:1;stroke-miterlimit:10;" d="M 1363.117188 698.40625 L 1377.519531 698.40625 L 1377.519531 685.464844 L 1363.117188 685.464844 Z M 1363.117188 698.40625 "/>
<path style="fill-rule:nonzero;fill:rgb(89.019608%,61.960784%,67.45098%);fill-opacity:1;stroke-width:1.5;stroke-linecap:round;stroke-linejoin:round;stroke:rgb(0%,0%,0%);stroke-opacity:1;stroke-miterlimit:10;" d="M 1363.078125 685.464844 L 1382.207031 685.464844 L 1382.207031 663.769531 L 1363.078125 663.769531 Z M 1363.078125 685.464844 "/>
<path style="fill-rule:nonzero;fill:rgb(99.607843%,98.823529%,99.215686%);fill-opacity:1;stroke-width:1.5;stroke-linecap:round;stroke-linejoin:round;stroke:rgb(0%,0%,0%);stroke-opacity:1;stroke-miterlimit:10;" d="M 1402.925781 734.414063 L 1408.738281 734.414063 L 1408.738281 729.152344 L 1402.925781 729.152344 Z M 1402.925781 734.414063 "/>
<path style="fill-rule:nonzero;fill:rgb(98.039216%,93.72549%,94.509804%);fill-opacity:1;stroke-width:1.5;stroke-linecap:round;stroke-linejoin:round;stroke:rgb(0%,0%,0%);stroke-opacity:1;stroke-miterlimit:10;" d="M 1366.003906 569.121094 L 1413.824219 569.121094 L 1413.824219 510.351563 L 1366.003906 510.351563 Z M 1366.003906 569.121094 "/>
<path style="fill-rule:nonzero;fill:rgb(99.607843%,99.607843%,99.607843%);fill-opacity:1;stroke-width:1.5;stroke-linecap:round;stroke-linejoin:round;stroke:rgb(0%,0%,0%);stroke-opacity:1;stroke-miterlimit:10;" d="M 1282.53125 510.351563 L 1349.015625 510.351563 L 1349.015625 439.996094 L 1282.53125 439.996094 Z M 1282.53125 510.351563 "/>
<path style="fill-rule:nonzero;fill:rgb(98.039216%,94.117647%,94.901961%);fill-opacity:1;stroke-width:1.5;stroke-linecap:round;stroke-linejoin:round;stroke:rgb(0%,0%,0%);stroke-opacity:1;stroke-miterlimit:10;" d="M 1377.519531 717.769531 L 1387.292969 717.769531 L 1387.292969 708.152344 L 1377.519531 708.152344 Z M 1377.519531 717.769531 "/>
<path style="fill-rule:nonzero;fill:rgb(98.431373%,94.901961%,95.686275%);fill-opacity:1;stroke-width:1.5;stroke-linecap:round;stroke-linejoin:round;stroke:rgb(0%,0%,0%);stroke-opacity:1;stroke-miterlimit:10;" d="M 1347.199219 439.996094 L 1413.828125 439.996094 L 1413.828125 345.507813 L 1347.199219 345.507813 Z M 1347.199219 439.996094 "/>
<path style="fill-rule:nonzero;fill:rgb(80%,30.196078%,40.392157%);fill-opacity:1;stroke-width:1.5;stroke-linecap:round;stroke-linejoin:round;stroke:rgb(0%,0%,0%);stroke-opacity:1;stroke-miterlimit:10;" d="M 1377.519531 708.152344 L 1390 708.152344 L 1390 697.875 L 1377.519531 697.875 Z M 1377.519531 708.152344 "/>
<path style="fill-rule:nonzero;fill:rgb(98.823529%,96.862745%,97.254902%);fill-opacity:1;stroke-width:1.5;stroke-linecap:round;stroke-linejoin:round;stroke:rgb(0%,0%,0%);stroke-opacity:1;stroke-miterlimit:10;" d="M 1392.34375 663.769531 L 1413.828125 663.769531 L 1413.828125 644.015625 L 1392.34375 644.015625 Z M 1392.34375 663.769531 "/>
<path style="fill-rule:nonzero;fill:rgb(96.470588%,87.45098%,89.019608%);fill-opacity:1;stroke-width:1.5;stroke-linecap:round;stroke-linejoin:round;stroke:rgb(0%,0%,0%);stroke-opacity:1;stroke-miterlimit:10;" d="M 1320.335938 734.414063 L 1343.90625 734.414063 L 1343.90625 712.839844 L 1320.335938 712.839844 Z M 1320.335938 734.414063 "/>
<path style="fill-rule:nonzero;fill:rgb(98.431373%,94.509804%,95.294118%);fill-opacity:1;stroke-width:1.5;stroke-linecap:round;stroke-linejoin:round;stroke:rgb(0%,0%,0%);stroke-opacity:1;stroke-miterlimit:10;" d="M 1368.683594 663.769531 L 1392.34375 663.769531 L 1392.34375 644.015625 L 1368.683594 644.015625 Z M 1368.683594 663.769531 "/>
<path style="fill-rule:nonzero;fill:rgb(99.607843%,99.215686%,99.215686%);fill-opacity:1;stroke-width:1.5;stroke-linecap:round;stroke-linejoin:round;stroke:rgb(0%,0%,0%);stroke-opacity:1;stroke-miterlimit:10;" d="M 1413.332031 734.167969 L 1413.828125 734.167969 L 1413.828125 732.636719 L 1413.332031 732.636719 Z M 1413.332031 734.167969 "/>
<path style="fill-rule:nonzero;fill:rgb(99.215686%,97.254902%,97.647059%);fill-opacity:1;stroke-width:1.5;stroke-linecap:round;stroke-linejoin:round;stroke:rgb(0%,0%,0%);stroke-opacity:1;stroke-miterlimit:10;" d="M 85.171875 734.414063 L 574.988281 734.414063 L 574.988281 419.902344 L 85.171875 419.902344 Z M 85.171875 734.414063 "/>
<path style="fill-rule:nonzero;fill:rgb(98.823529%,95.686275%,96.470588%);fill-opacity:1;stroke-width:1.5;stroke-linecap:round;stroke-linejoin:round;stroke:rgb(0%,0%,0%);stroke-opacity:1;stroke-miterlimit:10;" d="M 1317.484375 345.507813 L 1413.828125 345.507813 L 1413.828125 239.226563 L 1317.484375 239.226563 Z M 1317.484375 345.507813 "/>
<path style="fill-rule:nonzero;fill:rgb(87.058824%,55.686275%,61.960784%);fill-opacity:1;stroke-width:1.5;stroke-linecap:round;stroke-linejoin:round;stroke:rgb(0%,0%,0%);stroke-opacity:1;stroke-miterlimit:10;" d="M 1390.421875 697.875 L 1402.242188 697.875 L 1402.242188 685.464844 L 1390.421875 685.464844 Z M 1390.421875 697.875 "/>
<path style="fill-rule:nonzero;fill:rgb(92.156863%,72.156863%,76.078431%);fill-opacity:1;stroke-width:1.5;stroke-linecap:round;stroke-linejoin:round;stroke:rgb(0%,0%,0%);stroke-opacity:1;stroke-miterlimit:10;" d="M 1251.488281 654.324219 L 1286.378906 654.324219 L 1286.378906 613.523438 L 1251.488281 613.523438 Z M 1251.488281 654.324219 "/>
<path style="fill-rule:nonzero;fill:rgb(80%,80%,80%);fill-opacity:1;stroke-width:1.5;stroke-linecap:round;stroke-linejoin:round;stroke:rgb(0%,0%,0%);stroke-opacity:1;stroke-miterlimit:10;" d="M 1395.722656 714.847656 L 1404.96875 714.847656 L 1404.96875 708.152344 L 1395.722656 708.152344 Z M 1395.722656 714.847656 "/>
<path style="fill-rule:nonzero;fill:rgb(99.607843%,98.431373%,98.823529%);fill-opacity:1;stroke-width:1.5;stroke-linecap:round;stroke-linejoin:round;stroke:rgb(0%,0%,0%);stroke-opacity:1;stroke-miterlimit:10;" d="M 1213.167969 345.507813 L 1317.484375 345.507813 L 1317.484375 239.226563 L 1213.167969 239.226563 Z M 1213.167969 345.507813 "/>
<path style="fill-rule:nonzero;fill:rgb(72.941176%,4.705882%,18.431373%);fill-opacity:1;stroke-width:1.5;stroke-linecap:round;stroke-linejoin:round;stroke:rgb(0%,0%,0%);stroke-opacity:1;stroke-miterlimit:10;" d="M 1408.480469 729.152344 L 1413.828125 729.152344 L 1413.828125 723.371094 L 1408.480469 723.371094 Z M 1408.480469 729.152344 "/>
<path style="fill-rule:nonzero;fill:rgb(98.823529%,96.078431%,96.470588%);fill-opacity:1;stroke-width:1.5;stroke-linecap:round;stroke-linejoin:round;stroke:rgb(0%,0%,0%);stroke-opacity:1;stroke-miterlimit:10;" d="M 1279.175781 439.996094 L 1347.199219 439.996094 L 1347.199219 345.507813 L 1279.175781 345.507813 Z M 1279.175781 439.996094 "/>
<path style="fill-rule:nonzero;fill:rgb(99.607843%,99.215686%,99.215686%);fill-opacity:1;stroke-width:1.5;stroke-linecap:round;stroke-linejoin:round;stroke:rgb(0%,0%,0%);stroke-opacity:1;stroke-miterlimit:10;" d="M 827.335938 239.226563 L 1020.1875 239.226563 L 1020.1875 15.585938 L 827.335938 15.585938 Z M 827.335938 239.226563 "/>
<path style="fill-rule:nonzero;fill:rgb(99.607843%,98.431373%,98.823529%);fill-opacity:1;stroke-width:1.5;stroke-linecap:round;stroke-linejoin:round;stroke:rgb(0%,0%,0%);stroke-opacity:1;stroke-miterlimit:10;" d="M 962.417969 452.671875 L 1057.046875 452.671875 L 1057.046875 345.507813 L 962.417969 345.507813 Z M 962.417969 452.671875 "/>
<path style="fill-rule:nonzero;fill:rgb(93.72549%,78.823529%,81.960784%);fill-opacity:1;stroke-width:1.5;stroke-linecap:round;stroke-linejoin:round;stroke:rgb(0%,0%,0%);stroke-opacity:1;stroke-miterlimit:10;" d="M 1346.570313 613.523438 L 1381.386719 613.523438 L 1381.386719 569.121094 L 1346.570313 569.121094 Z M 1346.570313 613.523438 "/>
<path style="fill-rule:nonzero;fill:rgb(99.607843%,98.431373%,98.823529%);fill-opacity:1;stroke-width:1.5;stroke-linecap:round;stroke-linejoin:round;stroke:rgb(0%,0%,0%);stroke-opacity:1;stroke-miterlimit:10;" d="M 1392.984375 644.015625 L 1413.824219 644.015625 L 1413.824219 613.523438 L 1392.984375 613.523438 Z M 1392.984375 644.015625 "/>
<path style="fill-rule:nonzero;fill:rgb(96.470588%,88.627451%,90.196078%);fill-opacity:1;stroke-width:1.5;stroke-linecap:round;stroke-linejoin:round;stroke:rgb(0%,0%,0%);stroke-opacity:1;stroke-miterlimit:10;" d="M 1137.855469 510.351563 L 1210.550781 510.351563 L 1210.550781 439.996094 L 1137.855469 439.996094 Z M 1137.855469 510.351563 "/>
<path style="fill-rule:nonzero;fill:rgb(96.470588%,88.627451%,90.196078%);fill-opacity:1;stroke-width:1.5;stroke-linecap:round;stroke-linejoin:round;stroke:rgb(0%,0%,0%);stroke-opacity:1;stroke-miterlimit:10;" d="M 1382.207031 685.464844 L 1398.457031 685.464844 L 1398.457031 663.769531 L 1382.207031 663.769531 Z M 1382.207031 685.464844 "/>
<path style="fill-rule:nonzero;fill:rgb(80%,80%,80%);fill-opacity:1;stroke-width:1.5;stroke-linecap:round;stroke-linejoin:round;stroke:rgb(0%,0%,0%);stroke-opacity:1;stroke-miterlimit:10;" d="M 1387.289063 726.25 L 1395.722656 726.25 L 1395.722656 717.554688 L 1387.289063 717.554688 Z M 1387.289063 726.25 "/>
<path style="fill-rule:nonzero;fill:rgb(97.254902%,90.196078%,91.764706%);fill-opacity:1;stroke-width:1.5;stroke-linecap:round;stroke-linejoin:round;stroke:rgb(0%,0%,0%);stroke-opacity:1;stroke-miterlimit:10;" d="M 827.335938 734.414063 L 962.417969 734.414063 L 962.417969 633.859375 L 827.335938 633.859375 Z M 827.335938 734.414063 "/>
<path style="fill-rule:nonzero;fill:rgb(90.588235%,67.058824%,71.764706%);fill-opacity:1;stroke-width:1.5;stroke-linecap:round;stroke-linejoin:round;stroke:rgb(0%,0%,0%);stroke-opacity:1;stroke-miterlimit:10;" d="M 1402.113281 708.152344 L 1413.828125 708.152344 L 1413.828125 697.875 L 1402.113281 697.875 Z M 1402.113281 708.152344 "/>
<path style="fill-rule:nonzero;fill:rgb(92.54902%,73.72549%,77.254902%);fill-opacity:1;stroke-width:1.5;stroke-linecap:round;stroke-linejoin:round;stroke:rgb(0%,0%,0%);stroke-opacity:1;stroke-miterlimit:10;" d="M 1363.117188 734.414063 L 1377.519531 734.414063 L 1377.519531 722.640625 L 1363.117188 722.640625 Z M 1363.117188 734.414063 "/>
<path style="fill-rule:nonzero;fill:rgb(98.823529%,96.862745%,97.254902%);fill-opacity:1;stroke-width:1.5;stroke-linecap:round;stroke-linejoin:round;stroke:rgb(0%,0%,0%);stroke-opacity:1;stroke-miterlimit:10;" d="M 1320.335938 644.015625 L 1347.71875 644.015625 L 1347.71875 613.523438 L 1320.335938 613.523438 Z M 1320.335938 644.015625 "/>
<path style="fill-rule:nonzero;fill:rgb(85.490196%,49.411765%,56.470588%);fill-opacity:1;stroke-width:1.5;stroke-linecap:round;stroke-linejoin:round;stroke:rgb(0%,0%,0%);stroke-opacity:1;stroke-miterlimit:10;" d="M 1349.015625 510.351563 L 1413.828125 510.351563 L 1413.828125 439.996094 L 1349.015625 439.996094 Z M 1349.015625 510.351563 "/>
<path style="fill-rule:nonzero;fill:rgb(95.686275%,85.490196%,87.45098%);fill-opacity:1;stroke-width:1.5;stroke-linecap:round;stroke-linejoin:round;stroke:rgb(0%,0%,0%);stroke-opacity:1;stroke-miterlimit:10;" d="M 962.417969 734.414063 L 1057.046875 734.414063 L 1057.046875 648.492188 L 962.417969 648.492188 Z M 962.417969 734.414063 "/>
<path style="fill-rule:nonzero;fill:rgb(96.862745%,89.411765%,90.980392%);fill-opacity:1;stroke-width:1.5;stroke-linecap:round;stroke-linejoin:round;stroke:rgb(0%,0%,0%);stroke-opacity:1;stroke-miterlimit:10;" d="M 85.171875 419.902344 L 574.988281 419.902344 L 574.988281 15.585938 L 85.171875 15.585938 Z M 85.171875 419.902344 "/>
<path style="fill-rule:nonzero;fill:rgb(98.431373%,94.509804%,95.294118%);fill-opacity:1;stroke-width:1.5;stroke-linecap:round;stroke-linejoin:round;stroke:rgb(0%,0%,0%);stroke-opacity:1;stroke-miterlimit:10;" d="M 827.335938 379.644531 L 962.417969 379.644531 L 962.417969 239.226563 L 827.335938 239.226563 Z M 827.335938 379.644531 "/>
<path style="fill-rule:nonzero;fill:rgb(99.607843%,99.215686%,99.607843%);fill-opacity:1;stroke-width:1.5;stroke-linecap:round;stroke-linejoin:round;stroke:rgb(0%,0%,0%);stroke-opacity:1;stroke-miterlimit:10;" d="M 1204.414063 569.121094 L 1260.34375 569.121094 L 1260.34375 510.351563 L 1204.414063 510.351563 Z M 1204.414063 569.121094 "/>
<path style="fill-rule:nonzero;fill:rgb(99.607843%,98.431373%,98.823529%);fill-opacity:1;stroke-width:1.5;stroke-linecap:round;stroke-linejoin:round;stroke:rgb(0%,0%,0%);stroke-opacity:1;stroke-miterlimit:10;" d="M 1347.71875 644.015625 L 1370.960938 644.015625 L 1370.960938 613.523438 L 1347.71875 613.523438 Z M 1347.71875 644.015625 "/>
<path style="fill-rule:nonzero;fill:rgb(99.607843%,99.607843%,99.607843%);fill-opacity:1;stroke-width:1.5;stroke-linecap:round;stroke-linejoin:round;stroke:rgb(0%,0%,0%);stroke-opacity:1;stroke-miterlimit:10;" d="M 962.417969 648.492188 L 1057.046875 648.492188 L 1057.046875 551.507813 L 962.417969 551.507813 Z M 962.417969 648.492188 "/>
<path style="fill-rule:nonzero;fill:rgb(99.607843%,99.607843%,99.607843%);fill-opacity:1;stroke-width:1.5;stroke-linecap:round;stroke-linejoin:round;stroke:rgb(0%,0%,0%);stroke-opacity:1;stroke-miterlimit:10;" d="M 1320.335938 712.839844 L 1343.90625 712.839844 L 1343.90625 691.140625 L 1320.335938 691.140625 Z M 1320.335938 712.839844 "/>
<path style="fill-rule:nonzero;fill:rgb(91.764706%,71.372549%,75.686275%);fill-opacity:1;stroke-width:1.5;stroke-linecap:round;stroke-linejoin:round;stroke:rgb(0%,0%,0%);stroke-opacity:1;stroke-miterlimit:10;" d="M 1137.855469 734.414063 L 1204.414063 734.414063 L 1204.414063 684.707031 L 1137.855469 684.707031 Z M 1137.855469 734.414063 "/>
<path style="fill-rule:nonzero;fill:rgb(80%,80%,80%);fill-opacity:1;stroke-width:1.5;stroke-linecap:round;stroke-linejoin:round;stroke:rgb(0%,0%,0%);stroke-opacity:1;stroke-miterlimit:10;" d="M 1260.34375 569.121094 L 1315.988281 569.121094 L 1315.988281 510.351563 L 1260.34375 510.351563 Z M 1260.34375 569.121094 "/>
<path style="fill-rule:nonzero;fill:rgb(99.215686%,97.254902%,97.647059%);fill-opacity:1;stroke-width:1.5;stroke-linecap:round;stroke-linejoin:round;stroke:rgb(0%,0%,0%);stroke-opacity:1;stroke-miterlimit:10;" d="M 1057.046875 516.242188 L 1137.855469 516.242188 L 1137.855469 439.996094 L 1057.046875 439.996094 Z M 1057.046875 516.242188 "/>
<path style="fill-rule:nonzero;fill:rgb(95.294118%,83.921569%,86.27451%);fill-opacity:1;stroke-width:1.5;stroke-linecap:round;stroke-linejoin:round;stroke:rgb(0%,0%,0%);stroke-opacity:1;stroke-miterlimit:10;" d="M 1402.238281 697.875 L 1413.824219 697.875 L 1413.824219 685.464844 L 1402.238281 685.464844 Z M 1402.238281 697.875 "/>
<path style="fill-rule:nonzero;fill:rgb(80%,80%,80%);fill-opacity:1;stroke-width:1.5;stroke-linecap:round;stroke-linejoin:round;stroke:rgb(0%,0%,0%);stroke-opacity:1;stroke-miterlimit:10;" d="M 827.335938 517.214844 L 962.417969 517.214844 L 962.417969 379.648438 L 827.335938 379.648438 Z M 827.335938 517.214844 "/>
<path style="fill-rule:nonzero;fill:rgb(87.058824%,55.294118%,61.568627%);fill-opacity:1;stroke-width:1.5;stroke-linecap:round;stroke-linejoin:round;stroke:rgb(0%,0%,0%);stroke-opacity:1;stroke-miterlimit:10;" d="M 1251.488281 734.414063 L 1286.378906 734.414063 L 1286.378906 694.429688 L 1251.488281 694.429688 Z M 1251.488281 734.414063 "/>
<path style="fill-rule:nonzero;fill:rgb(80.784314%,32.156863%,41.960784%);fill-opacity:1;stroke-width:1.5;stroke-linecap:round;stroke-linejoin:round;stroke:rgb(0%,0%,0%);stroke-opacity:1;stroke-miterlimit:10;" d="M 1387.289063 734.414063 L 1395.722656 734.414063 L 1395.722656 726.25 L 1387.289063 726.25 Z M 1387.289063 734.414063 "/>
<path style="fill-rule:nonzero;fill:rgb(80%,80%,80%);fill-opacity:1;stroke-width:1.5;stroke-linecap:round;stroke-linejoin:round;stroke:rgb(0%,0%,0%);stroke-opacity:1;stroke-miterlimit:10;" d="M 1137.855469 684.707031 L 1204.414063 684.707031 L 1204.414063 631.828125 L 1137.855469 631.828125 Z M 1137.855469 684.707031 "/>
<path style="fill-rule:nonzero;fill:rgb(80%,80%,80%);fill-opacity:1;stroke-width:1.5;stroke-linecap:round;stroke-linejoin:round;stroke:rgb(0%,0%,0%);stroke-opacity:1;stroke-miterlimit:10;" d="M 1408.738281 734.414063 L 1413.332031 734.414063 L 1413.332031 732.636719 L 1408.738281 732.636719 Z M 1408.738281 734.414063 "/>
<path style="fill-rule:nonzero;fill:rgb(90.196078%,66.666667%,71.372549%);fill-opacity:1;stroke-width:1.5;stroke-linecap:round;stroke-linejoin:round;stroke:rgb(0%,0%,0%);stroke-opacity:1;stroke-miterlimit:10;" d="M 1302.632813 613.523438 L 1346.566406 613.523438 L 1346.566406 569.121094 L 1302.632813 569.121094 Z M 1302.632813 613.523438 "/>
<path style="fill-rule:nonzero;fill:rgb(80%,80%,80%);fill-opacity:1;stroke-width:1.5;stroke-linecap:round;stroke-linejoin:round;stroke:rgb(0%,0%,0%);stroke-opacity:1;stroke-miterlimit:10;" d="M 1404.972656 714.847656 L 1413.828125 714.847656 L 1413.828125 708.152344 L 1404.972656 708.152344 Z M 1404.972656 714.847656 "/>
<path style="fill-rule:nonzero;fill:rgb(99.607843%,99.607843%,99.607843%);fill-opacity:1;stroke-width:1.5;stroke-linecap:round;stroke-linejoin:round;stroke:rgb(0%,0%,0%);stroke-opacity:1;stroke-miterlimit:10;" d="M 1320.335938 669.382813 L 1343.90625 669.382813 L 1343.90625 644.015625 L 1320.335938 644.015625 Z M 1320.335938 669.382813 "/>
<path style="fill-rule:nonzero;fill:rgb(99.607843%,99.215686%,99.215686%);fill-opacity:1;stroke-width:1.5;stroke-linecap:round;stroke-linejoin:round;stroke:rgb(0%,0%,0%);stroke-opacity:1;stroke-miterlimit:10;" d="M 574.988281 734.414063 L 827.335938 734.414063 L 827.335938 511.003906 L 574.988281 511.003906 Z M 574.988281 734.414063 "/>
<path style="fill-rule:nonzero;fill:rgb(99.607843%,99.607843%,99.607843%);fill-opacity:1;stroke-width:1.5;stroke-linecap:round;stroke-linejoin:round;stroke:rgb(0%,0%,0%);stroke-opacity:1;stroke-miterlimit:10;" d="M 1057.046875 734.414063 L 1137.855469 734.414063 L 1137.855469 666.464844 L 1057.046875 666.464844 Z M 1057.046875 734.414063 "/>
<path style="fill-rule:nonzero;fill:rgb(80%,80%,80%);fill-opacity:1;stroke-width:1.5;stroke-linecap:round;stroke-linejoin:round;stroke:rgb(0%,0%,0%);stroke-opacity:1;stroke-miterlimit:10;" d="M 1370.957031 644.015625 L 1392.984375 644.015625 L 1392.984375 613.523438 L 1370.957031 613.523438 Z M 1370.957031 644.015625 "/>
<path style="fill-rule:nonzero;fill:rgb(99.607843%,99.607843%,99.607843%);fill-opacity:1;stroke-width:1.5;stroke-linecap:round;stroke-linejoin:round;stroke:rgb(0%,0%,0%);stroke-opacity:1;stroke-miterlimit:10;" d="M 1286.378906 708.683594 L 1320.335938 708.683594 L 1320.335938 679.769531 L 1286.378906 679.769531 Z M 1286.378906 708.683594 "/>
<path style="fill-rule:nonzero;fill:rgb(86.666667%,54.117647%,60.784314%);fill-opacity:1;stroke-width:1.5;stroke-linecap:round;stroke-linejoin:round;stroke:rgb(0%,0%,0%);stroke-opacity:1;stroke-miterlimit:10;" d="M 1320.335938 691.140625 L 1343.90625 691.140625 L 1343.90625 669.382813 L 1320.335938 669.382813 Z M 1320.335938 691.140625 "/>
<path style="fill-rule:nonzero;fill:rgb(80%,80%,80%);fill-opacity:1;stroke-width:1.5;stroke-linecap:round;stroke-linejoin:round;stroke:rgb(0%,0%,0%);stroke-opacity:1;stroke-miterlimit:10;" d="M 1251.488281 694.429688 L 1286.378906 694.429688 L 1286.378906 654.328125 L 1251.488281 654.328125 Z M 1251.488281 694.429688 "/>
<path style="fill-rule:nonzero;fill:rgb(96.862745%,89.803922%,90.980392%);fill-opacity:1;stroke-width:1.5;stroke-linecap:round;stroke-linejoin:round;stroke:rgb(0%,0%,0%);stroke-opacity:1;stroke-miterlimit:10;" d="M 1408.941406 723.371094 L 1413.824219 723.371094 L 1413.824219 714.847656 L 1408.941406 714.847656 Z M 1408.941406 723.371094 "/>
<path style="fill-rule:nonzero;fill:rgb(96.470588%,88.627451%,90.196078%);fill-opacity:1;stroke-width:1.5;stroke-linecap:round;stroke-linejoin:round;stroke:rgb(0%,0%,0%);stroke-opacity:1;stroke-miterlimit:10;" d="M 962.417969 345.507813 L 1089.605469 345.507813 L 1089.605469 239.226563 L 962.417969 239.226563 Z M 962.417969 345.507813 "/>
<path style="fill-rule:nonzero;fill:rgb(98.431373%,95.294118%,96.078431%);fill-opacity:1;stroke-width:1.5;stroke-linecap:round;stroke-linejoin:round;stroke:rgb(0%,0%,0%);stroke-opacity:1;stroke-miterlimit:10;" d="M 1204.414063 683.492188 L 1251.488281 683.492188 L 1251.488281 628.613281 L 1204.414063 628.613281 Z M 1204.414063 683.492188 "/>
<path style="fill-rule:nonzero;fill:rgb(93.72549%,78.823529%,81.960784%);fill-opacity:1;stroke-width:1.5;stroke-linecap:round;stroke-linejoin:round;stroke:rgb(0%,0%,0%);stroke-opacity:1;stroke-miterlimit:10;" d="M 1398.453125 685.464844 L 1413.828125 685.464844 L 1413.828125 663.769531 L 1398.453125 663.769531 Z M 1398.453125 685.464844 "/>
<path style="fill-rule:nonzero;fill:rgb(85.098039%,47.45098%,54.901961%);fill-opacity:1;stroke-width:1.5;stroke-linecap:round;stroke-linejoin:round;stroke:rgb(0%,0%,0%);stroke-opacity:1;stroke-miterlimit:10;" d="M 574.988281 511.003906 L 827.335938 511.003906 L 827.335938 283.882813 L 574.988281 283.882813 Z M 574.988281 511.003906 "/>
<path style="fill-rule:nonzero;fill:rgb(80%,80%,80%);fill-opacity:1;stroke-width:1.5;stroke-linecap:round;stroke-linejoin:round;stroke:rgb(0%,0%,0%);stroke-opacity:1;stroke-miterlimit:10;" d="M 1211.136719 439.996094 L 1279.175781 439.996094 L 1279.175781 345.507813 L 1211.136719 345.507813 Z M 1211.136719 439.996094 "/>
<path style="fill-rule:nonzero;fill:rgb(99.215686%,97.647059%,98.039216%);fill-opacity:1;stroke-width:1.5;stroke-linecap:round;stroke-linejoin:round;stroke:rgb(0%,0%,0%);stroke-opacity:1;stroke-miterlimit:10;" d="M 1286.378906 647.71875 L 1320.335938 647.71875 L 1320.335938 613.523438 L 1286.378906 613.523438 Z M 1286.378906 647.71875 "/>
<path style="fill-rule:nonzero;fill:rgb(99.215686%,97.647059%,98.039216%);fill-opacity:1;stroke-width:1.5;stroke-linecap:round;stroke-linejoin:round;stroke:rgb(0%,0%,0%);stroke-opacity:1;stroke-miterlimit:10;" d="M 1395.722656 729 L 1402.925781 729 L 1402.925781 723.371094 L 1395.722656 723.371094 Z M 1395.722656 729 "/>
<path style="fill-rule:nonzero;fill:rgb(98.823529%,96.470588%,96.862745%);fill-opacity:1;stroke-width:1.5;stroke-linecap:round;stroke-linejoin:round;stroke:rgb(0%,0%,0%);stroke-opacity:1;stroke-miterlimit:10;" d="M 1381.386719 613.523438 L 1413.828125 613.523438 L 1413.828125 569.121094 L 1381.386719 569.121094 Z M 1381.386719 613.523438 "/>
<path style="fill-rule:nonzero;fill:rgb(99.215686%,98.431373%,98.431373%);fill-opacity:1;stroke-width:1.5;stroke-linecap:round;stroke-linejoin:round;stroke:rgb(0%,0%,0%);stroke-opacity:1;stroke-miterlimit:10;" d="M 1139.46875 439.996094 L 1211.136719 439.996094 L 1211.136719 345.507813 L 1139.46875 345.507813 Z M 1139.46875 439.996094 "/>
<path style="fill-rule:nonzero;fill:rgb(97.647059%,92.156863%,93.333333%);fill-opacity:1;stroke-width:1.5;stroke-linecap:round;stroke-linejoin:round;stroke:rgb(0%,0%,0%);stroke-opacity:1;stroke-miterlimit:10;" d="M 574.988281 283.882813 L 827.335938 283.882813 L 827.335938 15.585938 L 574.988281 15.585938 Z M 574.988281 283.882813 "/>
<path style="fill-rule:nonzero;fill:rgb(84.705882%,46.666667%,54.509804%);fill-opacity:1;stroke-width:1.5;stroke-linecap:round;stroke-linejoin:round;stroke:rgb(0%,0%,0%);stroke-opacity:1;stroke-miterlimit:10;" d="M 1343.90625 663.769531 L 1368.683594 663.769531 L 1368.683594 644.015625 L 1343.90625 644.015625 Z M 1343.90625 663.769531 "/>
<path style="fill-rule:nonzero;fill:rgb(80%,80%,80%);fill-opacity:1;stroke-width:1.5;stroke-linecap:round;stroke-linejoin:round;stroke:rgb(0%,0%,0%);stroke-opacity:1;stroke-miterlimit:10;" d="M 1389.996094 708.152344 L 1402.109375 708.152344 L 1402.109375 697.875 L 1389.996094 697.875 Z M 1389.996094 708.152344 "/>
<path style="fill-rule:nonzero;fill:rgb(97.647059%,92.54902%,93.333333%);fill-opacity:1;stroke-width:1.5;stroke-linecap:round;stroke-linejoin:round;stroke:rgb(0%,0%,0%);stroke-opacity:1;stroke-miterlimit:10;" d="M 1387.289063 717.550781 L 1395.722656 717.550781 L 1395.722656 708.152344 L 1387.289063 708.152344 Z M 1387.289063 717.550781 "/>
<path style="fill-rule:nonzero;fill:rgb(80%,80%,80%);fill-opacity:1;stroke-width:1.5;stroke-linecap:round;stroke-linejoin:round;stroke:rgb(0%,0%,0%);stroke-opacity:1;stroke-miterlimit:10;" d="M 1377.519531 726.246094 L 1387.292969 726.246094 L 1387.292969 717.769531 L 1377.519531 717.769531 Z M 1377.519531 726.246094 "/>
<path style="fill-rule:nonzero;fill:rgb(80%,80%,80%);fill-opacity:1;stroke-width:1.5;stroke-linecap:round;stroke-linejoin:round;stroke:rgb(0%,0%,0%);stroke-opacity:1;stroke-miterlimit:10;" d="M 1343.90625 685.464844 L 1363.074219 685.464844 L 1363.074219 663.769531 L 1343.90625 663.769531 Z M 1343.90625 685.464844 "/>
<path style="fill-rule:nonzero;fill:rgb(80%,80%,80%);fill-opacity:1;stroke-width:1.5;stroke-linecap:round;stroke-linejoin:round;stroke:rgb(0%,0%,0%);stroke-opacity:1;stroke-miterlimit:10;" d="M 1057.046875 439.996094 L 1139.46875 439.996094 L 1139.46875 345.507813 L 1057.046875 345.507813 Z M 1057.046875 439.996094 "/>
<path style="fill-rule:nonzero;fill:rgb(99.607843%,99.607843%,99.607843%);fill-opacity:1;stroke-width:1.5;stroke-linecap:round;stroke-linejoin:round;stroke:rgb(0%,0%,0%);stroke-opacity:1;stroke-miterlimit:10;" d="M 1402.925781 729.152344 L 1408.476563 729.152344 L 1408.476563 723.371094 L 1402.925781 723.371094 Z M 1402.925781 729.152344 "/>
<path style="fill-rule:nonzero;fill:rgb(80%,80%,80%);fill-opacity:1;stroke-width:1.5;stroke-linecap:round;stroke-linejoin:round;stroke:rgb(0%,0%,0%);stroke-opacity:1;stroke-miterlimit:10;" d="M 1395.722656 734.414063 L 1402.925781 734.414063 L 1402.925781 729 L 1395.722656 729 Z M 1395.722656 734.414063 "/>
<path style="fill-rule:nonzero;fill:rgb(99.215686%,97.254902%,97.647059%);fill-opacity:1;stroke-width:1.5;stroke-linecap:round;stroke-linejoin:round;stroke:rgb(0%,0%,0%);stroke-opacity:1;stroke-miterlimit:10;" d="M 1204.414063 628.613281 L 1251.488281 628.613281 L 1251.488281 569.121094 L 1204.414063 569.121094 Z M 1204.414063 628.613281 "/>
<path style="fill-rule:nonzero;fill:rgb(99.607843%,98.823529%,99.215686%);fill-opacity:1;stroke-width:1.5;stroke-linecap:round;stroke-linejoin:round;stroke:rgb(0%,0%,0%);stroke-opacity:1;stroke-miterlimit:10;" d="M 827.335938 633.859375 L 962.417969 633.859375 L 962.417969 517.214844 L 827.335938 517.214844 Z M 827.335938 633.859375 "/>
<path style="fill-rule:nonzero;fill:rgb(97.254902%,90.588235%,91.764706%);fill-opacity:1;stroke-width:1.5;stroke-linecap:round;stroke-linejoin:round;stroke:rgb(0%,0%,0%);stroke-opacity:1;stroke-miterlimit:10;" d="M 1286.378906 679.769531 L 1320.335938 679.769531 L 1320.335938 647.71875 L 1286.378906 647.71875 Z M 1286.378906 679.769531 "/>
<path style="fill-rule:nonzero;fill:rgb(97.647059%,92.54902%,93.72549%);fill-opacity:1;stroke-width:1.5;stroke-linecap:round;stroke-linejoin:round;stroke:rgb(0%,0%,0%);stroke-opacity:1;stroke-miterlimit:10;" d="M 1408.738281 732.636719 L 1413.824219 732.636719 L 1413.824219 729.152344 L 1408.738281 729.152344 Z M 1408.738281 732.636719 "/>
<path style="fill-rule:nonzero;fill:rgb(90.980392%,68.627451%,73.333333%);fill-opacity:1;stroke-width:1.5;stroke-linecap:round;stroke-linejoin:round;stroke:rgb(0%,0%,0%);stroke-opacity:1;stroke-miterlimit:10;" d="M 1377.519531 734.414063 L 1387.292969 734.414063 L 1387.292969 726.246094 L 1377.519531 726.246094 Z M 1377.519531 734.414063 "/>
<path style="fill-rule:nonzero;fill:rgb(99.607843%,99.607843%,99.607843%);fill-opacity:1;stroke-width:1.5;stroke-linecap:round;stroke-linejoin:round;stroke:rgb(0%,0%,0%);stroke-opacity:1;stroke-miterlimit:10;" d="M 1137.855469 631.828125 L 1204.414063 631.828125 L 1204.414063 574.496094 L 1137.855469 574.496094 Z M 1137.855469 631.828125 "/>
<path style="fill-rule:nonzero;fill:rgb(92.54902%,73.72549%,77.647059%);fill-opacity:1;stroke-width:1.5;stroke-linecap:round;stroke-linejoin:round;stroke:rgb(0%,0%,0%);stroke-opacity:1;stroke-miterlimit:10;" d="M 1363.117188 710.625 L 1377.519531 710.625 L 1377.519531 698.40625 L 1363.117188 698.40625 Z M 1363.117188 710.625 "/>
<path style="fill-rule:nonzero;fill:rgb(99.607843%,99.607843%,99.607843%);fill-opacity:1;stroke-width:1.5;stroke-linecap:round;stroke-linejoin:round;stroke:rgb(0%,0%,0%);stroke-opacity:1;stroke-miterlimit:10;" d="M 1089.609375 345.507813 L 1213.167969 345.507813 L 1213.167969 239.226563 L 1089.609375 239.226563 Z M 1089.609375 345.507813 "/>
<path style="fill-rule:nonzero;fill:rgb(95.686275%,84.705882%,87.058824%);fill-opacity:1;stroke-width:1.5;stroke-linecap:round;stroke-linejoin:round;stroke:rgb(0%,0%,0%);stroke-opacity:1;stroke-miterlimit:10;" d="M 1343.90625 718.949219 L 1363.113281 718.949219 L 1363.113281 702.308594 L 1343.90625 702.308594 Z M 1343.90625 718.949219 "/>
<path style="fill-rule:nonzero;fill:rgb(87.058824%,54.901961%,61.176471%);fill-opacity:1;stroke-width:1.5;stroke-linecap:round;stroke-linejoin:round;stroke:rgb(0%,0%,0%);stroke-opacity:1;stroke-miterlimit:10;" d="M 1286.378906 734.414063 L 1320.335938 734.414063 L 1320.335938 708.683594 L 1286.378906 708.683594 Z M 1286.378906 734.414063 "/>
<path style="fill-rule:nonzero;fill:rgb(80%,80%,80%);fill-opacity:1;stroke-width:1.5;stroke-linecap:round;stroke-linejoin:round;stroke:rgb(0%,0%,0%);stroke-opacity:1;stroke-miterlimit:10;" d="M 1363.117188 722.640625 L 1377.519531 722.640625 L 1377.519531 710.625 L 1363.117188 710.625 Z M 1363.117188 722.640625 "/>
<path style="fill-rule:nonzero;fill:rgb(99.607843%,99.607843%,99.607843%);fill-opacity:1;stroke-width:1.5;stroke-linecap:round;stroke-linejoin:round;stroke:rgb(0%,0%,0%);stroke-opacity:1;stroke-miterlimit:10;" d="M 1057.046875 591.671875 L 1137.855469 591.671875 L 1137.855469 516.246094 L 1057.046875 516.246094 Z M 1057.046875 591.671875 "/>
<path style="fill-rule:nonzero;fill:rgb(80%,80%,80%);fill-opacity:1;stroke-width:1.5;stroke-linecap:round;stroke-linejoin:round;stroke:rgb(0%,0%,0%);stroke-opacity:1;stroke-miterlimit:10;" d="M 1251.488281 613.523438 L 1302.632813 613.523438 L 1302.632813 569.121094 L 1251.488281 569.121094 Z M 1251.488281 613.523438 "/>
<path style="fill-rule:nonzero;fill:rgb(93.333333%,76.470588%,80%);fill-opacity:1;stroke-width:1.5;stroke-linecap:round;stroke-linejoin:round;stroke:rgb(0%,0%,0%);stroke-opacity:1;stroke-miterlimit:10;" d="M 1204.414063 734.414063 L 1251.488281 734.414063 L 1251.488281 683.492188 L 1204.414063 683.492188 Z M 1204.414063 734.414063 "/>
<path style="fill-rule:nonzero;fill:rgb(80%,80%,80%);fill-opacity:1;stroke-width:1.5;stroke-linecap:round;stroke-linejoin:round;stroke:rgb(0%,0%,0%);stroke-opacity:1;stroke-miterlimit:10;" d="M 1301.515625 239.226563 L 1413.824219 239.226563 L 1413.824219 15.585938 L 1301.515625 15.585938 Z M 1301.515625 239.226563 "/>
<path style="fill-rule:nonzero;fill:rgb(99.607843%,99.607843%,99.607843%);fill-opacity:1;stroke-width:1.5;stroke-linecap:round;stroke-linejoin:round;stroke:rgb(0%,0%,0%);stroke-opacity:1;stroke-miterlimit:10;" d="M 1343.90625 734.414063 L 1363.113281 734.414063 L 1363.113281 718.949219 L 1343.90625 718.949219 Z M 1343.90625 734.414063 "/>
<path style="fill-rule:nonzero;fill:rgb(80%,80%,80%);fill-opacity:1;stroke-width:1.5;stroke-linecap:round;stroke-linejoin:round;stroke:rgb(0%,0%,0%);stroke-opacity:1;stroke-miterlimit:10;" d="M 1395.722656 723.371094 L 1402.367188 723.371094 L 1402.367188 714.847656 L 1395.722656 714.847656 Z M 1395.722656 723.371094 "/>
<path style="fill-rule:nonzero;fill:rgb(98.039216%,92.941176%,93.72549%);fill-opacity:1;stroke-width:1.5;stroke-linecap:round;stroke-linejoin:round;stroke:rgb(0%,0%,0%);stroke-opacity:1;stroke-miterlimit:10;" d="M 1343.90625 702.308594 L 1363.113281 702.308594 L 1363.113281 685.460938 L 1343.90625 685.460938 Z M 1343.90625 702.308594 "/>
<path style="fill-rule:nonzero;fill:rgb(99.215686%,98.039216%,98.431373%);fill-opacity:1;stroke-width:1.5;stroke-linecap:round;stroke-linejoin:round;stroke:rgb(0%,0%,0%);stroke-opacity:1;stroke-miterlimit:10;" d="M 1173.496094 239.226563 L 1301.515625 239.226563 L 1301.515625 15.585938 L 1173.496094 15.585938 Z M 1173.496094 239.226563 "/>
<path style="fill-rule:nonzero;fill:rgb(99.215686%,98.039216%,98.431373%);fill-opacity:1;stroke-width:1.5;stroke-linecap:round;stroke-linejoin:round;stroke:rgb(0%,0%,0%);stroke-opacity:1;stroke-miterlimit:10;" d="M 962.417969 551.507813 L 1057.046875 551.507813 L 1057.046875 452.671875 L 962.417969 452.671875 Z M 962.417969 551.507813 "/>
<path style="fill-rule:nonzero;fill:rgb(76.862745%,18.431373%,30.196078%);fill-opacity:1;stroke-width:1.5;stroke-linecap:round;stroke-linejoin:round;stroke:rgb(0%,0%,0%);stroke-opacity:1;stroke-miterlimit:10;" d="M 1377.519531 697.875 L 1390.421875 697.875 L 1390.421875 685.464844 L 1377.519531 685.464844 Z M 1377.519531 697.875 "/>
</g>
</svg>
